G04*
G04 #@! TF.GenerationSoftware,Altium Limited,Altium Designer,25.0.2 (28)*
G04*
G04 Layer_Color=65535*
%FSLAX25Y25*%
%MOIN*%
G70*
G04*
G04 #@! TF.SameCoordinates,61816E46-201E-4D2C-BEF2-F79E074576DA*
G04*
G04*
G04 #@! TF.FilePolarity,Positive*
G04*
G01*
G75*
%ADD10C,0.00591*%
%ADD11C,0.01000*%
%ADD12C,0.00787*%
%ADD13C,0.01968*%
%ADD14C,0.00394*%
%ADD15C,0.01181*%
%ADD16C,0.02362*%
%ADD17C,0.01575*%
G36*
X257454Y385885D02*
X257912Y385878D01*
X258394Y385868D01*
X258674Y385861D01*
X259138Y385847D01*
X259706Y385827D01*
X259774Y385820D01*
X259856Y385806D01*
X259890Y385799D01*
X259972Y385779D01*
X260068Y385745D01*
X260143Y385717D01*
X260201Y385694D01*
X260263Y385666D01*
X260393Y385605D01*
X260864Y385372D01*
X261069Y385277D01*
X261192Y385222D01*
X261268Y385188D01*
X261391Y385133D01*
X261438Y385113D01*
X261500Y385085D01*
X261548Y385065D01*
X261609Y385037D01*
X261657Y385017D01*
X261719Y384990D01*
X261767Y384969D01*
X261951Y384887D01*
X262026Y384853D01*
X262088Y384825D01*
X262204Y384771D01*
X262307Y384723D01*
X262765Y384490D01*
X262826Y384456D01*
X262901Y384415D01*
X263093Y384306D01*
X263147Y384272D01*
X263161Y384265D01*
X263216Y384231D01*
X263229Y384224D01*
X263304Y384176D01*
X263318Y384169D01*
X263359Y384142D01*
X263373Y384135D01*
X263421Y384101D01*
X263469Y384074D01*
X263516Y384039D01*
X263530Y384033D01*
X263578Y383998D01*
X263592Y383992D01*
X263639Y383957D01*
X263653Y383950D01*
X263701Y383916D01*
X263715Y383910D01*
X263810Y383841D01*
X263824Y383834D01*
X263838Y383821D01*
X263851Y383814D01*
X263865Y383800D01*
X263879Y383793D01*
X263964Y383728D01*
X264005Y383701D01*
X264015Y383691D01*
X264029Y383684D01*
X264043Y383670D01*
X264056Y383664D01*
X264070Y383650D01*
X264084Y383643D01*
X264207Y383547D01*
X264244Y383517D01*
X264268Y383499D01*
X264306Y383469D01*
X264330Y383452D01*
X264343Y383438D01*
X264357Y383431D01*
X264371Y383417D01*
X264384Y383411D01*
X264405Y383390D01*
X264419Y383383D01*
X264453Y383349D01*
X264466Y383342D01*
X264494Y383315D01*
X264508Y383308D01*
X264535Y383281D01*
X264548Y383274D01*
X264576Y383246D01*
X264590Y383240D01*
X264624Y383206D01*
X264637Y383199D01*
X264665Y383171D01*
X264678Y383165D01*
X264719Y383123D01*
X264733Y383117D01*
X264781Y383069D01*
X264794Y383062D01*
X264849Y383007D01*
X264863Y383000D01*
X264911Y382953D01*
X264924Y382946D01*
X265006Y382864D01*
X265020Y382857D01*
X265143Y382734D01*
X265157Y382727D01*
X265475Y382409D01*
X265481Y382396D01*
X265570Y382307D01*
X265577Y382293D01*
X265673Y382197D01*
X265680Y382184D01*
X265741Y382122D01*
X265748Y382108D01*
X265796Y382061D01*
X265803Y382047D01*
X265844Y382006D01*
X265851Y381992D01*
X265892Y381951D01*
X265898Y381938D01*
X265946Y381890D01*
X265953Y381876D01*
X265980Y381849D01*
X265987Y381835D01*
X266015Y381808D01*
X266021Y381794D01*
X266049Y381767D01*
X266056Y381753D01*
X266083Y381726D01*
X266090Y381712D01*
X266117Y381685D01*
X266124Y381671D01*
X266151Y381644D01*
X266158Y381630D01*
X266185Y381603D01*
X266192Y381589D01*
X266206Y381575D01*
X266213Y381562D01*
X266233Y381541D01*
X266240Y381527D01*
X266261Y381507D01*
X266267Y381493D01*
X266288Y381473D01*
X266295Y381459D01*
X266308Y381446D01*
X266315Y381432D01*
X266336Y381411D01*
X266343Y381398D01*
X266363Y381377D01*
X266370Y381364D01*
X266384Y381350D01*
X266390Y381336D01*
X266411Y381316D01*
X266418Y381302D01*
X266431Y381288D01*
X266438Y381275D01*
X266452Y381261D01*
X266459Y381247D01*
X266473Y381234D01*
X266479Y381220D01*
X266493Y381206D01*
X266500Y381193D01*
X266514Y381179D01*
X266520Y381165D01*
X266585Y381080D01*
X266773Y380817D01*
X266780Y380803D01*
X266794Y380789D01*
X266801Y380776D01*
X266869Y380680D01*
X266876Y380666D01*
X266910Y380618D01*
X266917Y380605D01*
X266985Y380509D01*
X267013Y380461D01*
X267047Y380413D01*
X267054Y380400D01*
X267088Y380352D01*
X267094Y380338D01*
X267238Y380113D01*
X267245Y380099D01*
X267272Y380058D01*
X267279Y380044D01*
X267313Y379990D01*
X267320Y379976D01*
X267347Y379935D01*
X267354Y379921D01*
X267389Y379867D01*
X267395Y379853D01*
X267429Y379798D01*
X267436Y379785D01*
X267471Y379730D01*
X267505Y379668D01*
X267559Y379573D01*
X267594Y379518D01*
X267635Y379443D01*
X267771Y379197D01*
X267853Y379046D01*
X267908Y378930D01*
X267922Y378896D01*
X267928Y378869D01*
X267942Y378821D01*
X267956Y378739D01*
X267963Y378691D01*
X267969Y378561D01*
X267959Y378312D01*
X267952Y378065D01*
X267949Y377215D01*
X267956Y377194D01*
X267946Y376637D01*
X267939Y376391D01*
X267935Y374733D01*
X267942Y374713D01*
X267952Y374675D01*
X267966Y374641D01*
X268007Y374573D01*
X268024Y374549D01*
X268103Y374470D01*
X268116Y374464D01*
X268130Y374450D01*
X268192Y374416D01*
X268239Y374388D01*
X268294Y374354D01*
X268342Y374327D01*
X268482Y374235D01*
X268523Y374207D01*
X268533Y374197D01*
X268547Y374190D01*
X268632Y374125D01*
X268656Y374108D01*
X268670Y374094D01*
X268684Y374088D01*
X268704Y374067D01*
X268718Y374060D01*
X268738Y374040D01*
X268752Y374033D01*
X268814Y373971D01*
X268827Y373965D01*
X268954Y373838D01*
X268960Y373824D01*
X269015Y373770D01*
X269022Y373756D01*
X269049Y373729D01*
X269056Y373715D01*
X269077Y373694D01*
X269084Y373681D01*
X269097Y373667D01*
X269104Y373654D01*
X269118Y373640D01*
X269125Y373626D01*
X269186Y373537D01*
X269193Y373524D01*
X269241Y373448D01*
X269289Y373360D01*
X269405Y373120D01*
X269425Y373073D01*
X269466Y372970D01*
X269483Y372926D01*
X269542Y372744D01*
X269569Y372649D01*
X269576Y372621D01*
X269589Y372573D01*
X269596Y372546D01*
X269606Y372502D01*
X269613Y372474D01*
X269641Y372338D01*
X269661Y372215D01*
X269678Y372075D01*
X269685Y372047D01*
X269692Y371931D01*
X269682Y371928D01*
X269620Y371955D01*
X269586Y371969D01*
X269538Y371989D01*
X269367Y372058D01*
X269364Y372047D01*
X269377Y372013D01*
X269419Y371849D01*
X269439Y371733D01*
X269446Y371706D01*
X269453Y371637D01*
X269460Y371610D01*
X269473Y371425D01*
X269480Y371295D01*
X269470Y371066D01*
X269463Y370991D01*
X269449Y370882D01*
X269429Y370759D01*
X269415Y370690D01*
X269408Y370663D01*
X269401Y370629D01*
X269381Y370547D01*
X269371Y370509D01*
X269357Y370462D01*
X269292Y370273D01*
X269271Y370219D01*
X269244Y370150D01*
X269186Y370024D01*
X269104Y369867D01*
X269077Y369819D01*
X269042Y369764D01*
X269036Y369751D01*
X269002Y369703D01*
X268995Y369689D01*
X268960Y369641D01*
X268954Y369628D01*
X268872Y369518D01*
X268807Y369433D01*
X268776Y369402D01*
X268769Y369388D01*
X268728Y369347D01*
X268721Y369334D01*
X268595Y369207D01*
X268581Y369200D01*
X268547Y369166D01*
X268533Y369159D01*
X268513Y369139D01*
X268499Y369132D01*
X268485Y369118D01*
X268472Y369112D01*
X268376Y369043D01*
X268328Y369016D01*
X268274Y368982D01*
X268157Y368920D01*
X268075Y368879D01*
X268072Y368883D01*
X268086Y368896D01*
X268092Y368910D01*
X268113Y368931D01*
X268120Y368944D01*
X268147Y368971D01*
X268154Y368985D01*
X268175Y369006D01*
X268181Y369019D01*
X268202Y369040D01*
X268209Y369054D01*
X268229Y369074D01*
X268236Y369088D01*
X268250Y369101D01*
X268256Y369115D01*
X268270Y369129D01*
X268277Y369142D01*
X268291Y369156D01*
X268298Y369170D01*
X268318Y369190D01*
X268325Y369204D01*
X268338Y369217D01*
X268345Y369231D01*
X268359Y369245D01*
X268366Y369258D01*
X268379Y369272D01*
X268386Y369286D01*
X268455Y369382D01*
X268462Y369395D01*
X268530Y369491D01*
X268537Y369505D01*
X268564Y369546D01*
X268571Y369559D01*
X268598Y369600D01*
X268605Y369614D01*
X268632Y369655D01*
X268639Y369669D01*
X268673Y369723D01*
X268714Y369798D01*
X268776Y369915D01*
X268865Y370099D01*
X268892Y370161D01*
X268906Y370195D01*
X268926Y370243D01*
X268940Y370277D01*
X268957Y370321D01*
X268978Y370376D01*
X269022Y370516D01*
X269049Y370612D01*
X269104Y370831D01*
X269114Y370875D01*
X269121Y370909D01*
X269128Y370950D01*
X269142Y371019D01*
X269155Y371101D01*
X269172Y371241D01*
X269179Y371268D01*
X269190Y371381D01*
X269196Y371470D01*
X269203Y371600D01*
X269207Y371856D01*
X269200Y371876D01*
X269193Y372081D01*
X269186Y372102D01*
X269176Y372194D01*
X269155Y372331D01*
X269148Y372372D01*
X269142Y372406D01*
X269135Y372433D01*
X269128Y372468D01*
X269121Y372495D01*
X269114Y372529D01*
X269094Y372611D01*
X269077Y372669D01*
X269063Y372717D01*
X269046Y372762D01*
X269019Y372837D01*
X268991Y372905D01*
X268957Y372980D01*
X268858Y373168D01*
X268766Y373308D01*
X268738Y373349D01*
X268728Y373360D01*
X268721Y373373D01*
X268708Y373387D01*
X268701Y373401D01*
X268680Y373421D01*
X268673Y373435D01*
X268660Y373448D01*
X268653Y373462D01*
X268626Y373489D01*
X268619Y373503D01*
X268578Y373544D01*
X268571Y373558D01*
X268390Y373739D01*
X268376Y373746D01*
X268342Y373780D01*
X268328Y373787D01*
X268301Y373814D01*
X268298Y373811D01*
X268311Y373777D01*
X268362Y373630D01*
X268390Y373554D01*
X268404Y373520D01*
X268424Y373465D01*
X268451Y373397D01*
X268513Y373233D01*
X268557Y373093D01*
X268585Y372997D01*
X268598Y372943D01*
X268608Y372898D01*
X268622Y372830D01*
X268629Y372789D01*
X268636Y372755D01*
X268643Y372714D01*
X268650Y372679D01*
X268673Y372485D01*
X268680Y372437D01*
X268690Y372317D01*
X268697Y372174D01*
X268701Y371890D01*
X268694Y371869D01*
X268687Y371671D01*
X268680Y371651D01*
X268673Y371541D01*
X268667Y371521D01*
X268656Y371442D01*
X268643Y371360D01*
X268636Y371326D01*
X268629Y371285D01*
X268615Y371217D01*
X268567Y371025D01*
X268557Y370988D01*
X268537Y370919D01*
X268492Y370793D01*
X268451Y370684D01*
X268438Y370650D01*
X268362Y370479D01*
X268311Y370379D01*
X268270Y370304D01*
X268236Y370250D01*
X268229Y370236D01*
X268137Y370096D01*
X268109Y370055D01*
X268092Y370031D01*
X268010Y369921D01*
X267980Y369884D01*
X267956Y369860D01*
X267949Y369846D01*
X267881Y369778D01*
X267874Y369764D01*
X267781Y369672D01*
X267768Y369665D01*
X267652Y369549D01*
X267638Y369542D01*
X267402Y369306D01*
X267395Y369293D01*
X267368Y369265D01*
X267361Y369252D01*
X267334Y369224D01*
X267327Y369211D01*
X267306Y369190D01*
X267286Y369122D01*
X267272Y369074D01*
X267259Y369019D01*
X267245Y368937D01*
X267238Y368910D01*
X267228Y368811D01*
X267221Y368715D01*
X267214Y368079D01*
X267187Y368073D01*
X267142Y368062D01*
X266951Y368015D01*
X266917Y368008D01*
X266862Y367994D01*
X266838Y367991D01*
X266828Y368001D01*
X266821Y368028D01*
X266719Y368226D01*
X266626Y368367D01*
X266616Y368377D01*
X266609Y368390D01*
X266596Y368404D01*
X266589Y368418D01*
X266575Y368431D01*
X266568Y368445D01*
X266541Y368473D01*
X266534Y368486D01*
X266479Y368541D01*
X266473Y368554D01*
X266373Y368654D01*
X266360Y368660D01*
X266305Y368715D01*
X266291Y368722D01*
X266271Y368742D01*
X266257Y368749D01*
X266237Y368770D01*
X266223Y368777D01*
X266209Y368790D01*
X266196Y368797D01*
X266182Y368811D01*
X266168Y368818D01*
X266155Y368831D01*
X266107Y368859D01*
X266059Y368893D01*
X266045Y368900D01*
X266038Y368906D01*
X266032Y360554D01*
X266011Y360547D01*
X258028Y360554D01*
X258007Y360561D01*
X257925Y360568D01*
X257905Y360588D01*
X257891Y360595D01*
X257857Y360629D01*
X257843Y360636D01*
X257809Y360670D01*
X257795Y360677D01*
X257754Y360718D01*
X257741Y360725D01*
X257707Y360759D01*
X257693Y360766D01*
X257659Y360800D01*
X257645Y360807D01*
X257611Y360841D01*
X257597Y360848D01*
X257556Y360889D01*
X257542Y360896D01*
X257502Y360937D01*
X257488Y360944D01*
X257440Y360992D01*
X257426Y360998D01*
X257385Y361039D01*
X257372Y361046D01*
X257331Y361087D01*
X257317Y361094D01*
X257276Y361135D01*
X257262Y361142D01*
X257221Y361183D01*
X257208Y361190D01*
X257160Y361238D01*
X257146Y361244D01*
X257105Y361285D01*
X257091Y361292D01*
X257044Y361340D01*
X257030Y361347D01*
X256989Y361388D01*
X256975Y361395D01*
X256927Y361443D01*
X256914Y361449D01*
X256866Y361497D01*
X256852Y361504D01*
X256811Y361545D01*
X256798Y361552D01*
X256750Y361600D01*
X256736Y361607D01*
X256695Y361648D01*
X256681Y361654D01*
X256633Y361702D01*
X256620Y361709D01*
X256579Y361750D01*
X256565Y361757D01*
X256524Y361798D01*
X256510Y361805D01*
X256469Y361846D01*
X256456Y361853D01*
X256415Y361894D01*
X256401Y361901D01*
X256360Y361942D01*
X256346Y361948D01*
X256305Y361989D01*
X256292Y361996D01*
X256258Y362030D01*
X256244Y362037D01*
X256203Y362078D01*
X256189Y362085D01*
X256155Y362119D01*
X256141Y362126D01*
X256107Y362160D01*
X256094Y362167D01*
X256059Y362201D01*
X256046Y362208D01*
X256012Y362242D01*
X255998Y362249D01*
X255964Y362283D01*
X255950Y362290D01*
X255916Y362324D01*
X255902Y362331D01*
X255875Y362358D01*
X255861Y362365D01*
X255834Y362393D01*
X255820Y362400D01*
X255793Y362427D01*
X255779Y362434D01*
X255752Y362461D01*
X255738Y362468D01*
X255711Y362495D01*
X255697Y362502D01*
X255670Y362529D01*
X255656Y362536D01*
X255629Y362564D01*
X255615Y362570D01*
X255588Y362598D01*
X255574Y362605D01*
X255547Y362632D01*
X255533Y362639D01*
X255512Y362659D01*
X255499Y362666D01*
X255478Y362687D01*
X255465Y362693D01*
X255444Y362714D01*
X255431Y362721D01*
X255410Y362741D01*
X255396Y362748D01*
X255376Y362769D01*
X255362Y362775D01*
X255335Y362803D01*
X255321Y362810D01*
X255301Y362830D01*
X255287Y362837D01*
X255266Y362858D01*
X255253Y362864D01*
X255232Y362885D01*
X255219Y362892D01*
X255140Y362970D01*
X255133Y362984D01*
X255119Y362998D01*
X255113Y363011D01*
X255085Y363059D01*
X255058Y363121D01*
X255031Y363216D01*
X255024Y363305D01*
X255017Y368267D01*
X255010Y368288D01*
X255000Y368332D01*
X254993Y368360D01*
X254976Y368404D01*
X254921Y368507D01*
X254887Y368554D01*
X254880Y368568D01*
X254860Y368589D01*
X254853Y368602D01*
X254754Y368702D01*
X254740Y368708D01*
X254706Y368742D01*
X254692Y368749D01*
X254665Y368777D01*
X254651Y368783D01*
X254624Y368811D01*
X254610Y368818D01*
X254576Y368852D01*
X254562Y368859D01*
X254535Y368886D01*
X254521Y368893D01*
X254487Y368927D01*
X254474Y368934D01*
X254446Y368961D01*
X254433Y368968D01*
X254405Y368995D01*
X254392Y369002D01*
X254357Y369036D01*
X254344Y369043D01*
X254316Y369071D01*
X254303Y369077D01*
X254275Y369105D01*
X254262Y369112D01*
X254227Y369146D01*
X254214Y369153D01*
X254180Y369187D01*
X254166Y369194D01*
X254132Y369228D01*
X254118Y369235D01*
X254084Y369269D01*
X254070Y369276D01*
X254036Y369310D01*
X254022Y369317D01*
X253988Y369351D01*
X253975Y369358D01*
X253940Y369392D01*
X253927Y369399D01*
X253893Y369433D01*
X253879Y369440D01*
X253845Y369474D01*
X253831Y369481D01*
X253797Y369515D01*
X253783Y369522D01*
X253742Y369563D01*
X253729Y369569D01*
X253712Y369587D01*
X253718Y369600D01*
X253732Y369614D01*
X253739Y369628D01*
X253766Y369655D01*
X253773Y369669D01*
X253814Y369710D01*
X253821Y369723D01*
X253869Y369771D01*
X253875Y369785D01*
X253958Y369867D01*
X253964Y369881D01*
X254046Y369963D01*
X254053Y369976D01*
X254128Y370051D01*
X254135Y370065D01*
X254183Y370113D01*
X254190Y370127D01*
X254224Y370161D01*
X254231Y370174D01*
X254258Y370202D01*
X254265Y370216D01*
X254286Y370236D01*
X254292Y370250D01*
X254306Y370263D01*
X254388Y370434D01*
X254395Y370462D01*
X254409Y370509D01*
X254422Y370564D01*
X254429Y370612D01*
X254436Y370639D01*
X254443Y370769D01*
X254450Y370858D01*
X254446Y371231D01*
X254450Y373558D01*
X254443Y373578D01*
X254436Y376360D01*
X254429Y376381D01*
X254422Y378636D01*
X254415Y378657D01*
X254405Y378694D01*
X254385Y378749D01*
X254333Y378841D01*
X254286Y378903D01*
X254166Y379022D01*
X254152Y379029D01*
X254029Y379152D01*
X254016Y379159D01*
X253940Y379234D01*
X253927Y379241D01*
X253872Y379296D01*
X253858Y379303D01*
X253804Y379357D01*
X253790Y379364D01*
X253735Y379419D01*
X253722Y379426D01*
X253674Y379474D01*
X253660Y379480D01*
X253626Y379515D01*
X253612Y379521D01*
X253578Y379556D01*
X253565Y379562D01*
X253530Y379597D01*
X253517Y379603D01*
X253483Y379638D01*
X253469Y379644D01*
X253435Y379679D01*
X253421Y379685D01*
X253387Y379720D01*
X253373Y379727D01*
X253346Y379754D01*
X253332Y379761D01*
X253312Y379781D01*
X253298Y379788D01*
X253271Y379815D01*
X253257Y379822D01*
X253236Y379843D01*
X253223Y379850D01*
X253195Y379877D01*
X253182Y379884D01*
X253154Y379911D01*
X253141Y379918D01*
X253120Y379938D01*
X253107Y379945D01*
X253079Y379973D01*
X253065Y379979D01*
X253045Y380000D01*
X253031Y380007D01*
X253011Y380027D01*
X252997Y380034D01*
X252977Y380055D01*
X252963Y380061D01*
X252949Y380075D01*
X252936Y380082D01*
X252915Y380102D01*
X252902Y380109D01*
X252881Y380130D01*
X252867Y380137D01*
X252847Y380157D01*
X252833Y380164D01*
X252819Y380178D01*
X252806Y380184D01*
X252785Y380205D01*
X252772Y380212D01*
X252751Y380232D01*
X252737Y380239D01*
X252717Y380260D01*
X252703Y380266D01*
X252690Y380280D01*
X252676Y380287D01*
X252662Y380301D01*
X252649Y380307D01*
X252628Y380328D01*
X252614Y380335D01*
X252601Y380348D01*
X252587Y380355D01*
X252573Y380369D01*
X252560Y380376D01*
X252539Y380396D01*
X252526Y380403D01*
X252512Y380417D01*
X252498Y380424D01*
X252478Y380444D01*
X252464Y380451D01*
X252450Y380465D01*
X252437Y380471D01*
X252423Y380485D01*
X252409Y380492D01*
X252389Y380512D01*
X252375Y380519D01*
X252361Y380533D01*
X252348Y380540D01*
X252334Y380554D01*
X252321Y380560D01*
X252307Y380574D01*
X252293Y380581D01*
X252279Y380594D01*
X252266Y380601D01*
X252252Y380615D01*
X252238Y380622D01*
X252225Y380635D01*
X252211Y380642D01*
X252198Y380656D01*
X252184Y380663D01*
X252163Y380683D01*
X252150Y380690D01*
X252136Y380704D01*
X252122Y380711D01*
X252109Y380724D01*
X252095Y380731D01*
X252081Y380745D01*
X252068Y380752D01*
X252054Y380765D01*
X252040Y380772D01*
X252027Y380786D01*
X252013Y380793D01*
X251999Y380806D01*
X251986Y380813D01*
X251972Y380827D01*
X251958Y380834D01*
X251945Y380847D01*
X251931Y380854D01*
X251917Y380868D01*
X251904Y380875D01*
X251890Y380888D01*
X251876Y380895D01*
X251863Y380909D01*
X251849Y380916D01*
X251835Y380929D01*
X251821Y380936D01*
X251808Y380950D01*
X251794Y380957D01*
X251781Y380970D01*
X251767Y380977D01*
X251753Y380991D01*
X251743Y380981D01*
X251733Y380902D01*
X251726Y380868D01*
X251705Y380786D01*
X251671Y380690D01*
X251658Y380656D01*
X251623Y380581D01*
X251613Y380571D01*
X251586Y380523D01*
X251572Y380509D01*
X251565Y380495D01*
X251552Y380482D01*
X251545Y380468D01*
X251487Y380410D01*
X251473Y380403D01*
X251452Y380383D01*
X251439Y380376D01*
X251384Y380342D01*
X250960Y380328D01*
X250810Y380321D01*
X250106Y380314D01*
X249029Y380318D01*
X249036Y380359D01*
X249050Y380393D01*
X249108Y380560D01*
X249149Y380670D01*
X249190Y380772D01*
X249245Y380895D01*
X249279Y380970D01*
X249398Y381206D01*
X249433Y381268D01*
X249460Y381316D01*
X249494Y381370D01*
X249501Y381384D01*
X249631Y381582D01*
X249764Y381763D01*
X249774Y381774D01*
X249781Y381787D01*
X249802Y381808D01*
X249809Y381821D01*
X249836Y381849D01*
X249843Y381862D01*
X249870Y381890D01*
X249877Y381903D01*
X249918Y381944D01*
X249925Y381958D01*
X249979Y382013D01*
X249986Y382027D01*
X250048Y382088D01*
X250055Y382102D01*
X250195Y382242D01*
X250208Y382249D01*
X250270Y382310D01*
X250284Y382317D01*
X250331Y382365D01*
X250345Y382372D01*
X250379Y382406D01*
X250393Y382413D01*
X250413Y382433D01*
X250427Y382440D01*
X250454Y382467D01*
X250468Y382474D01*
X250489Y382495D01*
X250502Y382502D01*
X250523Y382522D01*
X250537Y382529D01*
X250550Y382542D01*
X250564Y382549D01*
X250578Y382563D01*
X250591Y382570D01*
X250605Y382583D01*
X250619Y382590D01*
X250632Y382604D01*
X250646Y382611D01*
X250660Y382625D01*
X250673Y382631D01*
X250817Y382734D01*
X250831Y382741D01*
X250878Y382775D01*
X250892Y382782D01*
X250940Y382816D01*
X250954Y382823D01*
X251104Y382918D01*
X251117Y382925D01*
X251152Y382953D01*
X251077Y382932D01*
X250950Y382888D01*
X250841Y382847D01*
X250738Y382806D01*
X250588Y382737D01*
X250362Y382621D01*
X250359Y382618D01*
X250345Y382611D01*
X250290Y382577D01*
X250229Y382542D01*
X250188Y382515D01*
X250174Y382508D01*
X250127Y382474D01*
X250113Y382467D01*
X250065Y382433D01*
X250051Y382426D01*
X249870Y382293D01*
X249860Y382283D01*
X249846Y382276D01*
X249826Y382255D01*
X249812Y382249D01*
X249792Y382228D01*
X249778Y382221D01*
X249750Y382194D01*
X249737Y382187D01*
X249703Y382153D01*
X249689Y382146D01*
X249641Y382098D01*
X249627Y382091D01*
X249539Y382002D01*
X249525Y381996D01*
X249248Y381719D01*
X249241Y381705D01*
X249166Y381630D01*
X249159Y381616D01*
X249111Y381569D01*
X249105Y381555D01*
X249064Y381514D01*
X249057Y381500D01*
X249029Y381473D01*
X249023Y381459D01*
X249002Y381439D01*
X248995Y381425D01*
X248968Y381398D01*
X248961Y381384D01*
X248934Y381357D01*
X248927Y381343D01*
X248900Y381316D01*
X248893Y381302D01*
X248865Y381275D01*
X248859Y381261D01*
X248845Y381247D01*
X248838Y381234D01*
X248817Y381213D01*
X248811Y381199D01*
X248797Y381186D01*
X248790Y381172D01*
X248770Y381152D01*
X248763Y381138D01*
X248749Y381124D01*
X248742Y381111D01*
X248722Y381090D01*
X248715Y381076D01*
X248701Y381063D01*
X248694Y381049D01*
X248674Y381029D01*
X248667Y381015D01*
X248654Y381001D01*
X248647Y380988D01*
X248517Y380817D01*
X248510Y380803D01*
X248496Y380789D01*
X248489Y380776D01*
X248476Y380762D01*
X248469Y380748D01*
X248370Y380615D01*
X248342Y380574D01*
X248332Y380564D01*
X248325Y380550D01*
X248312Y380536D01*
X248305Y380523D01*
X248206Y380389D01*
X248179Y380348D01*
X248168Y380338D01*
X248161Y380325D01*
X248148Y380311D01*
X248141Y380297D01*
X248127Y380283D01*
X248120Y380270D01*
X247970Y380072D01*
X247963Y380058D01*
X247953Y380048D01*
X247950Y380065D01*
X247963Y380099D01*
X247973Y380137D01*
X247994Y380191D01*
X248049Y380328D01*
X248131Y380499D01*
X248206Y380635D01*
X248271Y380755D01*
X248339Y380878D01*
X248366Y380926D01*
X248421Y381029D01*
X248448Y381076D01*
X248476Y381117D01*
X248483Y381131D01*
X248517Y381179D01*
X248544Y381227D01*
X248578Y381275D01*
X248585Y381288D01*
X248619Y381336D01*
X248626Y381350D01*
X248660Y381398D01*
X248667Y381411D01*
X248835Y381640D01*
X248852Y381664D01*
X248917Y381750D01*
X248934Y381774D01*
X248947Y381787D01*
X248954Y381801D01*
X248975Y381821D01*
X248982Y381835D01*
X249002Y381856D01*
X249009Y381869D01*
X249029Y381890D01*
X249036Y381903D01*
X249064Y381931D01*
X249070Y381944D01*
X249105Y381979D01*
X249111Y381992D01*
X249146Y382027D01*
X249152Y382040D01*
X249187Y382074D01*
X249194Y382088D01*
X249262Y382156D01*
X249269Y382170D01*
X249440Y382341D01*
X249446Y382355D01*
X249470Y382379D01*
X249484Y382385D01*
X249580Y382481D01*
X249593Y382488D01*
X249648Y382542D01*
X249662Y382549D01*
X249696Y382583D01*
X249710Y382590D01*
X249750Y382631D01*
X249764Y382638D01*
X249792Y382665D01*
X249805Y382672D01*
X249819Y382686D01*
X249833Y382693D01*
X249853Y382713D01*
X249867Y382720D01*
X249887Y382741D01*
X249901Y382748D01*
X249915Y382761D01*
X249928Y382768D01*
X249949Y382789D01*
X249962Y382795D01*
X250154Y382932D01*
X250202Y382960D01*
X250243Y382987D01*
X250256Y382994D01*
X250297Y383021D01*
X250311Y383028D01*
X250454Y383110D01*
X250735Y383246D01*
X250783Y383267D01*
X250817Y383281D01*
X250865Y383301D01*
X250933Y383329D01*
X251022Y383356D01*
X251077Y383370D01*
X251172Y383383D01*
X251323Y383376D01*
X251343Y383370D01*
X251388Y383352D01*
X251422Y383339D01*
X251531Y383270D01*
X251681Y383175D01*
X251846Y383065D01*
X251917Y383014D01*
X251931Y383007D01*
X252027Y382939D01*
X252040Y382932D01*
X252136Y382864D01*
X252150Y382857D01*
X252163Y382843D01*
X252177Y382836D01*
X252608Y382529D01*
X252621Y382522D01*
X252635Y382508D01*
X252649Y382502D01*
X252813Y382385D01*
X252823Y382396D01*
X252830Y382409D01*
X252843Y382423D01*
X252850Y382437D01*
X252871Y382457D01*
X252878Y382471D01*
X252898Y382491D01*
X252905Y382505D01*
X252919Y382519D01*
X252925Y382532D01*
X252946Y382553D01*
X252953Y382566D01*
X252966Y382580D01*
X252973Y382594D01*
X252994Y382614D01*
X253001Y382628D01*
X253021Y382648D01*
X253028Y382662D01*
X253042Y382676D01*
X253048Y382689D01*
X253069Y382710D01*
X253076Y382724D01*
X253096Y382744D01*
X253103Y382758D01*
X253124Y382778D01*
X253131Y382792D01*
X253144Y382806D01*
X253151Y382819D01*
X253171Y382840D01*
X253178Y382854D01*
X253199Y382874D01*
X253206Y382888D01*
X253216Y382898D01*
X253236Y382877D01*
X253250Y382871D01*
X253264Y382857D01*
X253277Y382850D01*
X253298Y382830D01*
X253312Y382823D01*
X253325Y382809D01*
X253339Y382802D01*
X253353Y382789D01*
X253366Y382782D01*
X253380Y382768D01*
X253394Y382761D01*
X253414Y382741D01*
X253428Y382734D01*
X253442Y382720D01*
X253455Y382713D01*
X253476Y382693D01*
X253489Y382686D01*
X253510Y382665D01*
X253523Y382659D01*
X253544Y382638D01*
X253558Y382631D01*
X253571Y382618D01*
X253585Y382611D01*
X253606Y382590D01*
X253619Y382583D01*
X253640Y382563D01*
X253653Y382556D01*
X253681Y382529D01*
X253694Y382522D01*
X253715Y382502D01*
X253729Y382495D01*
X253756Y382467D01*
X253769Y382460D01*
X253790Y382440D01*
X253804Y382433D01*
X253831Y382406D01*
X253845Y382399D01*
X253872Y382372D01*
X253886Y382365D01*
X253913Y382337D01*
X253927Y382331D01*
X253954Y382303D01*
X253968Y382296D01*
X253995Y382269D01*
X254009Y382262D01*
X254036Y382235D01*
X254050Y382228D01*
X254084Y382194D01*
X254098Y382187D01*
X254132Y382153D01*
X254146Y382146D01*
X254180Y382112D01*
X254193Y382105D01*
X254227Y382071D01*
X254241Y382064D01*
X254275Y382030D01*
X254289Y382023D01*
X254316Y381996D01*
X254330Y381989D01*
X254364Y381955D01*
X254378Y381948D01*
X254412Y381914D01*
X254426Y381907D01*
X254460Y381873D01*
X254474Y381866D01*
X254508Y381832D01*
X254521Y381825D01*
X254556Y381791D01*
X254569Y381784D01*
X254603Y381750D01*
X254617Y381743D01*
X254651Y381709D01*
X254665Y381702D01*
X254699Y381668D01*
X254713Y381661D01*
X254747Y381627D01*
X254761Y381620D01*
X254795Y381586D01*
X254808Y381579D01*
X254843Y381545D01*
X254856Y381538D01*
X254877Y381517D01*
X254890Y381510D01*
X254908Y381493D01*
X254914Y381480D01*
X254942Y381418D01*
X254949Y381370D01*
X254942Y381281D01*
X254935Y381261D01*
X254911Y381196D01*
X254897Y381162D01*
X254795Y380970D01*
X254744Y380871D01*
X254696Y380783D01*
X254655Y380707D01*
X254607Y380618D01*
X254525Y380468D01*
X254320Y380099D01*
X254292Y380051D01*
X254190Y379867D01*
X254169Y379826D01*
X254180Y379815D01*
X254193Y379808D01*
X254269Y379733D01*
X254282Y379727D01*
X254364Y379644D01*
X254378Y379638D01*
X254439Y379576D01*
X254453Y379569D01*
X254508Y379515D01*
X254521Y379508D01*
X254576Y379453D01*
X254590Y379446D01*
X254631Y379405D01*
X254648Y379422D01*
X254655Y379436D01*
X254747Y379576D01*
X254795Y379651D01*
X254850Y379733D01*
X254897Y379808D01*
X254952Y379890D01*
X255000Y379966D01*
X255055Y380048D01*
X255102Y380123D01*
X255184Y380246D01*
X255219Y380301D01*
X255301Y380424D01*
X255335Y380478D01*
X255526Y380765D01*
X255547Y380800D01*
X255557Y380796D01*
X255564Y380783D01*
X255577Y380769D01*
X255584Y380755D01*
X255598Y380742D01*
X255605Y380728D01*
X255618Y380714D01*
X255625Y380700D01*
X255639Y380687D01*
X255646Y380673D01*
X255660Y380660D01*
X255666Y380646D01*
X255680Y380632D01*
X255687Y380618D01*
X255700Y380605D01*
X255707Y380591D01*
X255721Y380577D01*
X255728Y380564D01*
X255742Y380550D01*
X255748Y380536D01*
X255762Y380523D01*
X255769Y380509D01*
X255868Y380376D01*
X255895Y380335D01*
X255906Y380325D01*
X255912Y380311D01*
X256117Y380024D01*
X256124Y380010D01*
X256138Y379996D01*
X256145Y379983D01*
X256179Y379935D01*
X256186Y379921D01*
X256199Y379908D01*
X256206Y379894D01*
X256275Y379798D01*
X256281Y379785D01*
X256295Y379771D01*
X256302Y379757D01*
X256370Y379661D01*
X256377Y379648D01*
X256480Y379504D01*
X256487Y379491D01*
X256500Y379477D01*
X256507Y379463D01*
X256541Y379415D01*
X256548Y379402D01*
X256562Y379388D01*
X256569Y379375D01*
X256637Y379279D01*
X256644Y379265D01*
X256657Y379251D01*
X256664Y379238D01*
X256934Y378865D01*
X256951Y378841D01*
X257033Y378732D01*
X257054Y378712D01*
X257061Y378698D01*
X257119Y378640D01*
X257132Y378633D01*
X257146Y378619D01*
X257160Y378612D01*
X257235Y378578D01*
X257262Y378571D01*
X257351Y378565D01*
X257399Y378558D01*
X257570Y378551D01*
X257659Y378544D01*
X258123Y378551D01*
X258144Y378558D01*
X258294Y378565D01*
X258298Y378568D01*
X258284Y378582D01*
X258257Y378629D01*
X258223Y378677D01*
X258216Y378691D01*
X258028Y378981D01*
X257994Y379036D01*
X257966Y379077D01*
X257918Y379152D01*
X257891Y379193D01*
X257857Y379248D01*
X257830Y379289D01*
X257795Y379344D01*
X257768Y379385D01*
X257734Y379439D01*
X257707Y379480D01*
X257672Y379535D01*
X257645Y379576D01*
X257611Y379631D01*
X257583Y379672D01*
X257549Y379727D01*
X257522Y379767D01*
X257488Y379822D01*
X257460Y379863D01*
X257426Y379918D01*
X257399Y379959D01*
X257365Y380013D01*
X257337Y380055D01*
X257303Y380109D01*
X257276Y380150D01*
X257242Y380205D01*
X257214Y380246D01*
X257167Y380321D01*
X257139Y380362D01*
X257091Y380437D01*
X257037Y380519D01*
X257003Y380574D01*
X256975Y380615D01*
X256927Y380690D01*
X256818Y380854D01*
X256784Y380909D01*
X256374Y381524D01*
X256336Y381575D01*
X256329Y381589D01*
X256295Y381637D01*
X256288Y381650D01*
X256220Y381746D01*
X256213Y381760D01*
X256179Y381808D01*
X256172Y381821D01*
X255936Y382146D01*
X255919Y382170D01*
X255854Y382255D01*
X255837Y382279D01*
X255823Y382293D01*
X255817Y382307D01*
X255796Y382327D01*
X255789Y382341D01*
X255769Y382361D01*
X255762Y382375D01*
X255742Y382396D01*
X255735Y382409D01*
X255714Y382430D01*
X255707Y382443D01*
X255687Y382464D01*
X255680Y382478D01*
X255653Y382505D01*
X255646Y382519D01*
X255612Y382553D01*
X255605Y382566D01*
X255577Y382594D01*
X255571Y382608D01*
X255543Y382635D01*
X255536Y382648D01*
X255495Y382689D01*
X255489Y382703D01*
X255441Y382751D01*
X255434Y382765D01*
X255379Y382819D01*
X255372Y382833D01*
X255297Y382908D01*
X255290Y382922D01*
X254884Y383329D01*
X254870Y383335D01*
X254795Y383411D01*
X254781Y383417D01*
X254727Y383472D01*
X254713Y383479D01*
X254665Y383527D01*
X254651Y383534D01*
X254617Y383568D01*
X254603Y383575D01*
X254569Y383609D01*
X254556Y383616D01*
X254528Y383643D01*
X254515Y383650D01*
X254480Y383684D01*
X254467Y383691D01*
X254446Y383711D01*
X254433Y383718D01*
X254412Y383739D01*
X254398Y383746D01*
X254378Y383766D01*
X254364Y383773D01*
X254344Y383793D01*
X254330Y383800D01*
X254316Y383814D01*
X254303Y383821D01*
X254282Y383841D01*
X254269Y383848D01*
X254248Y383869D01*
X254234Y383875D01*
X254221Y383889D01*
X254207Y383896D01*
X254122Y383961D01*
X253954Y384080D01*
X253940Y384087D01*
X253845Y384156D01*
X253831Y384162D01*
X253783Y384197D01*
X253769Y384203D01*
X253565Y384333D01*
X253551Y384340D01*
X253496Y384374D01*
X253483Y384381D01*
X253428Y384415D01*
X253414Y384422D01*
X253107Y384593D01*
X252854Y384716D01*
X252779Y384750D01*
X252690Y384791D01*
X252560Y384853D01*
X252402Y384935D01*
X252355Y384962D01*
X252331Y384979D01*
X252508Y384986D01*
X253096Y384993D01*
X254781Y384996D01*
X254802Y384990D01*
X255998Y384996D01*
X256018Y384990D01*
X256162Y384983D01*
X256182Y384976D01*
X256234Y384965D01*
X256261Y384959D01*
X256316Y384938D01*
X256350Y384925D01*
X256404Y384890D01*
X256428Y384873D01*
X256446Y384863D01*
X256452Y384849D01*
X256500Y384802D01*
X256507Y384788D01*
X256521Y384774D01*
X256527Y384760D01*
X256541Y384747D01*
X256596Y384651D01*
X256685Y384467D01*
X256712Y384405D01*
X256726Y384371D01*
X256668Y384367D01*
X256647Y384374D01*
X256541Y384385D01*
X256418Y384398D01*
X256374Y384402D01*
X256370Y384398D01*
X256384Y384385D01*
X256391Y384371D01*
X256452Y384309D01*
X256459Y384296D01*
X256514Y384241D01*
X256521Y384227D01*
X256582Y384166D01*
X256589Y384152D01*
X256650Y384091D01*
X256657Y384077D01*
X256712Y384022D01*
X256719Y384009D01*
X256774Y383954D01*
X256780Y383940D01*
X256835Y383886D01*
X256842Y383872D01*
X256897Y383817D01*
X256903Y383804D01*
X256958Y383749D01*
X256965Y383735D01*
X257006Y383694D01*
X257013Y383681D01*
X257054Y383640D01*
X257061Y383626D01*
X257102Y383585D01*
X257108Y383571D01*
X257150Y383530D01*
X257156Y383517D01*
X257184Y383489D01*
X257190Y383475D01*
X257218Y383448D01*
X257225Y383435D01*
X257259Y383400D01*
X257266Y383387D01*
X257293Y383359D01*
X257300Y383346D01*
X257320Y383325D01*
X257327Y383312D01*
X257348Y383291D01*
X257355Y383277D01*
X257375Y383257D01*
X257382Y383243D01*
X257409Y383216D01*
X257416Y383202D01*
X257437Y383182D01*
X257443Y383168D01*
X257457Y383154D01*
X257464Y383141D01*
X257478Y383127D01*
X257484Y383113D01*
X257498Y383100D01*
X257505Y383086D01*
X257525Y383065D01*
X257532Y383052D01*
X257546Y383038D01*
X257553Y383024D01*
X257566Y383011D01*
X257573Y382997D01*
X257587Y382983D01*
X257594Y382970D01*
X257608Y382956D01*
X257614Y382942D01*
X257628Y382929D01*
X257635Y382915D01*
X257648Y382901D01*
X257655Y382888D01*
X257669Y382874D01*
X257676Y382860D01*
X257689Y382847D01*
X257696Y382833D01*
X257710Y382819D01*
X257717Y382806D01*
X257731Y382792D01*
X257737Y382778D01*
X257751Y382765D01*
X257758Y382751D01*
X257771Y382737D01*
X257778Y382724D01*
X258052Y382341D01*
X258059Y382327D01*
X258127Y382231D01*
X258134Y382218D01*
X258168Y382170D01*
X258175Y382156D01*
X258209Y382108D01*
X258216Y382095D01*
X258250Y382047D01*
X258257Y382033D01*
X258284Y381992D01*
X258291Y381979D01*
X258325Y381931D01*
X258332Y381917D01*
X258359Y381876D01*
X258366Y381862D01*
X258400Y381815D01*
X258407Y381801D01*
X258455Y381726D01*
X258462Y381712D01*
X258489Y381671D01*
X258496Y381657D01*
X258523Y381616D01*
X258530Y381603D01*
X258558Y381562D01*
X258564Y381548D01*
X258612Y381473D01*
X258619Y381459D01*
X258653Y381404D01*
X258660Y381391D01*
X258694Y381336D01*
X258701Y381322D01*
X258735Y381268D01*
X258742Y381254D01*
X258776Y381199D01*
X258810Y381138D01*
X258845Y381083D01*
X258851Y381070D01*
X259015Y380783D01*
X259084Y380660D01*
X259111Y380612D01*
X259145Y380550D01*
X259186Y380475D01*
X259234Y380386D01*
X259275Y380311D01*
X259323Y380222D01*
X259405Y380072D01*
X259549Y379798D01*
X259631Y379641D01*
X259726Y379456D01*
X259890Y379135D01*
X259986Y378951D01*
X260031Y378893D01*
X260044Y378886D01*
X260071Y378858D01*
X260085Y378852D01*
X260174Y378811D01*
X260229Y378797D01*
X260441Y378790D01*
X264924Y378797D01*
X264928Y378814D01*
X264914Y378848D01*
X264907Y378875D01*
X264856Y379022D01*
X264836Y379077D01*
X264822Y379111D01*
X264801Y379166D01*
X264777Y379224D01*
X264757Y379272D01*
X264702Y379395D01*
X264682Y379443D01*
X264654Y379504D01*
X264634Y379552D01*
X264579Y379675D01*
X264538Y379771D01*
X264511Y379832D01*
X264470Y379928D01*
X264442Y379990D01*
X264402Y380085D01*
X264374Y380147D01*
X264354Y380195D01*
X264299Y380318D01*
X264279Y380365D01*
X264224Y380489D01*
X264203Y380536D01*
X264039Y380906D01*
X264005Y380981D01*
X263868Y381288D01*
X263834Y381364D01*
X263725Y381610D01*
X263656Y381760D01*
X263588Y381903D01*
X263424Y382225D01*
X263376Y382313D01*
X263294Y382457D01*
X263260Y382512D01*
X263253Y382525D01*
X263226Y382566D01*
X263219Y382580D01*
X263127Y382720D01*
X263045Y382843D01*
X263028Y382867D01*
X262894Y383048D01*
X262877Y383072D01*
X262812Y383158D01*
X262802Y383168D01*
X262795Y383182D01*
X262775Y383202D01*
X262768Y383216D01*
X262747Y383236D01*
X262741Y383250D01*
X262720Y383270D01*
X262713Y383284D01*
X262686Y383312D01*
X262679Y383325D01*
X262652Y383352D01*
X262645Y383366D01*
X262611Y383400D01*
X262604Y383414D01*
X262556Y383462D01*
X262549Y383475D01*
X262501Y383523D01*
X262494Y383537D01*
X262399Y383633D01*
X262392Y383646D01*
X262163Y383875D01*
X262149Y383882D01*
X262054Y383978D01*
X262040Y383985D01*
X261979Y384046D01*
X261965Y384053D01*
X261917Y384101D01*
X261903Y384108D01*
X261862Y384149D01*
X261849Y384156D01*
X261814Y384190D01*
X261801Y384197D01*
X261773Y384224D01*
X261760Y384231D01*
X261732Y384258D01*
X261719Y384265D01*
X261691Y384292D01*
X261678Y384299D01*
X261657Y384320D01*
X261644Y384327D01*
X261616Y384354D01*
X261603Y384361D01*
X261582Y384381D01*
X261568Y384388D01*
X261548Y384408D01*
X261534Y384415D01*
X261521Y384429D01*
X261507Y384436D01*
X261486Y384456D01*
X261473Y384463D01*
X261459Y384477D01*
X261445Y384484D01*
X261425Y384504D01*
X261411Y384511D01*
X261398Y384525D01*
X261384Y384531D01*
X261298Y384596D01*
X261275Y384613D01*
X261141Y384713D01*
X261059Y384767D01*
X261049Y384778D01*
X261035Y384784D01*
X260987Y384819D01*
X260974Y384825D01*
X260960Y384839D01*
X260946Y384846D01*
X260851Y384914D01*
X260847Y384911D01*
X261189Y384221D01*
X261216Y384166D01*
X261206Y384156D01*
X261162Y384138D01*
X261124Y384121D01*
X261056Y384190D01*
X261042Y384197D01*
X260844Y384395D01*
X260830Y384402D01*
X260680Y384552D01*
X260666Y384559D01*
X260577Y384648D01*
X260564Y384655D01*
X260119Y385099D01*
X260106Y385106D01*
X260058Y385154D01*
X260044Y385160D01*
X260017Y385188D01*
X260003Y385194D01*
X259990Y385208D01*
X259976Y385215D01*
X259962Y385229D01*
X259948Y385236D01*
X259935Y385249D01*
X259921Y385256D01*
X259873Y385290D01*
X259860Y385297D01*
X259812Y385324D01*
X259655Y385400D01*
X259586Y385420D01*
X259531Y385434D01*
X259450Y385447D01*
X259402Y385454D01*
X259190Y385461D01*
X258957Y385454D01*
X258910Y385447D01*
X256633Y385454D01*
X256630Y385458D01*
X256644Y385471D01*
X256650Y385485D01*
X256664Y385499D01*
X256671Y385512D01*
X256685Y385526D01*
X256692Y385540D01*
X256705Y385553D01*
X256712Y385567D01*
X256777Y385652D01*
X256787Y385663D01*
X256794Y385676D01*
X256815Y385697D01*
X256821Y385711D01*
X256893Y385782D01*
X256907Y385789D01*
X256921Y385803D01*
X256934Y385810D01*
X256948Y385823D01*
X257023Y385858D01*
X257078Y385871D01*
X257173Y385885D01*
X257303Y385892D01*
X257454Y385885D01*
D02*
G37*
G36*
X260564Y384087D02*
X260632Y384060D01*
X260680Y384033D01*
X260717Y384002D01*
X260741Y383985D01*
X260964Y383763D01*
X260970Y383749D01*
X261059Y383660D01*
X261066Y383646D01*
X261107Y383605D01*
X261114Y383592D01*
X261162Y383544D01*
X261169Y383530D01*
X261210Y383489D01*
X261216Y383475D01*
X261251Y383441D01*
X261257Y383428D01*
X261278Y383407D01*
X261285Y383394D01*
X261312Y383366D01*
X261319Y383352D01*
X261346Y383325D01*
X261353Y383312D01*
X261380Y383284D01*
X261387Y383270D01*
X261408Y383250D01*
X261415Y383236D01*
X261435Y383216D01*
X261442Y383202D01*
X261456Y383188D01*
X261462Y383175D01*
X261483Y383154D01*
X261490Y383141D01*
X261504Y383127D01*
X261510Y383113D01*
X261531Y383093D01*
X261538Y383079D01*
X261551Y383065D01*
X261558Y383052D01*
X261572Y383038D01*
X261579Y383024D01*
X261592Y383011D01*
X261599Y382997D01*
X261613Y382983D01*
X261620Y382970D01*
X261633Y382956D01*
X261640Y382942D01*
X261705Y382857D01*
X261732Y382816D01*
X261743Y382806D01*
X261750Y382792D01*
X261852Y382648D01*
X261859Y382635D01*
X261927Y382539D01*
X261934Y382525D01*
X261968Y382478D01*
X261975Y382464D01*
X262009Y382416D01*
X262016Y382402D01*
X262043Y382361D01*
X262050Y382348D01*
X262084Y382300D01*
X262091Y382286D01*
X262139Y382211D01*
X262146Y382197D01*
X262180Y382150D01*
X262208Y382102D01*
X262242Y382047D01*
X262248Y382033D01*
X262276Y381992D01*
X262283Y381979D01*
X262317Y381924D01*
X262324Y381910D01*
X262351Y381869D01*
X262358Y381856D01*
X262385Y381808D01*
X262419Y381753D01*
X262426Y381739D01*
X262460Y381685D01*
X262467Y381671D01*
X262494Y381623D01*
X262529Y381569D01*
X262570Y381493D01*
X262652Y381350D01*
X262686Y381288D01*
X262713Y381240D01*
X262816Y381056D01*
X262857Y380981D01*
X262925Y380858D01*
X262966Y380783D01*
X263035Y380660D01*
X263281Y380208D01*
X263308Y380154D01*
X261192Y380150D01*
X261172Y380157D01*
X261134Y380167D01*
X261110Y380178D01*
X261063Y380212D01*
X261025Y380242D01*
X261004Y380263D01*
X260998Y380277D01*
X260977Y380297D01*
X260970Y380311D01*
X260957Y380325D01*
X260950Y380338D01*
X260888Y380427D01*
X260881Y380441D01*
X260847Y380489D01*
X260820Y380536D01*
X260793Y380577D01*
X260786Y380591D01*
X260758Y380632D01*
X260752Y380646D01*
X260738Y380666D01*
X260735Y380670D01*
X260639Y380820D01*
X260605Y380875D01*
X260461Y381100D01*
X260427Y381155D01*
X260331Y381305D01*
X260297Y381360D01*
X260201Y381510D01*
X260167Y381565D01*
X260071Y381715D01*
X260037Y381770D01*
X259942Y381921D01*
X259908Y381975D01*
X259716Y382276D01*
X259682Y382331D01*
X259538Y382556D01*
X259504Y382611D01*
X259313Y382912D01*
X259279Y382966D01*
X259135Y383192D01*
X259101Y383246D01*
X258957Y383472D01*
X258875Y383595D01*
X258865Y383605D01*
X258858Y383619D01*
X258827Y383657D01*
X258810Y383681D01*
X258780Y383718D01*
X258763Y383742D01*
X258735Y383769D01*
X258728Y383783D01*
X258694Y383817D01*
X258687Y383831D01*
X258640Y383879D01*
X258633Y383892D01*
X258578Y383947D01*
X258571Y383961D01*
X258523Y384009D01*
X258517Y384022D01*
X258462Y384077D01*
X258465Y384094D01*
X260564Y384087D01*
D02*
G37*
G36*
X249587Y378599D02*
X249634Y378565D01*
X249648Y378558D01*
X249744Y378489D01*
X249757Y378483D01*
X249771Y378469D01*
X249785Y378462D01*
X249833Y378428D01*
X249846Y378421D01*
X249860Y378407D01*
X249874Y378400D01*
X249921Y378366D01*
X249935Y378360D01*
X249949Y378346D01*
X249962Y378339D01*
X250010Y378305D01*
X250024Y378298D01*
X250038Y378284D01*
X250051Y378277D01*
X250099Y378243D01*
X250113Y378236D01*
X250127Y378223D01*
X250140Y378216D01*
X250188Y378182D01*
X250202Y378175D01*
X250345Y378072D01*
X250359Y378065D01*
X250373Y378052D01*
X250386Y378045D01*
X250434Y378011D01*
X250448Y378004D01*
X250461Y377990D01*
X250475Y377983D01*
X250571Y377915D01*
X250584Y377908D01*
X250728Y377806D01*
X250742Y377799D01*
X250885Y377696D01*
X250899Y377690D01*
X250912Y377676D01*
X250926Y377669D01*
X250974Y377635D01*
X250988Y377628D01*
X251001Y377614D01*
X251015Y377608D01*
X251111Y377539D01*
X251124Y377532D01*
X251268Y377430D01*
X251282Y377423D01*
X251425Y377321D01*
X251439Y377314D01*
X251582Y377211D01*
X251596Y377204D01*
X251692Y377136D01*
X251705Y377129D01*
X251801Y377061D01*
X251815Y377054D01*
X251910Y376986D01*
X251924Y376979D01*
X251938Y376965D01*
X251951Y376958D01*
X251999Y376924D01*
X252013Y376917D01*
X252109Y376849D01*
X252122Y376842D01*
X252136Y376828D01*
X252150Y376821D01*
X252198Y376787D01*
X252211Y376781D01*
X252249Y376750D01*
X252215Y376743D01*
X251777Y376688D01*
X251654Y376675D01*
X251599Y376668D01*
X251538Y376661D01*
X251483Y376654D01*
X251422Y376647D01*
X251367Y376640D01*
X251357Y376637D01*
X251350Y376678D01*
X251343Y376746D01*
X251329Y376917D01*
X251316Y376992D01*
X251309Y377020D01*
X251282Y377095D01*
X251254Y377136D01*
X251217Y377146D01*
X251159Y377163D01*
X251131Y377170D01*
X251049Y377184D01*
X251022Y377191D01*
X250851Y377198D01*
X250796D01*
X250485Y377174D01*
X250325Y377163D01*
X250314Y377365D01*
X250308Y377645D01*
X250301Y377666D01*
X250294Y377782D01*
X250287Y377802D01*
X250277Y377874D01*
X250267Y377898D01*
X250212Y377919D01*
X250113Y377949D01*
X250017Y377977D01*
X249935Y377997D01*
X249891Y378007D01*
X249822Y378021D01*
X249781Y378028D01*
X249747Y378035D01*
X249511Y378065D01*
X249484Y378072D01*
X249378Y378083D01*
X249255Y378096D01*
X249187Y378103D01*
X249139Y378110D01*
X249169Y378148D01*
X249180Y378158D01*
X249187Y378171D01*
X249214Y378199D01*
X249221Y378212D01*
X249241Y378233D01*
X249248Y378247D01*
X249275Y378274D01*
X249282Y378288D01*
X249303Y378308D01*
X249310Y378322D01*
X249330Y378342D01*
X249337Y378356D01*
X249358Y378377D01*
X249364Y378390D01*
X249392Y378417D01*
X249398Y378431D01*
X249419Y378452D01*
X249426Y378465D01*
X249446Y378486D01*
X249453Y378500D01*
X249474Y378520D01*
X249481Y378534D01*
X249501Y378554D01*
X249508Y378568D01*
X249535Y378595D01*
X249542Y378609D01*
X249552Y378619D01*
X249587Y378599D01*
D02*
G37*
G36*
X249122Y377245D02*
X249142Y377238D01*
X249214Y377228D01*
X249248Y377221D01*
X249275Y377215D01*
X249310Y377208D01*
X249337Y377201D01*
X249340Y377198D01*
X249347D01*
X249375Y377191D01*
X249521Y377139D01*
X249576Y377119D01*
X249610Y377105D01*
X249686Y377071D01*
X249720Y377057D01*
X249983Y376917D01*
X250031Y376890D01*
X250085Y376856D01*
X250147Y376821D01*
X250195Y376794D01*
X250236Y376767D01*
X250250Y376760D01*
X250290Y376733D01*
X250304Y376726D01*
X250345Y376698D01*
X250359Y376692D01*
X250400Y376664D01*
X250413Y376658D01*
X250461Y376623D01*
X250475Y376617D01*
X250523Y376582D01*
X250537Y376575D01*
X250584Y376541D01*
X250598Y376535D01*
X250663Y376490D01*
X250786Y376408D01*
X250796Y376398D01*
X250810Y376391D01*
X250858Y376357D01*
X250871Y376350D01*
X250967Y376282D01*
X250981Y376275D01*
X250994Y376261D01*
X251008Y376254D01*
X251104Y376186D01*
X251117Y376179D01*
X251131Y376165D01*
X251145Y376159D01*
X251241Y376090D01*
X251254Y376083D01*
X251268Y376070D01*
X251282Y376063D01*
X251329Y376029D01*
X251343Y376022D01*
X251357Y376008D01*
X251370Y376001D01*
X251418Y375967D01*
X251432Y375960D01*
X251446Y375947D01*
X251459Y375940D01*
X251511Y375902D01*
X251494Y375899D01*
X251473Y375906D01*
X251384Y375912D01*
X251234Y375906D01*
X251213Y375899D01*
X251128Y375882D01*
X251100Y375875D01*
X251063Y375865D01*
X251015Y375851D01*
X250848Y375793D01*
X250748Y375762D01*
X250721Y375755D01*
X250711Y375765D01*
X250704Y375779D01*
X250677Y375820D01*
X250670Y375834D01*
X250636Y375889D01*
X250629Y375902D01*
X250595Y375957D01*
X250588Y375971D01*
X250506Y376094D01*
X250458Y376155D01*
X250437Y376176D01*
X250431Y376189D01*
X250400Y376220D01*
X250386Y376227D01*
X250345Y376268D01*
X250331Y376275D01*
X250318Y376288D01*
X250304Y376295D01*
X250284Y376316D01*
X250270Y376323D01*
X250256Y376336D01*
X250243Y376343D01*
X250229Y376357D01*
X250215Y376364D01*
X250202Y376377D01*
X250188Y376384D01*
X250174Y376398D01*
X250161Y376405D01*
X250113Y376439D01*
X250099Y376446D01*
X250051Y376480D01*
X250038Y376487D01*
X249990Y376521D01*
X249846Y376603D01*
X249785Y376637D01*
X249518Y376767D01*
X249470Y376787D01*
X249334Y376842D01*
X249122Y376910D01*
X249026Y376938D01*
X248917Y376965D01*
X248872Y376975D01*
X248770Y376996D01*
X248688Y377010D01*
X248548Y377027D01*
X248520Y377033D01*
X248438Y377040D01*
X248435Y377044D01*
X248452Y377061D01*
X248465Y377068D01*
X248493Y377095D01*
X248506Y377102D01*
X248520Y377116D01*
X248534Y377122D01*
X248575Y377150D01*
X248589Y377156D01*
X248677Y377198D01*
X248766Y377225D01*
X248794Y377232D01*
X248842Y377238D01*
X248869Y377245D01*
X248958Y377252D01*
X249122Y377245D01*
D02*
G37*
G36*
X247994Y374805D02*
X248014Y374798D01*
X248100Y374788D01*
X248182Y374774D01*
X248209Y374768D01*
X248278Y374754D01*
X248305Y374747D01*
X248342Y374737D01*
X248390Y374723D01*
X248418Y374716D01*
X248462Y374699D01*
X248578Y374658D01*
X248612Y374645D01*
X248671Y374621D01*
X248773Y374573D01*
X248903Y374504D01*
X248965Y374470D01*
X249006Y374443D01*
X249019Y374436D01*
X249142Y374354D01*
X249275Y374255D01*
X249299Y374238D01*
X249313Y374224D01*
X249327Y374217D01*
X249354Y374190D01*
X249368Y374183D01*
X249388Y374163D01*
X249402Y374156D01*
X249457Y374101D01*
X249470Y374094D01*
X249672Y373893D01*
X249679Y373879D01*
X249727Y373831D01*
X249733Y373817D01*
X249768Y373783D01*
X249774Y373770D01*
X249809Y373735D01*
X249816Y373722D01*
X249829Y373708D01*
X249836Y373694D01*
X249856Y373674D01*
X249863Y373660D01*
X249877Y373647D01*
X249884Y373633D01*
X249898Y373619D01*
X249904Y373606D01*
X249918Y373592D01*
X249925Y373578D01*
X249939Y373565D01*
X249945Y373551D01*
X249979Y373503D01*
X249986Y373489D01*
X250021Y373442D01*
X250027Y373428D01*
X250055Y373380D01*
X250089Y373325D01*
X250096Y373312D01*
X250130Y373257D01*
X250232Y373045D01*
X250260Y372984D01*
X250280Y372936D01*
X250308Y372867D01*
X250325Y372823D01*
X250338Y372789D01*
X250396Y372601D01*
X250393Y372591D01*
X250359Y372604D01*
X250314Y372615D01*
X250287Y372621D01*
X250250Y372632D01*
X250195Y372645D01*
X250147Y372659D01*
X250120Y372666D01*
X250072Y372679D01*
X250044Y372686D01*
X249997Y372700D01*
X249979Y372703D01*
X250089Y372478D01*
X250116Y372416D01*
X250133Y372372D01*
X250154Y372317D01*
X250191Y372198D01*
X250212Y372129D01*
X250246Y371993D01*
X250273Y371842D01*
X250280Y371815D01*
X250290Y371736D01*
X250297Y371682D01*
X250304Y371600D01*
X250314Y371398D01*
X250308Y371111D01*
X250301Y371090D01*
X250290Y370978D01*
X250284Y370916D01*
X250256Y370752D01*
X250250Y370725D01*
X250229Y370622D01*
X250195Y370485D01*
X250178Y370427D01*
X250116Y370222D01*
X250051Y370041D01*
X249997Y369904D01*
X249979Y369867D01*
X249952Y369805D01*
X249856Y369621D01*
X249822Y369559D01*
X249788Y369505D01*
X249781Y369491D01*
X249754Y369450D01*
X249747Y369436D01*
X249713Y369388D01*
X249706Y369375D01*
X249607Y369241D01*
X249590Y369217D01*
X249559Y369180D01*
X249525Y369139D01*
X249515Y369129D01*
X249508Y369115D01*
X249481Y369088D01*
X249474Y369074D01*
X249392Y368992D01*
X249385Y368978D01*
X249347Y368941D01*
X249334Y368934D01*
X249238Y368838D01*
X249224Y368831D01*
X249190Y368797D01*
X249176Y368790D01*
X249149Y368763D01*
X249135Y368756D01*
X249122Y368742D01*
X249108Y368736D01*
X249088Y368715D01*
X249074Y368708D01*
X249060Y368695D01*
X249046Y368688D01*
X249033Y368674D01*
X249019Y368667D01*
X248923Y368599D01*
X248862Y368565D01*
X248821Y368537D01*
X248817Y368548D01*
X248831Y368561D01*
X248838Y368575D01*
X248906Y368671D01*
X248913Y368684D01*
X248927Y368698D01*
X248934Y368712D01*
X248968Y368760D01*
X248975Y368773D01*
X249009Y368821D01*
X249016Y368835D01*
X249043Y368876D01*
X249050Y368889D01*
X249067Y368913D01*
X249070Y368917D01*
X249077Y368931D01*
X249111Y368978D01*
X249146Y369040D01*
X249180Y369094D01*
X249187Y369108D01*
X249221Y369163D01*
X249228Y369177D01*
X249255Y369224D01*
X249289Y369286D01*
X249344Y369388D01*
X249460Y369628D01*
X249521Y369771D01*
X249535Y369805D01*
X249552Y369850D01*
X249566Y369884D01*
X249645Y370127D01*
X249651Y370154D01*
X249665Y370202D01*
X249692Y370311D01*
X249703Y370356D01*
X249737Y370526D01*
X249744Y370567D01*
X249750Y370602D01*
X249757Y370643D01*
X249764Y370677D01*
X249771Y370718D01*
X249785Y370807D01*
X249792Y370848D01*
X249816Y371036D01*
X249822Y371063D01*
X249833Y371162D01*
X249846Y371312D01*
X249853Y371408D01*
X249860Y371538D01*
X249863Y371924D01*
X249856Y371945D01*
X249850Y372129D01*
X249843Y372150D01*
X249833Y372249D01*
X249826Y372304D01*
X249798Y372468D01*
X249792Y372502D01*
X249785Y372529D01*
X249771Y372598D01*
X249757Y372652D01*
X249747Y372690D01*
X249740Y372717D01*
X249727Y372765D01*
X249655Y372973D01*
X249600Y373110D01*
X249566Y373185D01*
X249525Y373267D01*
X249426Y373455D01*
X249392Y373510D01*
X249385Y373524D01*
X249358Y373565D01*
X249351Y373578D01*
X249317Y373626D01*
X249310Y373640D01*
X249211Y373773D01*
X249194Y373797D01*
X249163Y373835D01*
X249146Y373859D01*
X249125Y373879D01*
X249118Y373893D01*
X249077Y373934D01*
X249070Y373947D01*
X248988Y374029D01*
X248982Y374043D01*
X248951Y374074D01*
X248937Y374081D01*
X248855Y374163D01*
X248842Y374169D01*
X248807Y374204D01*
X248794Y374211D01*
X248766Y374238D01*
X248753Y374245D01*
X248739Y374258D01*
X248725Y374265D01*
X248705Y374286D01*
X248691Y374293D01*
X248677Y374306D01*
X248664Y374313D01*
X248500Y374429D01*
X248486Y374436D01*
X248431Y374470D01*
X248418Y374477D01*
X248329Y374525D01*
X248131Y374621D01*
X248042Y374662D01*
X247967Y374696D01*
X247741Y374812D01*
X247994Y374805D01*
D02*
G37*
G36*
X246224Y374286D02*
X246343Y374275D01*
X246398Y374269D01*
X246480Y374255D01*
X246548Y374241D01*
X246576Y374235D01*
X246610Y374228D01*
X246719Y374200D01*
X246777Y374183D01*
X246924Y374132D01*
X246979Y374111D01*
X247047Y374084D01*
X247198Y374016D01*
X247348Y373934D01*
X247416Y373893D01*
X247471Y373859D01*
X247509Y373835D01*
X247556Y373800D01*
X247570Y373794D01*
X247656Y373729D01*
X247679Y373712D01*
X247717Y373681D01*
X247741Y373664D01*
X247755Y373650D01*
X247768Y373643D01*
X247809Y373602D01*
X247823Y373595D01*
X247891Y373527D01*
X247905Y373520D01*
X247984Y373442D01*
X247990Y373428D01*
X248059Y373360D01*
X248066Y373346D01*
X248107Y373305D01*
X248113Y373291D01*
X248134Y373271D01*
X248141Y373257D01*
X248161Y373236D01*
X248168Y373223D01*
X248182Y373209D01*
X248189Y373196D01*
X248202Y373182D01*
X248209Y373168D01*
X248278Y373073D01*
X248284Y373059D01*
X248319Y373011D01*
X248353Y372950D01*
X248380Y372902D01*
X248496Y372662D01*
Y372656D01*
X248524Y372594D01*
X248537Y372560D01*
X248578Y372430D01*
X248592Y372382D01*
X248599Y372362D01*
X248595Y372358D01*
X248363Y372474D01*
X248360Y372457D01*
X248366Y372437D01*
X248373Y372410D01*
X248387Y372362D01*
X248401Y372307D01*
X248411Y372263D01*
X248425Y372208D01*
X248438Y372140D01*
X248445Y372112D01*
X248465Y372010D01*
X248479Y371928D01*
X248486Y371894D01*
X248493Y371852D01*
X248517Y371665D01*
X248524Y371617D01*
X248531Y371528D01*
X248537Y371500D01*
X248548Y371271D01*
X248551Y371042D01*
X248544Y371022D01*
X248537Y370831D01*
X248531Y370810D01*
X248520Y370704D01*
X248513Y370663D01*
X248500Y370574D01*
X248465Y370403D01*
X248455Y370366D01*
X248448Y370339D01*
X248435Y370291D01*
X248428Y370263D01*
X248363Y370075D01*
X248308Y369939D01*
X248168Y369669D01*
X248141Y369628D01*
X248134Y369614D01*
X248100Y369559D01*
X248093Y369546D01*
X248025Y369450D01*
X248018Y369436D01*
X247953Y369351D01*
X247878Y369255D01*
X247867Y369245D01*
X247861Y369231D01*
X247833Y369204D01*
X247827Y369190D01*
X247772Y369135D01*
X247765Y369122D01*
X247591Y368948D01*
X247577Y368941D01*
X247522Y368886D01*
X247509Y368879D01*
X247481Y368852D01*
X247468Y368845D01*
X247447Y368825D01*
X247433Y368818D01*
X247413Y368797D01*
X247399Y368790D01*
X247379Y368770D01*
X247365Y368763D01*
X247221Y368660D01*
X247208Y368654D01*
X247160Y368619D01*
X247085Y368578D01*
X247037Y368551D01*
X246811Y368442D01*
X246764Y368421D01*
X246729Y368408D01*
X246685Y368390D01*
X246610Y368363D01*
X246511Y368332D01*
X246415Y368305D01*
X246278Y368271D01*
X246234Y368261D01*
X246165Y368247D01*
X246138Y368240D01*
X246104Y368233D01*
X246063Y368226D01*
X245995Y368213D01*
X245971Y368209D01*
X245967Y368213D01*
X246261Y368356D01*
X246271Y368367D01*
X246429Y368449D01*
X246490Y368483D01*
X246545Y368517D01*
X246558Y368524D01*
X246613Y368558D01*
X246627Y368565D01*
X246767Y368657D01*
X246808Y368684D01*
X246839Y368708D01*
X246852Y368715D01*
X246866Y368729D01*
X246880Y368736D01*
X246894Y368749D01*
X246907Y368756D01*
X246921Y368770D01*
X246935Y368777D01*
X246948Y368790D01*
X246962Y368797D01*
X246975Y368811D01*
X246989Y368818D01*
X247017Y368845D01*
X247030Y368852D01*
X247058Y368879D01*
X247071Y368886D01*
X247119Y368934D01*
X247133Y368941D01*
X247334Y369142D01*
X247341Y369156D01*
X247416Y369231D01*
X247423Y369245D01*
X247450Y369272D01*
X247457Y369286D01*
X247485Y369313D01*
X247492Y369327D01*
X247512Y369347D01*
X247519Y369361D01*
X247533Y369375D01*
X247539Y369388D01*
X247553Y369402D01*
X247560Y369416D01*
X247628Y369511D01*
X247635Y369525D01*
X247669Y369573D01*
X247724Y369669D01*
X247758Y369730D01*
X247881Y369983D01*
X247895Y370017D01*
X247915Y370065D01*
X247929Y370099D01*
X247980Y370239D01*
X247987Y370267D01*
X248004Y370325D01*
X248031Y370414D01*
X248079Y370605D01*
X248113Y370790D01*
X248120Y370837D01*
X248127Y370865D01*
X248137Y370943D01*
X248151Y371066D01*
X248158Y371155D01*
X248168Y371357D01*
X248161Y371869D01*
X248154Y371890D01*
X248144Y371982D01*
X248131Y372064D01*
X248117Y372133D01*
X248090Y372242D01*
X248079Y372280D01*
X248014Y372468D01*
X247973Y372570D01*
X247956Y372608D01*
X247847Y372820D01*
X247813Y372874D01*
X247806Y372888D01*
X247714Y373028D01*
X247703Y373038D01*
X247697Y373052D01*
X247632Y373137D01*
X247615Y373154D01*
X247608Y373168D01*
X247587Y373189D01*
X247580Y373202D01*
X247553Y373230D01*
X247546Y373243D01*
X247498Y373291D01*
X247492Y373305D01*
X247310Y373486D01*
X247297Y373493D01*
X247242Y373548D01*
X247228Y373554D01*
X247208Y373575D01*
X247194Y373582D01*
X247167Y373609D01*
X247153Y373616D01*
X247133Y373636D01*
X247119Y373643D01*
X247105Y373657D01*
X247092Y373664D01*
X247078Y373677D01*
X247064Y373684D01*
X246921Y373787D01*
X246907Y373794D01*
X246852Y373828D01*
X246839Y373835D01*
X246784Y373869D01*
X246463Y374026D01*
X246394Y374053D01*
X246350Y374070D01*
X246210Y374115D01*
X246142Y374135D01*
X246046Y374163D01*
X246019Y374169D01*
X245971Y374183D01*
X245697Y374252D01*
X245667Y374262D01*
X245697Y374272D01*
X245783Y374282D01*
X245865Y374289D01*
X246203Y374293D01*
X246224Y374286D01*
D02*
G37*
G36*
X245725Y372269D02*
X245745Y372263D01*
X245793Y372256D01*
X245813Y372249D01*
X245841Y372242D01*
X245885Y372225D01*
X245940Y372204D01*
X246073Y372133D01*
X246183Y372051D01*
X246224Y372010D01*
X246234Y372006D01*
X246241Y371993D01*
X246289Y371945D01*
X246295Y371931D01*
X246309Y371917D01*
X246316Y371904D01*
X246330Y371890D01*
X246336Y371876D01*
X246350Y371863D01*
X246384Y371801D01*
X246425Y371712D01*
X246439Y371678D01*
X246459Y371610D01*
X246470Y371565D01*
X246477Y371524D01*
X246487Y371432D01*
X246480Y371275D01*
X246473Y371254D01*
X246463Y371210D01*
X246456Y371183D01*
X246415Y371066D01*
X246364Y370967D01*
X246306Y370882D01*
X246289Y370858D01*
X246258Y370820D01*
X246220Y370783D01*
X246213Y370769D01*
X246203Y370759D01*
X246189Y370752D01*
X246142Y370704D01*
X246128Y370697D01*
X246032Y370629D01*
X245902Y370567D01*
X245793Y370533D01*
X245711Y370520D01*
X245622Y370513D01*
X245567Y370520D01*
X245561D01*
X245479Y370526D01*
X245458Y370533D01*
X245431Y370540D01*
X245345Y370571D01*
X245311Y370585D01*
X245205Y370643D01*
X245140Y370687D01*
X245123Y370704D01*
X245110Y370711D01*
X245082Y370738D01*
X245069Y370745D01*
X245017Y370796D01*
X245010Y370810D01*
X244976Y370844D01*
X244969Y370858D01*
X244956Y370872D01*
X244949Y370885D01*
X244935Y370899D01*
X244928Y370913D01*
X244881Y370988D01*
X244853Y371049D01*
X244826Y371118D01*
X244805Y371186D01*
X244798Y371213D01*
X244785Y371295D01*
X244778Y371384D01*
X244785Y371521D01*
X244792Y371541D01*
X244802Y371593D01*
X244816Y371647D01*
X244836Y371702D01*
X244850Y371736D01*
X244884Y371811D01*
X244952Y371921D01*
X244963Y371931D01*
X244969Y371945D01*
X244990Y371965D01*
X244997Y371979D01*
X245038Y372020D01*
X245041Y372030D01*
X245055Y372037D01*
X245110Y372092D01*
X245123Y372098D01*
X245144Y372119D01*
X245157Y372126D01*
X245205Y372160D01*
X245219Y372167D01*
X245362Y372235D01*
X245438Y372256D01*
X245465Y372263D01*
X245581Y372276D01*
X245725Y372269D01*
D02*
G37*
G36*
X252994Y368616D02*
X253035Y368589D01*
X253045Y368578D01*
X253059Y368572D01*
X253072Y368558D01*
X253086Y368551D01*
X253100Y368537D01*
X253113Y368531D01*
X253342Y368363D01*
X253383Y368336D01*
X253394Y368326D01*
X253407Y368319D01*
X253411Y368315D01*
X253414Y368312D01*
X253428Y368305D01*
X253442Y368291D01*
X253455Y368285D01*
X253588Y368185D01*
X253629Y368158D01*
X253640Y368148D01*
X253653Y368141D01*
X253667Y368127D01*
X253681Y368121D01*
X253694Y368107D01*
X253708Y368100D01*
X253722Y368086D01*
X253735Y368079D01*
X253749Y368066D01*
X253763Y368059D01*
X253776Y368045D01*
X253790Y368039D01*
X253804Y368025D01*
X253817Y368018D01*
X253831Y368004D01*
X253845Y367998D01*
X253865Y367977D01*
X253879Y367970D01*
X253893Y367956D01*
X253906Y367950D01*
X253920Y367936D01*
X253934Y367929D01*
X253954Y367909D01*
X253968Y367902D01*
X253988Y367881D01*
X254002Y367874D01*
X254022Y367854D01*
X254036Y367847D01*
X254057Y367827D01*
X254070Y367820D01*
X254098Y367792D01*
X254111Y367786D01*
X254139Y367758D01*
X254152Y367751D01*
X254176Y367727D01*
X254183Y367714D01*
X254210Y367687D01*
X254217Y367673D01*
X254251Y367618D01*
X254265Y367584D01*
X254282Y367540D01*
X254296Y367485D01*
X254303Y367451D01*
X254310Y367410D01*
X254316Y367348D01*
X254320Y367092D01*
X254313Y367071D01*
X254306Y366511D01*
X254299Y364617D01*
X254292Y364597D01*
X254286Y364173D01*
X254279Y364153D01*
X254272Y363961D01*
X254269Y363958D01*
X254248Y363978D01*
X254234Y363985D01*
X254221Y363999D01*
X254207Y364006D01*
X254193Y364019D01*
X254180Y364026D01*
X254166Y364040D01*
X254152Y364047D01*
X254139Y364060D01*
X254125Y364067D01*
X254111Y364081D01*
X254098Y364088D01*
X254084Y364102D01*
X254070Y364108D01*
X254057Y364122D01*
X254043Y364129D01*
X254029Y364142D01*
X254016Y364149D01*
X254002Y364163D01*
X253988Y364170D01*
X253975Y364183D01*
X253961Y364190D01*
X253947Y364204D01*
X253934Y364211D01*
X253920Y364225D01*
X253906Y364231D01*
X253893Y364245D01*
X253879Y364252D01*
X253865Y364265D01*
X253852Y364272D01*
X253838Y364286D01*
X253824Y364293D01*
X253811Y364306D01*
X253797Y364313D01*
X253783Y364327D01*
X253769Y364334D01*
X253756Y364348D01*
X253742Y364354D01*
X253729Y364368D01*
X253715Y364375D01*
X253701Y364388D01*
X253688Y364395D01*
X253674Y364409D01*
X253660Y364416D01*
X253646Y364430D01*
X253633Y364436D01*
X253619Y364450D01*
X253606Y364457D01*
X253592Y364471D01*
X253578Y364477D01*
X253565Y364491D01*
X253551Y364498D01*
X253537Y364512D01*
X253523Y364518D01*
X253503Y364539D01*
X253489Y364546D01*
X253476Y364559D01*
X253462Y364566D01*
X253448Y364580D01*
X253435Y364587D01*
X253421Y364600D01*
X253407Y364607D01*
X253394Y364621D01*
X253380Y364628D01*
X253366Y364641D01*
X253353Y364648D01*
X253339Y364662D01*
X253325Y364669D01*
X253312Y364683D01*
X253298Y364689D01*
X253277Y364710D01*
X253264Y364717D01*
X253250Y364730D01*
X253236Y364737D01*
X253223Y364751D01*
X253209Y364758D01*
X253195Y364771D01*
X253182Y364778D01*
X253168Y364792D01*
X253154Y364799D01*
X253141Y364812D01*
X253127Y364819D01*
X253113Y364833D01*
X253100Y364840D01*
X253086Y364853D01*
X253072Y364860D01*
X253052Y364881D01*
X253038Y364887D01*
X253025Y364901D01*
X253011Y364908D01*
X252990Y364929D01*
X252977Y364935D01*
X252919Y364993D01*
X252912Y365007D01*
X252898Y365021D01*
X252891Y365035D01*
X252864Y365096D01*
X252857Y365144D01*
X252860Y368715D01*
X252994Y368616D01*
D02*
G37*
G36*
X250297Y363767D02*
X250584Y363562D01*
X250598Y363555D01*
X250612Y363541D01*
X250625Y363534D01*
X250865Y363363D01*
X250878Y363356D01*
X250892Y363343D01*
X250906Y363336D01*
X251145Y363165D01*
X251159Y363158D01*
X251172Y363144D01*
X251186Y363138D01*
X251425Y362967D01*
X251439Y362960D01*
X251452Y362946D01*
X251466Y362940D01*
X251705Y362769D01*
X251719Y362762D01*
X251733Y362748D01*
X251746Y362741D01*
X251986Y362570D01*
X251999Y362564D01*
X252013Y362550D01*
X252027Y362543D01*
X252266Y362372D01*
X252279Y362365D01*
X252293Y362352D01*
X252307Y362345D01*
X252498Y362208D01*
X252512Y362201D01*
X252526Y362188D01*
X252539Y362181D01*
X252779Y362010D01*
X252792Y362003D01*
X252806Y361989D01*
X252819Y361983D01*
X253011Y361846D01*
X253025Y361839D01*
X253038Y361825D01*
X253052Y361819D01*
X253291Y361648D01*
X253305Y361641D01*
X253318Y361627D01*
X253332Y361620D01*
X253523Y361484D01*
X253537Y361477D01*
X253551Y361463D01*
X253565Y361456D01*
X253794Y361289D01*
X253766Y361241D01*
X253732Y361186D01*
X253725Y361173D01*
X253698Y361132D01*
X253691Y361118D01*
X253657Y361063D01*
X253650Y361050D01*
X253623Y361009D01*
X253616Y360995D01*
X253568Y360920D01*
X253561Y360906D01*
X253513Y360831D01*
X253506Y360817D01*
X253472Y360763D01*
X253465Y360749D01*
X253438Y360708D01*
X253431Y360694D01*
X253383Y360619D01*
X253377Y360605D01*
X253329Y360530D01*
X253322Y360517D01*
X253288Y360462D01*
X253281Y360448D01*
X253254Y360407D01*
X253247Y360393D01*
X253212Y360339D01*
X253206Y360325D01*
X253158Y360250D01*
X253151Y360236D01*
X253117Y360182D01*
X253110Y360168D01*
X253076Y360113D01*
X253069Y360100D01*
X253042Y360058D01*
X253035Y360045D01*
X253001Y359990D01*
X252994Y359977D01*
X252960Y359922D01*
X252953Y359908D01*
X252925Y359867D01*
X252919Y359854D01*
X252884Y359799D01*
X252878Y359785D01*
X252843Y359730D01*
X252837Y359717D01*
X252809Y359676D01*
X252802Y359662D01*
X252768Y359607D01*
X252761Y359594D01*
X252727Y359539D01*
X252720Y359525D01*
X252713Y359505D01*
X252724Y359495D01*
X252737Y359488D01*
X252785Y359454D01*
X252799Y359447D01*
X252813Y359433D01*
X252826Y359426D01*
X252874Y359392D01*
X252888Y359385D01*
X252983Y359317D01*
X252997Y359310D01*
X253011Y359296D01*
X253025Y359290D01*
X253072Y359255D01*
X253086Y359249D01*
X253100Y359235D01*
X253113Y359228D01*
X253161Y359194D01*
X253175Y359187D01*
X253189Y359173D01*
X253202Y359167D01*
X253250Y359132D01*
X253264Y359125D01*
X253360Y359057D01*
X253373Y359050D01*
X253387Y359037D01*
X253400Y359030D01*
X253448Y358996D01*
X253462Y358989D01*
X253476Y358975D01*
X253489Y358968D01*
X253537Y358934D01*
X253551Y358927D01*
X253646Y358859D01*
X253660Y358852D01*
X253674Y358839D01*
X253688Y358832D01*
X253735Y358797D01*
X253749Y358791D01*
X253763Y358777D01*
X253776Y358770D01*
X253824Y358736D01*
X253838Y358729D01*
X253934Y358661D01*
X253947Y358654D01*
X253961Y358640D01*
X253975Y358633D01*
X254022Y358599D01*
X254036Y358592D01*
X254050Y358579D01*
X254064Y358572D01*
X254111Y358538D01*
X254125Y358531D01*
X254139Y358517D01*
X254152Y358510D01*
X254200Y358476D01*
X254214Y358469D01*
X254310Y358401D01*
X254323Y358394D01*
X254337Y358381D01*
X254350Y358374D01*
X254398Y358340D01*
X254412Y358333D01*
X254426Y358319D01*
X254439Y358312D01*
X254487Y358278D01*
X254501Y358271D01*
X254597Y358203D01*
X254610Y358196D01*
X254624Y358182D01*
X254638Y358175D01*
X254685Y358141D01*
X254699Y358134D01*
X254713Y358121D01*
X254727Y358114D01*
X254774Y358080D01*
X254788Y358073D01*
X254884Y358005D01*
X254897Y357998D01*
X254911Y357984D01*
X254925Y357977D01*
X254973Y357943D01*
X254986Y357936D01*
X255000Y357923D01*
X255013Y357916D01*
X255061Y357881D01*
X255075Y357875D01*
X255147Y357823D01*
X254884Y357560D01*
X254870Y357567D01*
X254856Y357581D01*
X254843Y357588D01*
X254747Y357656D01*
X254733Y357663D01*
X254720Y357677D01*
X254706Y357683D01*
X254562Y357786D01*
X254549Y357793D01*
X254535Y357806D01*
X254521Y357813D01*
X254426Y357881D01*
X254412Y357888D01*
X254398Y357902D01*
X254385Y357909D01*
X254289Y357977D01*
X254275Y357984D01*
X254262Y357998D01*
X254248Y358005D01*
X254104Y358107D01*
X254091Y358114D01*
X254077Y358128D01*
X254064Y358134D01*
X253968Y358203D01*
X253954Y358210D01*
X253940Y358223D01*
X253927Y358230D01*
X253831Y358298D01*
X253817Y358305D01*
X253804Y358319D01*
X253790Y358326D01*
X253646Y358428D01*
X253633Y358435D01*
X253619Y358449D01*
X253606Y358456D01*
X253510Y358524D01*
X253496Y358531D01*
X253483Y358544D01*
X253469Y358551D01*
X253325Y358654D01*
X253312Y358661D01*
X253298Y358674D01*
X253284Y358681D01*
X253189Y358750D01*
X253175Y358756D01*
X253161Y358770D01*
X253148Y358777D01*
X253052Y358845D01*
X253038Y358852D01*
X253025Y358866D01*
X253011Y358873D01*
X252867Y358975D01*
X252854Y358982D01*
X252840Y358996D01*
X252826Y359002D01*
X252731Y359071D01*
X252717Y359078D01*
X252703Y359091D01*
X252690Y359098D01*
X252594Y359167D01*
X252580Y359173D01*
X252567Y359187D01*
X252553Y359194D01*
X252409Y359296D01*
X252396Y359303D01*
X252382Y359317D01*
X252368Y359324D01*
X252273Y359392D01*
X252259Y359399D01*
X252245Y359413D01*
X252232Y359419D01*
X252228Y359423D01*
X252225Y359426D01*
X252211Y359433D01*
X252020Y359570D01*
X252006Y359577D01*
X251992Y359590D01*
X251979Y359597D01*
X251883Y359665D01*
X251869Y359672D01*
X251856Y359686D01*
X251842Y359693D01*
X251746Y359761D01*
X251733Y359768D01*
X251719Y359782D01*
X251705Y359788D01*
X251610Y359857D01*
X251596Y359864D01*
X251582Y359877D01*
X251569Y359884D01*
X251473Y359953D01*
X251459Y359959D01*
X251446Y359973D01*
X251432Y359980D01*
X251336Y360048D01*
X251323Y360055D01*
X251309Y360069D01*
X251295Y360076D01*
X251200Y360144D01*
X251186Y360151D01*
X251172Y360164D01*
X251159Y360171D01*
X251063Y360240D01*
X251049Y360246D01*
X251035Y360260D01*
X251022Y360267D01*
X250926Y360335D01*
X250912Y360342D01*
X250899Y360356D01*
X250885Y360363D01*
X250789Y360431D01*
X250776Y360438D01*
X250762Y360452D01*
X250748Y360458D01*
X250605Y360561D01*
X250591Y360568D01*
X250578Y360581D01*
X250564Y360588D01*
X250468Y360657D01*
X250454Y360663D01*
X250441Y360677D01*
X250427Y360684D01*
X250331Y360752D01*
X250318Y360759D01*
X250304Y360773D01*
X250290Y360780D01*
X250195Y360848D01*
X250181Y360855D01*
X250167Y360869D01*
X250154Y360875D01*
X250058Y360944D01*
X250044Y360950D01*
X250031Y360964D01*
X250017Y360971D01*
X249921Y361039D01*
X249908Y361046D01*
X249894Y361060D01*
X249880Y361067D01*
X249785Y361135D01*
X249771Y361142D01*
X249757Y361156D01*
X249744Y361162D01*
X249648Y361231D01*
X249634Y361238D01*
X249621Y361251D01*
X249607Y361258D01*
X249511Y361326D01*
X249498Y361333D01*
X249484Y361347D01*
X249470Y361354D01*
X249375Y361422D01*
X249361Y361429D01*
X249347Y361443D01*
X249334Y361449D01*
X249238Y361518D01*
X249224Y361525D01*
X249211Y361538D01*
X249197Y361545D01*
X249187Y361555D01*
X249194Y361583D01*
X249221Y361644D01*
X249293Y361812D01*
X249313Y361805D01*
X249409Y361736D01*
X249422Y361730D01*
X249470Y361696D01*
X249484Y361689D01*
X249532Y361654D01*
X249546Y361648D01*
X249593Y361613D01*
X249607Y361607D01*
X249703Y361538D01*
X249716Y361531D01*
X249764Y361497D01*
X249778Y361491D01*
X249826Y361456D01*
X249839Y361449D01*
X249935Y361381D01*
X249949Y361374D01*
X249997Y361340D01*
X250010Y361333D01*
X250058Y361299D01*
X250072Y361292D01*
X250120Y361258D01*
X250133Y361251D01*
X250229Y361183D01*
X250243Y361176D01*
X250290Y361142D01*
X250304Y361135D01*
X250352Y361101D01*
X250366Y361094D01*
X250461Y361026D01*
X250475Y361019D01*
X250523Y360985D01*
X250537Y360978D01*
X250584Y360944D01*
X250598Y360937D01*
X250646Y360903D01*
X250660Y360896D01*
X250755Y360827D01*
X250769Y360821D01*
X250817Y360787D01*
X250831Y360780D01*
X250878Y360745D01*
X250892Y360739D01*
X250988Y360670D01*
X251001Y360663D01*
X251049Y360629D01*
X251063Y360622D01*
X251159Y360554D01*
X251172Y360547D01*
X251220Y360513D01*
X251234Y360506D01*
X251329Y360438D01*
X251343Y360431D01*
X251391Y360397D01*
X251405Y360390D01*
X251500Y360322D01*
X251514Y360315D01*
X251562Y360281D01*
X251575Y360274D01*
X251671Y360206D01*
X251685Y360199D01*
X251733Y360164D01*
X251746Y360158D01*
X251842Y360089D01*
X251856Y360082D01*
X251904Y360048D01*
X251917Y360041D01*
X251965Y360007D01*
X251979Y360000D01*
X251992Y359987D01*
X252006Y359980D01*
X252054Y359946D01*
X252068Y359939D01*
X252116Y359905D01*
X252129Y359898D01*
X252225Y359829D01*
X252238Y359823D01*
X252286Y359788D01*
X252300Y359782D01*
X252396Y359713D01*
X252416Y359706D01*
X252447Y359765D01*
X252515Y359888D01*
X252556Y359963D01*
X252659Y360147D01*
X252686Y360195D01*
X252823Y360441D01*
X252871Y360530D01*
X252994Y360756D01*
X253062Y360886D01*
X253178Y361125D01*
X253182Y361238D01*
X253100Y361320D01*
X253086Y361326D01*
X253059Y361354D01*
X253045Y361361D01*
X253031Y361374D01*
X253018Y361381D01*
X253004Y361395D01*
X252990Y361402D01*
X252942Y361436D01*
X252929Y361443D01*
X252881Y361477D01*
X252819Y361511D01*
X252765Y361545D01*
X252751Y361552D01*
X252696Y361586D01*
X252683Y361593D01*
X252628Y361627D01*
X252614Y361634D01*
X252573Y361661D01*
X252560Y361668D01*
X252553Y361675D01*
X252529Y361651D01*
X252522Y361637D01*
X252502Y361617D01*
X252495Y361603D01*
X252467Y361576D01*
X252461Y361562D01*
X252420Y361521D01*
X252413Y361508D01*
X252324Y361419D01*
X252317Y361405D01*
X252300Y361388D01*
X252286Y361381D01*
X252218Y361313D01*
X252215Y361610D01*
X252221Y361631D01*
X252228Y361808D01*
X252235Y361829D01*
X252218Y361846D01*
X252204Y361853D01*
X252191Y361866D01*
X252177Y361873D01*
X252163Y361887D01*
X252150Y361894D01*
X252136Y361907D01*
X252122Y361914D01*
X252109Y361928D01*
X252095Y361935D01*
X252081Y361948D01*
X252068Y361955D01*
X252054Y361969D01*
X252040Y361976D01*
X252027Y361989D01*
X252013Y361996D01*
X251999Y362010D01*
X251986Y362017D01*
X251972Y362030D01*
X251958Y362037D01*
X251945Y362051D01*
X251931Y362058D01*
X251917Y362071D01*
X251904Y362078D01*
X251890Y362092D01*
X251876Y362099D01*
X251863Y362112D01*
X251849Y362119D01*
X251835Y362133D01*
X251821Y362140D01*
X251808Y362154D01*
X251794Y362160D01*
X251781Y362174D01*
X251767Y362181D01*
X251753Y362194D01*
X251740Y362201D01*
X251726Y362215D01*
X251712Y362222D01*
X251698Y362235D01*
X251685Y362242D01*
X251671Y362256D01*
X251658Y362263D01*
X251644Y362277D01*
X251630Y362283D01*
X251617Y362297D01*
X251603Y362304D01*
X251589Y362317D01*
X251575Y362324D01*
X251562Y362338D01*
X251548Y362345D01*
X251535Y362358D01*
X251521Y362365D01*
X251507Y362379D01*
X251494Y362386D01*
X251480Y362400D01*
X251466Y362406D01*
X251452Y362420D01*
X251439Y362427D01*
X251425Y362440D01*
X251412Y362447D01*
X251398Y362461D01*
X251384Y362468D01*
X251370Y362482D01*
X251357Y362488D01*
X251343Y362502D01*
X251329Y362509D01*
X251316Y362523D01*
X251302Y362529D01*
X251288Y362543D01*
X251275Y362550D01*
X251261Y362564D01*
X251247Y362570D01*
X251162Y362635D01*
X251138Y362652D01*
X251053Y362717D01*
X251029Y362735D01*
X250943Y362799D01*
X250919Y362817D01*
X250834Y362881D01*
X250810Y362898D01*
X250677Y362998D01*
X250653Y363015D01*
X250567Y363080D01*
X250543Y363097D01*
X250458Y363162D01*
X250427Y363186D01*
X250413Y363192D01*
X250407Y363199D01*
X250396Y363189D01*
X250386Y363138D01*
X250376Y363100D01*
X250362Y363045D01*
X250349Y362998D01*
X250342Y362970D01*
X250328Y362922D01*
X250273Y362704D01*
X250260Y362656D01*
X250239Y362574D01*
X250226Y362526D01*
X250212Y362471D01*
X250198Y362423D01*
X250191Y362396D01*
X250164Y362300D01*
X250144Y362232D01*
X250113Y362147D01*
X250106Y362174D01*
X250099Y362208D01*
X250092Y362249D01*
X250085Y362304D01*
X250079Y362365D01*
X250072Y362502D01*
X250068Y362581D01*
X250075Y362601D01*
X250082Y362799D01*
X250089Y362820D01*
X250096Y362916D01*
X250102Y362936D01*
X250113Y363015D01*
X250120Y363056D01*
X250127Y363090D01*
X250133Y363131D01*
X250147Y363199D01*
X250154Y363227D01*
X250174Y363329D01*
X250181Y363356D01*
X250188Y363391D01*
X250195Y363418D01*
X250202Y363452D01*
X250215Y363507D01*
X250222Y363541D01*
X250243Y363623D01*
X250250Y363657D01*
X250263Y363712D01*
X250270Y363746D01*
X250277Y363773D01*
X250297Y363767D01*
D02*
G37*
G36*
X258370Y359331D02*
X258431Y359324D01*
X258493Y359290D01*
X258537Y359245D01*
X258544Y359231D01*
X258558Y359218D01*
X258564Y359204D01*
X258626Y359074D01*
X258660Y358999D01*
X258657Y358989D01*
X256944Y358992D01*
X256965Y359040D01*
X256982Y359085D01*
X257003Y359139D01*
X257016Y359173D01*
X257050Y359228D01*
X257067Y359252D01*
X257085Y359269D01*
X257098Y359276D01*
X257187Y359317D01*
X257231Y359327D01*
X257283Y359337D01*
X257290D01*
X257515Y359331D01*
X257536Y359324D01*
X257819Y359320D01*
X258127Y359334D01*
X258349Y359337D01*
X258370Y359331D01*
D02*
G37*
G36*
X247782Y359727D02*
X248069Y359522D01*
X248083Y359515D01*
X248096Y359502D01*
X248103D01*
X248117Y359488D01*
X248131Y359481D01*
X248144Y359467D01*
X248158Y359460D01*
X248254Y359392D01*
X248267Y359385D01*
X248281Y359372D01*
X248295Y359365D01*
X248838Y358972D01*
X248835Y358962D01*
X248797Y358951D01*
X248698Y358921D01*
X248650Y358907D01*
X248623Y358900D01*
X248575Y358893D01*
X248548Y358886D01*
X248411Y358893D01*
X248390Y358900D01*
X248342Y358921D01*
X248199Y358996D01*
X248151Y359030D01*
X248137Y359037D01*
X248004Y359136D01*
X247980Y359153D01*
X247895Y359218D01*
X247854Y359245D01*
X247844Y359255D01*
X247830Y359262D01*
X247782Y359296D01*
X247734Y359324D01*
X247731Y359361D01*
X247738Y359382D01*
X247748Y359515D01*
X247762Y359665D01*
X247768Y359734D01*
X247782Y359727D01*
D02*
G37*
G36*
X257843Y357813D02*
X258530Y357810D01*
X258810Y357817D01*
X258838Y357810D01*
X258872Y357796D01*
X258913Y357769D01*
X258940Y357741D01*
X258947Y357728D01*
X258961Y357714D01*
X258968Y357700D01*
X259015Y357598D01*
X259036Y357529D01*
X259033Y357519D01*
X258000Y357512D01*
X256845Y357519D01*
X256842Y357536D01*
X256856Y357571D01*
X256862Y357598D01*
X256890Y357687D01*
X256910Y357755D01*
X256917Y357769D01*
X256944Y357776D01*
X257037Y357786D01*
X257064Y357793D01*
X257071D01*
X257204Y357803D01*
X257313Y357810D01*
X257560Y357817D01*
X257823Y357820D01*
X257843Y357813D01*
D02*
G37*
G36*
X258752Y356398D02*
X258773Y356392D01*
X258834Y356385D01*
X258882Y356350D01*
X258913Y356320D01*
X258920Y356306D01*
X258975Y356190D01*
X259002Y356121D01*
X259005Y356104D01*
X256801Y356108D01*
X256828Y356204D01*
X256859Y356289D01*
X256883Y356327D01*
X256921Y356364D01*
X256968Y356378D01*
X256989Y356385D01*
X256996D01*
X257064Y356392D01*
X257112Y356398D01*
X257283Y356405D01*
X257351Y356398D01*
X257748Y356392D01*
X258165Y356398D01*
X258212Y356405D01*
X258752Y356398D01*
D02*
G37*
G36*
X249805Y359365D02*
X249853Y359331D01*
X249867Y359324D01*
X249908Y359296D01*
X249921Y359290D01*
X249969Y359255D01*
X249983Y359249D01*
X250031Y359214D01*
X250079Y359187D01*
X250127Y359153D01*
X250140Y359146D01*
X250280Y359054D01*
X250335Y359020D01*
X250540Y358883D01*
X250595Y358849D01*
X251825Y358029D01*
X251835Y358018D01*
X251849Y358011D01*
X251897Y357977D01*
X251910Y357970D01*
X251958Y357936D01*
X251972Y357929D01*
X252020Y357895D01*
X252033Y357888D01*
X252081Y357854D01*
X252095Y357847D01*
X252143Y357813D01*
X252156Y357806D01*
X252204Y357772D01*
X252218Y357765D01*
X252232Y357752D01*
X252245Y357745D01*
X252293Y357711D01*
X252307Y357704D01*
X252355Y357670D01*
X252368Y357663D01*
X252416Y357629D01*
X252430Y357622D01*
X252478Y357588D01*
X252491Y357581D01*
X252539Y357547D01*
X252553Y357540D01*
X252601Y357506D01*
X252614Y357499D01*
X252628Y357485D01*
X252642Y357478D01*
X252690Y357444D01*
X252703Y357437D01*
X252751Y357403D01*
X252765Y357396D01*
X252813Y357362D01*
X252826Y357355D01*
X252874Y357321D01*
X252888Y357314D01*
X252936Y357280D01*
X252949Y357273D01*
X252997Y357239D01*
X253011Y357232D01*
X253059Y357198D01*
X253072Y357191D01*
X253120Y357157D01*
X253134Y357150D01*
X253182Y357116D01*
X253195Y357109D01*
X253243Y357075D01*
X253257Y357068D01*
X253305Y357034D01*
X253318Y357027D01*
X253366Y356993D01*
X253380Y356986D01*
X253428Y356952D01*
X253442Y356945D01*
X253489Y356911D01*
X253503Y356904D01*
X253551Y356870D01*
X253565Y356863D01*
X253612Y356829D01*
X253626Y356822D01*
X253674Y356788D01*
X253688Y356781D01*
X253729Y356754D01*
X253742Y356747D01*
X253790Y356713D01*
X253800Y356709D01*
X253712Y356539D01*
X253664Y356450D01*
X253629Y356388D01*
X253626Y356385D01*
X253606Y356405D01*
X253592Y356412D01*
X253578Y356426D01*
X253565Y356433D01*
X253551Y356446D01*
X253537Y356453D01*
X253523Y356467D01*
X253510Y356473D01*
X253496Y356487D01*
X253483Y356494D01*
X253469Y356508D01*
X253455Y356515D01*
X253442Y356528D01*
X253428Y356535D01*
X253342Y356600D01*
X253318Y356617D01*
X253185Y356716D01*
X253161Y356733D01*
X253076Y356798D01*
X253052Y356815D01*
X252919Y356914D01*
X252895Y356931D01*
X252761Y357031D01*
X252737Y357048D01*
X252652Y357113D01*
X252611Y357140D01*
X252601Y357150D01*
X252587Y357157D01*
X252573Y357171D01*
X252560Y357177D01*
X252546Y357191D01*
X252532Y357198D01*
X252519Y357212D01*
X252505Y357219D01*
X252491Y357232D01*
X252478Y357239D01*
X252464Y357253D01*
X252450Y357259D01*
X252437Y357273D01*
X252423Y357280D01*
X252338Y357345D01*
X252314Y357362D01*
X252228Y357427D01*
X252187Y357454D01*
X252177Y357465D01*
X252163Y357471D01*
X252150Y357485D01*
X252136Y357492D01*
X252122Y357506D01*
X252109Y357512D01*
X252095Y357526D01*
X252081Y357533D01*
X252068Y357547D01*
X252054Y357554D01*
X252040Y357567D01*
X252027Y357574D01*
X251941Y357639D01*
X251917Y357656D01*
X251832Y357721D01*
X251808Y357738D01*
X251675Y357837D01*
X251651Y357854D01*
X251565Y357919D01*
X251535Y357943D01*
X251521Y357950D01*
X251435Y358015D01*
X251412Y358032D01*
X251326Y358097D01*
X251302Y358114D01*
X251169Y358213D01*
X251145Y358230D01*
X251059Y358295D01*
X251035Y358312D01*
X250902Y358411D01*
X250844Y358456D01*
X250831Y358463D01*
X250817Y358476D01*
X250803Y358483D01*
X250789Y358497D01*
X250776Y358504D01*
X250762Y358517D01*
X250748Y358524D01*
X250663Y358589D01*
X250639Y358606D01*
X250554Y358671D01*
X250533Y358685D01*
X250530Y358688D01*
X250396Y358787D01*
X250366Y358811D01*
X250352Y358818D01*
X250338Y358832D01*
X250325Y358839D01*
X250311Y358852D01*
X250297Y358859D01*
X250284Y358873D01*
X250270Y358879D01*
X250256Y358893D01*
X250243Y358900D01*
X250181Y358948D01*
X250154Y358975D01*
X250140Y358982D01*
X250127Y358996D01*
X250113Y359002D01*
X250065Y359037D01*
X250051Y359044D01*
X249911Y359136D01*
X249894Y359153D01*
X249880Y359160D01*
X249843Y359197D01*
X249836Y359211D01*
X249822Y359225D01*
X249795Y359286D01*
X249788Y359314D01*
X249781Y359361D01*
X249785Y359372D01*
X249805Y359365D01*
D02*
G37*
G36*
X260629Y356313D02*
X260635Y356299D01*
X260656Y356279D01*
X260663Y356265D01*
X260676Y356251D01*
X260683Y356238D01*
X260704Y356217D01*
X260711Y356204D01*
X260724Y356190D01*
X260731Y356176D01*
X260752Y356156D01*
X260758Y356142D01*
X260772Y356128D01*
X260779Y356115D01*
X260799Y356094D01*
X260806Y356081D01*
X260820Y356067D01*
X260827Y356053D01*
X260847Y356033D01*
X260854Y356019D01*
X260868Y356005D01*
X260875Y355992D01*
X260895Y355971D01*
X260902Y355958D01*
X260916Y355944D01*
X260923Y355930D01*
X260943Y355910D01*
X260950Y355896D01*
X260964Y355882D01*
X260970Y355869D01*
X260991Y355848D01*
X260998Y355834D01*
X261011Y355821D01*
X261018Y355807D01*
X261039Y355787D01*
X261046Y355773D01*
X261059Y355759D01*
X261066Y355746D01*
X261087Y355725D01*
X261093Y355711D01*
X261107Y355698D01*
X261114Y355684D01*
X261127Y355670D01*
X261134Y355657D01*
X261155Y355636D01*
X261162Y355623D01*
X261175Y355609D01*
X261182Y355595D01*
X261196Y355581D01*
X261203Y355568D01*
X261223Y355547D01*
X261230Y355534D01*
X261244Y355520D01*
X261251Y355506D01*
X261264Y355493D01*
X261271Y355479D01*
X261292Y355458D01*
X261298Y355445D01*
X261312Y355431D01*
X261319Y355417D01*
X261333Y355404D01*
X261339Y355390D01*
X261360Y355370D01*
X261367Y355356D01*
X261380Y355342D01*
X261387Y355329D01*
X261401Y355315D01*
X261408Y355301D01*
X261428Y355281D01*
X261435Y355267D01*
X261449Y355254D01*
X261456Y355240D01*
X261469Y355226D01*
X261476Y355212D01*
X261497Y355192D01*
X261504Y355178D01*
X261517Y355165D01*
X261524Y355151D01*
X261538Y355137D01*
X261544Y355124D01*
X261565Y355103D01*
X261572Y355089D01*
X261585Y355076D01*
X261592Y355062D01*
X261606Y355048D01*
X261613Y355035D01*
X261633Y355014D01*
X261640Y355001D01*
X261654Y354987D01*
X261661Y354973D01*
X261674Y354960D01*
X261681Y354946D01*
X261702Y354925D01*
X261708Y354912D01*
X261722Y354898D01*
X261729Y354884D01*
X261743Y354871D01*
X261750Y354857D01*
X261770Y354837D01*
X261777Y354823D01*
X261790Y354809D01*
X261797Y354796D01*
X261811Y354782D01*
X261818Y354768D01*
X261838Y354748D01*
X261845Y354734D01*
X261859Y354720D01*
X261866Y354707D01*
X261879Y354693D01*
X261886Y354679D01*
X261907Y354659D01*
X261913Y354645D01*
X261927Y354631D01*
X261934Y354618D01*
X261948Y354604D01*
X261955Y354591D01*
X261975Y354570D01*
X261982Y354556D01*
X261996Y354543D01*
X262002Y354529D01*
X262016Y354515D01*
X262023Y354502D01*
X262037Y354488D01*
X262043Y354474D01*
X262064Y354454D01*
X262071Y354440D01*
X262084Y354426D01*
X262091Y354413D01*
X262105Y354399D01*
X262112Y354385D01*
X262132Y354365D01*
X262139Y354351D01*
X262153Y354338D01*
X262160Y354324D01*
X262173Y354310D01*
X262180Y354296D01*
X262201Y354276D01*
X262208Y354262D01*
X262221Y354249D01*
X262228Y354235D01*
X262242Y354221D01*
X262248Y354208D01*
X262269Y354187D01*
X262272Y354170D01*
X261076Y354163D01*
X255759Y354170D01*
X255738Y354177D01*
X255711Y354184D01*
X255646Y354208D01*
X255612Y354221D01*
X255618Y354235D01*
X255660Y354262D01*
X255670Y354273D01*
X255683Y354279D01*
X255731Y354314D01*
X255745Y354321D01*
X255800Y354355D01*
X255868Y354382D01*
X255906Y354392D01*
X255967Y354399D01*
X256172Y354420D01*
X256247Y354426D01*
X256329Y354433D01*
X256404Y354440D01*
X256500Y354447D01*
X256589Y354454D01*
X256791Y354464D01*
X256818Y354471D01*
X257054Y354481D01*
X257334Y354495D01*
X257710Y354508D01*
X257929Y354515D01*
X258161Y354522D01*
X258660Y354536D01*
X258886Y354543D01*
X259275Y354556D01*
X259446Y354563D01*
X259590Y354570D01*
X259644Y354577D01*
X259726Y354591D01*
X259760Y354597D01*
X259870Y354625D01*
X259908Y354635D01*
X259959Y354652D01*
X259897Y354659D01*
X259822Y354666D01*
X259699Y354673D01*
X256220Y354679D01*
X256227Y354720D01*
X256240Y354754D01*
X256278Y354860D01*
X256292Y354895D01*
X256312Y354936D01*
X256360Y354949D01*
X256387Y354956D01*
X256483Y354970D01*
X256633Y354977D01*
X257583D01*
X260861Y354980D01*
X260854Y355007D01*
X260827Y355076D01*
X260810Y355120D01*
X260796Y355154D01*
X260775Y355209D01*
X260748Y355277D01*
X260728Y355332D01*
X260700Y355407D01*
X260642Y355588D01*
X260615Y355684D01*
X260608Y355711D01*
X260588Y355828D01*
X260581Y355855D01*
X260574Y355944D01*
X260567Y355992D01*
X260574Y356169D01*
X260581Y356190D01*
X260591Y356255D01*
X260605Y356310D01*
X260612Y356330D01*
X260629Y356313D01*
D02*
G37*
G36*
X249149Y357656D02*
X249163Y357642D01*
X249176Y357635D01*
X249217Y357608D01*
X249231Y357601D01*
X249272Y357574D01*
X249286Y357567D01*
X249327Y357540D01*
X249340Y357533D01*
X249381Y357506D01*
X249395Y357499D01*
X249443Y357465D01*
X249491Y357437D01*
X249566Y357389D01*
X249580Y357383D01*
X249627Y357348D01*
X249675Y357321D01*
X249750Y357273D01*
X249764Y357266D01*
X249812Y357232D01*
X249860Y357205D01*
X249901Y357177D01*
X249915Y357171D01*
X249956Y357143D01*
X249969Y357137D01*
X250017Y357102D01*
X250065Y357075D01*
X250106Y357048D01*
X250120Y357041D01*
X250167Y357007D01*
X250215Y356979D01*
X250256Y356952D01*
X250270Y356945D01*
X250318Y356911D01*
X250366Y356884D01*
X250407Y356856D01*
X250420Y356849D01*
X250468Y356815D01*
X250482Y356808D01*
X250772Y356621D01*
X250827Y356586D01*
X250868Y356559D01*
X250923Y356525D01*
X250964Y356497D01*
X251018Y356463D01*
X251059Y356436D01*
X251114Y356402D01*
X251155Y356374D01*
X251210Y356340D01*
X251251Y356313D01*
X251306Y356279D01*
X251346Y356251D01*
X251401Y356217D01*
X251442Y356190D01*
X251497Y356156D01*
X251538Y356128D01*
X251593Y356094D01*
X251634Y356067D01*
X251688Y356033D01*
X251729Y356005D01*
X251804Y355958D01*
X251846Y355930D01*
X251921Y355882D01*
X251962Y355855D01*
X252037Y355807D01*
X252078Y355780D01*
X252133Y355746D01*
X252174Y355718D01*
X252249Y355670D01*
X252290Y355643D01*
X252365Y355595D01*
X252406Y355568D01*
X252481Y355520D01*
X252522Y355493D01*
X252597Y355445D01*
X252638Y355417D01*
X252713Y355370D01*
X252754Y355342D01*
X252830Y355294D01*
X252871Y355267D01*
X252946Y355219D01*
X252987Y355192D01*
X253062Y355144D01*
X253103Y355117D01*
X253158Y355083D01*
X253199Y355055D01*
X253254Y355021D01*
X253294Y354994D01*
X253349Y354960D01*
X253390Y354932D01*
X253445Y354898D01*
X253486Y354871D01*
X253541Y354837D01*
X253582Y354809D01*
X253636Y354775D01*
X253677Y354748D01*
X253732Y354714D01*
X253773Y354686D01*
X253828Y354652D01*
X253869Y354625D01*
X253923Y354591D01*
X253964Y354563D01*
X254019Y354529D01*
X254060Y354502D01*
X254115Y354467D01*
X254156Y354440D01*
X254210Y354406D01*
X254251Y354379D01*
X254289Y354355D01*
X254292Y354338D01*
X254265Y354296D01*
X254224Y354221D01*
X254169Y354126D01*
X254135Y354071D01*
X254094Y353996D01*
X254077Y353965D01*
X254064Y353972D01*
X253882Y354105D01*
X253872Y354109D01*
X253869Y354112D01*
X253858Y354122D01*
X253845Y354129D01*
X253831Y354143D01*
X253817Y354150D01*
X253804Y354163D01*
X253790Y354170D01*
X253561Y354338D01*
X253520Y354365D01*
X253510Y354375D01*
X253496Y354382D01*
X253315Y354515D01*
X253274Y354543D01*
X253264Y354553D01*
X253250Y354560D01*
X253236Y354573D01*
X253223Y354580D01*
X252994Y354748D01*
X252953Y354775D01*
X252942Y354785D01*
X252929Y354792D01*
X252748Y354925D01*
X252707Y354953D01*
X252696Y354963D01*
X252683Y354970D01*
X252669Y354983D01*
X252655Y354990D01*
X252427Y355158D01*
X252385Y355185D01*
X252375Y355195D01*
X252361Y355202D01*
X252180Y355335D01*
X252139Y355363D01*
X252129Y355373D01*
X252116Y355380D01*
X251982Y355479D01*
X251941Y355506D01*
X251931Y355517D01*
X251917Y355523D01*
X251736Y355657D01*
X251695Y355684D01*
X251685Y355694D01*
X251671Y355701D01*
X251490Y355834D01*
X251449Y355862D01*
X251439Y355872D01*
X251425Y355879D01*
X251196Y356046D01*
X251155Y356074D01*
X251145Y356084D01*
X251131Y356091D01*
X250902Y356258D01*
X250861Y356286D01*
X250851Y356296D01*
X250837Y356303D01*
X250608Y356470D01*
X250567Y356497D01*
X250557Y356508D01*
X250543Y356515D01*
X250314Y356682D01*
X250273Y356709D01*
X250263Y356720D01*
X250250Y356726D01*
X250068Y356860D01*
X250027Y356887D01*
X250017Y356897D01*
X250003Y356904D01*
X249774Y357072D01*
X249733Y357099D01*
X249723Y357109D01*
X249710Y357116D01*
X249481Y357283D01*
X249440Y357311D01*
X249429Y357321D01*
X249416Y357328D01*
X249258Y357444D01*
X249197Y357492D01*
X249159Y357523D01*
X249152Y357536D01*
X249139Y357550D01*
X249118Y357598D01*
X249122Y357663D01*
X249149Y357656D01*
D02*
G37*
%LPC*%
G36*
X251165Y382960D02*
X251162Y382956D01*
X251165Y382953D01*
X251169Y382956D01*
X251165Y382960D01*
D02*
G37*
G36*
X257214Y382132D02*
X257160Y382126D01*
X257112Y382098D01*
X257091Y382078D01*
X257078Y382071D01*
X257050Y382044D01*
X257037Y382037D01*
X257033Y382033D01*
X257013Y382013D01*
X257006Y381999D01*
X256992Y381985D01*
X256972Y381938D01*
X256958Y381883D01*
X256965Y381767D01*
X257006Y381692D01*
X257050Y381647D01*
X257112Y381620D01*
X257160Y381606D01*
X257187Y381599D01*
X257276Y381606D01*
X257379Y381661D01*
X257392Y381675D01*
X257406Y381681D01*
X257419Y381695D01*
X257433Y381702D01*
X257454Y381722D01*
X257467Y381729D01*
X257502Y381763D01*
X257515Y381770D01*
X257536Y381791D01*
X257549Y381798D01*
X257560Y381808D01*
X257556Y381968D01*
X257542Y381975D01*
X257358Y382091D01*
X257310Y382112D01*
X257262Y382126D01*
X257214Y382132D01*
D02*
G37*
G36*
X251890Y382105D02*
X251876Y382098D01*
X251839Y382067D01*
X251815Y382044D01*
X251801Y382037D01*
X251760Y381996D01*
X251746Y381989D01*
X251627Y381869D01*
X251634Y381849D01*
X251647Y381835D01*
X251654Y381821D01*
X251804Y381616D01*
Y381610D01*
X251825Y381589D01*
X251828Y381579D01*
X251842Y381586D01*
X251859Y381603D01*
X251866Y381616D01*
X251887Y381637D01*
X251893Y381650D01*
X251921Y381678D01*
X251927Y381692D01*
X251955Y381719D01*
X251962Y381733D01*
X251982Y381753D01*
X251989Y381767D01*
X252003Y381780D01*
X252010Y381794D01*
X252030Y381815D01*
X252037Y381828D01*
X252050Y381842D01*
X252057Y381856D01*
X252071Y381869D01*
X252078Y381883D01*
X252092Y381897D01*
X252061Y381934D01*
X251890Y382105D01*
D02*
G37*
G36*
X252355Y381545D02*
X252321Y381531D01*
X252307Y381524D01*
X252269Y381493D01*
X252235Y381459D01*
X252221Y381411D01*
X252228Y381370D01*
X252256Y381322D01*
X252269Y381309D01*
X252276Y381295D01*
X252303Y381268D01*
X252310Y381254D01*
X252338Y381227D01*
X252344Y381213D01*
X252348Y381210D01*
X252351Y381206D01*
X252361Y381196D01*
X252553Y381305D01*
X252608Y381340D01*
X252652Y381364D01*
X252642Y381374D01*
X252628Y381381D01*
X252614Y381394D01*
X252601Y381401D01*
X252580Y381422D01*
X252567Y381428D01*
X252532Y381463D01*
X252519Y381469D01*
X252498Y381490D01*
X252485Y381497D01*
X252430Y381531D01*
X252385Y381541D01*
X252355Y381545D01*
D02*
G37*
G36*
X253858Y381613D02*
X253838Y381606D01*
X253790Y381572D01*
X253776Y381565D01*
X253739Y381534D01*
X253715Y381517D01*
X253657Y381459D01*
X253650Y381446D01*
X253623Y381404D01*
X253602Y381357D01*
X253595Y381309D01*
X253616Y381288D01*
X253623Y381275D01*
X253636Y381261D01*
X253643Y381247D01*
X253729Y381162D01*
X253742Y381155D01*
X253804Y381128D01*
X253852Y381121D01*
X253879Y381128D01*
X253920Y381155D01*
X253951Y381172D01*
X253954Y381175D01*
X253968Y381182D01*
X254197Y381350D01*
X254204Y381357D01*
X254180Y381381D01*
X254166Y381387D01*
X254152Y381401D01*
X254139Y381408D01*
X254118Y381428D01*
X254104Y381435D01*
X254091Y381449D01*
X254077Y381456D01*
X254057Y381476D01*
X254043Y381483D01*
X254029Y381497D01*
X254016Y381504D01*
X254002Y381517D01*
X253988Y381524D01*
X253858Y381613D01*
D02*
G37*
G36*
X250783Y381961D02*
X250605Y381955D01*
X250584Y381948D01*
X250537Y381934D01*
X250468Y381907D01*
X250366Y381852D01*
X250280Y381787D01*
X250219Y381726D01*
X250212Y381712D01*
X250198Y381698D01*
X250191Y381685D01*
X250178Y381671D01*
X250144Y381610D01*
X250109Y381534D01*
X250089Y381459D01*
X250075Y381322D01*
X250082Y381295D01*
X250089Y381206D01*
X250096Y381186D01*
X250109Y381138D01*
X250137Y381070D01*
X250191Y380967D01*
X250256Y380882D01*
X250267Y380871D01*
X250273Y380858D01*
X250325Y380806D01*
X250338Y380800D01*
X250366Y380772D01*
X250379Y380765D01*
X250393Y380752D01*
X250407Y380745D01*
X250448Y380717D01*
X250461Y380711D01*
X250537Y380677D01*
X250581Y380660D01*
X250636Y380646D01*
X250677Y380639D01*
X250831Y380635D01*
X250851Y380642D01*
X250906Y380649D01*
X250926Y380656D01*
X250991Y380680D01*
X251025Y380694D01*
X251090Y380724D01*
X251111Y380738D01*
X251114Y380742D01*
X251152Y380765D01*
X251213Y380813D01*
X251292Y380892D01*
X251299Y380906D01*
X251312Y380919D01*
X251319Y380933D01*
X251353Y380981D01*
X251381Y381042D01*
X251394Y381076D01*
X251422Y381172D01*
X251429Y381261D01*
X251422Y381384D01*
X251415Y381404D01*
X251405Y381449D01*
X251384Y381504D01*
X251367Y381541D01*
X251326Y381616D01*
X251261Y381702D01*
X251251Y381712D01*
X251244Y381726D01*
X251193Y381777D01*
X251179Y381784D01*
X251152Y381811D01*
X251138Y381818D01*
X251124Y381832D01*
X251077Y381859D01*
X250947Y381921D01*
X250912Y381934D01*
X250858Y381948D01*
X250810Y381955D01*
X250783Y381961D01*
D02*
G37*
G36*
X258506Y380663D02*
X258424Y380656D01*
X258349Y380615D01*
X258264Y380550D01*
X258233Y380512D01*
X258206Y380471D01*
X258192Y380437D01*
X258175Y380393D01*
X258171Y380335D01*
X258182Y380277D01*
X258216Y380215D01*
X258229Y380202D01*
X258236Y380188D01*
X258253Y380171D01*
X258267Y380164D01*
X258288Y380143D01*
X258349Y380116D01*
X258383Y380102D01*
X258479Y380089D01*
X258499Y380096D01*
X258561Y380102D01*
X258609Y380130D01*
X258646Y380160D01*
X258660Y380174D01*
X258667Y380188D01*
X258694Y380236D01*
X258728Y380283D01*
X258735Y380311D01*
X258742Y380331D01*
X258749Y380359D01*
X258742Y380461D01*
X258735Y380475D01*
Y380482D01*
X258708Y380530D01*
X258660Y380591D01*
X258650Y380601D01*
X258636Y380608D01*
X258623Y380622D01*
X258561Y380649D01*
X258506Y380663D01*
D02*
G37*
G36*
X255724Y378790D02*
X255663Y378742D01*
X255625Y378712D01*
X255601Y378694D01*
X255588Y378681D01*
X255574Y378674D01*
X255560Y378660D01*
X255547Y378653D01*
X255526Y378633D01*
X255512Y378626D01*
X255492Y378606D01*
X255478Y378599D01*
X255468Y378588D01*
X255495Y378561D01*
Y378554D01*
X255499Y378551D01*
X255557Y378493D01*
X255564Y378479D01*
X255618Y378424D01*
X255625Y378411D01*
X255683Y378353D01*
X255694Y378356D01*
X255700Y378370D01*
X255721Y378390D01*
X255728Y378404D01*
X255755Y378431D01*
X255762Y378445D01*
X255783Y378465D01*
X255789Y378479D01*
X255810Y378500D01*
X255817Y378513D01*
X255837Y378534D01*
X255844Y378547D01*
X255865Y378568D01*
X255871Y378582D01*
X255885Y378595D01*
X255899Y378623D01*
X255793Y378729D01*
X255779Y378735D01*
X255724Y378790D01*
D02*
G37*
G36*
X260748Y378004D02*
X255386Y378001D01*
Y377495D01*
Y377488D01*
X255389Y377348D01*
X260752Y377351D01*
X260748Y378004D01*
D02*
G37*
G36*
X260037Y377068D02*
X259901Y377061D01*
X259866Y377047D01*
X259750Y376986D01*
X259716Y376951D01*
X259706Y376948D01*
X259699Y376934D01*
X259685Y376921D01*
X259679Y376907D01*
X259644Y376832D01*
X259631Y376777D01*
X259624Y376688D01*
X259631Y376640D01*
X259637Y376613D01*
Y376606D01*
X259668Y376521D01*
X259702Y376466D01*
X259737Y376425D01*
X259778Y376384D01*
X259791Y376377D01*
X259880Y376336D01*
X259948Y376329D01*
X260099Y376336D01*
X260201Y376391D01*
X260229Y376418D01*
X260242Y376425D01*
X260253Y376435D01*
X260260Y376449D01*
X260280Y376469D01*
X260335Y376586D01*
X260348Y376634D01*
X260355Y376681D01*
X260348Y376825D01*
X260335Y376859D01*
X260294Y376934D01*
X260263Y376972D01*
X260225Y377003D01*
X260174Y377033D01*
X260085Y377061D01*
X260037Y377068D01*
D02*
G37*
G36*
X266244Y377102D02*
X266162Y377095D01*
X266141Y377088D01*
X266107Y377074D01*
X266004Y377020D01*
X265946Y376962D01*
X265939Y376948D01*
X265912Y376907D01*
X265895Y376863D01*
X265888Y376835D01*
X265878Y376798D01*
X265871Y376729D01*
X265878Y376640D01*
X265885Y376620D01*
X265909Y376555D01*
X265922Y376521D01*
X265933Y376511D01*
X265939Y376497D01*
X265970Y376459D01*
X266011Y376418D01*
X266025Y376412D01*
X266045Y376391D01*
X266059Y376384D01*
X266073Y376370D01*
X266134Y376343D01*
X266182Y376329D01*
X266209Y376323D01*
X266353Y376329D01*
X266373Y376336D01*
X266438Y376360D01*
X266493Y376394D01*
X266517Y376412D01*
X266575Y376469D01*
X266582Y376483D01*
X266609Y376524D01*
X266630Y376593D01*
X266643Y376647D01*
X266637Y376784D01*
X266630Y376804D01*
X266616Y376839D01*
X266575Y376914D01*
X266561Y376927D01*
X266555Y376941D01*
X266520Y376975D01*
X266514Y376989D01*
X266490Y377006D01*
X266476Y377020D01*
X266469D01*
X266456Y377033D01*
X266442Y377040D01*
X266408Y377061D01*
X266360Y377081D01*
X266312Y377095D01*
X266244Y377102D01*
D02*
G37*
G36*
X264678Y377177D02*
X264562Y377170D01*
X264528Y377156D01*
X264425Y377102D01*
X264412Y377088D01*
X264398Y377081D01*
X264378Y377061D01*
X264364Y377054D01*
X264347Y377037D01*
X264340Y377023D01*
X264279Y376962D01*
X264272Y376948D01*
X264231Y376859D01*
X264224Y376832D01*
X264217Y376743D01*
X264224Y376722D01*
X264231Y376675D01*
X264237Y376654D01*
X264255Y376610D01*
X264275Y376569D01*
X264309Y376514D01*
X264326Y376490D01*
X264347Y376469D01*
X264354Y376456D01*
X264378Y376439D01*
X264412Y376405D01*
X264425Y376398D01*
X264439Y376384D01*
X264542Y376336D01*
X264596Y376323D01*
X264665Y376316D01*
X264685Y376323D01*
X264740Y376329D01*
X264774Y376343D01*
X264801Y376350D01*
X264877Y376391D01*
X264914Y376422D01*
X264938Y376439D01*
X264983Y376483D01*
X264989Y376497D01*
X265003Y376511D01*
X265010Y376524D01*
X265037Y376565D01*
X265051Y376599D01*
X265065Y376647D01*
X265071Y376675D01*
X265078Y376722D01*
Y376777D01*
Y376784D01*
X265071Y376811D01*
X265065Y376866D01*
X265051Y376900D01*
X265003Y376989D01*
X264972Y377027D01*
X264911Y377088D01*
X264897Y377095D01*
X264856Y377122D01*
X264842Y377129D01*
X264794Y377150D01*
X264726Y377170D01*
X264678Y377177D01*
D02*
G37*
G36*
X256661Y377061D02*
X256592Y377054D01*
X256572Y377047D01*
X256527Y377030D01*
X256473Y376996D01*
X256463Y376986D01*
X256449Y376979D01*
X256432Y376962D01*
X256425Y376948D01*
X256404Y376927D01*
X256398Y376914D01*
X256350Y376811D01*
X256340Y376767D01*
X256336Y376606D01*
X256343Y376586D01*
X256350Y376558D01*
X256364Y376524D01*
X256398Y376463D01*
X256428Y376425D01*
X256476Y376377D01*
X256490Y376370D01*
X256579Y376329D01*
X256627Y376323D01*
X256654Y376316D01*
X256756Y376323D01*
X256791Y376336D01*
X256818Y376343D01*
X256893Y376384D01*
X256921Y376405D01*
X256924Y376408D01*
X256934Y376418D01*
X256948Y376425D01*
X256958Y376435D01*
X256965Y376449D01*
X256985Y376469D01*
X256992Y376483D01*
X257027Y376558D01*
X257037Y376603D01*
X257044Y376637D01*
X257047Y376709D01*
X257040Y376729D01*
X257030Y376781D01*
X257016Y376815D01*
X257006Y376839D01*
X256979Y376887D01*
X256965Y376900D01*
X256958Y376914D01*
X256893Y376979D01*
X256879Y376986D01*
X256838Y377013D01*
X256791Y377033D01*
X256756Y377047D01*
X256661Y377061D01*
D02*
G37*
G36*
X255711Y377033D02*
X255581Y377027D01*
X255499Y376999D01*
X255492D01*
X255451Y376972D01*
X255437Y376965D01*
X255379Y376907D01*
X255372Y376893D01*
X255331Y376804D01*
X255318Y376750D01*
X255311Y376661D01*
X255318Y376634D01*
X255325Y376572D01*
X255331Y376552D01*
X255345Y376517D01*
X255386Y376442D01*
X255417Y376405D01*
X255444Y376377D01*
X255458Y376370D01*
X255471Y376357D01*
X255519Y376336D01*
X255567Y376323D01*
X255649Y376309D01*
X255759Y376316D01*
X255793Y376329D01*
X255895Y376384D01*
X255909Y376398D01*
X255923Y376405D01*
X255960Y376442D01*
X255967Y376456D01*
X255981Y376469D01*
X255988Y376483D01*
X256029Y376572D01*
X256042Y376627D01*
X256035Y376791D01*
X256029Y376811D01*
X256015Y376846D01*
X256008Y376859D01*
X255974Y376907D01*
X255916Y376965D01*
X255902Y376972D01*
X255813Y377013D01*
X255759Y377027D01*
X255711Y377033D01*
D02*
G37*
G36*
X262163Y384450D02*
X262146Y384439D01*
X262153Y384426D01*
X262423Y384156D01*
X262436Y384149D01*
X262566Y384019D01*
X262580Y384012D01*
X262710Y383882D01*
X262723Y383875D01*
X263082Y383517D01*
X263089Y383503D01*
X263137Y383455D01*
X263144Y383441D01*
X263192Y383394D01*
X263198Y383380D01*
X263253Y383325D01*
X263260Y383312D01*
X263322Y383250D01*
X263328Y383236D01*
X263397Y383168D01*
X263404Y383154D01*
X263465Y383093D01*
X263472Y383079D01*
X263513Y383038D01*
X263520Y383024D01*
X263561Y382983D01*
X263568Y382970D01*
X263602Y382936D01*
X263609Y382922D01*
X263650Y382881D01*
X263656Y382867D01*
X263691Y382833D01*
X263698Y382819D01*
X263738Y382778D01*
X263745Y382765D01*
X263766Y382744D01*
X263773Y382731D01*
X263800Y382703D01*
X263807Y382689D01*
X263834Y382662D01*
X263841Y382648D01*
X263861Y382628D01*
X263868Y382614D01*
X263896Y382587D01*
X263903Y382573D01*
X263923Y382553D01*
X263930Y382539D01*
X263957Y382512D01*
X263964Y382498D01*
X263991Y382471D01*
X263998Y382457D01*
X264012Y382443D01*
X264019Y382430D01*
X264039Y382409D01*
X264046Y382396D01*
X264067Y382375D01*
X264073Y382361D01*
X264087Y382348D01*
X264094Y382334D01*
X264114Y382313D01*
X264121Y382300D01*
X264135Y382286D01*
X264142Y382273D01*
X264162Y382252D01*
X264169Y382238D01*
X264183Y382225D01*
X264190Y382211D01*
X264210Y382190D01*
X264217Y382177D01*
X264237Y382156D01*
X264244Y382143D01*
X264258Y382129D01*
X264265Y382115D01*
X264330Y382030D01*
X264347Y382006D01*
X264412Y381921D01*
X264668Y381562D01*
X264675Y381548D01*
X264689Y381534D01*
X264695Y381521D01*
X264730Y381473D01*
X264736Y381459D01*
X264805Y381364D01*
X264812Y381350D01*
X264846Y381302D01*
X264853Y381288D01*
X264887Y381240D01*
X264894Y381227D01*
X264928Y381179D01*
X264935Y381165D01*
X264969Y381117D01*
X264996Y381070D01*
X265023Y381029D01*
X265030Y381015D01*
X265065Y380967D01*
X265071Y380953D01*
X265167Y380803D01*
X265174Y380789D01*
X265201Y380748D01*
X265208Y380735D01*
X265242Y380680D01*
X265249Y380666D01*
X265276Y380625D01*
X265283Y380612D01*
X265317Y380557D01*
X265324Y380543D01*
X265352Y380502D01*
X265358Y380489D01*
X265386Y380441D01*
X265420Y380386D01*
X265454Y380325D01*
X265481Y380277D01*
X265516Y380222D01*
X265755Y379791D01*
X265816Y379675D01*
X265926Y379470D01*
X266308Y378698D01*
X266390Y378520D01*
X266438Y378417D01*
X266473Y378342D01*
X266609Y378035D01*
X266623Y378007D01*
X263458Y378001D01*
X263462Y377334D01*
X265669D01*
X266931Y377331D01*
X266937Y377201D01*
X266931Y376784D01*
X266924Y376764D01*
X266917Y376449D01*
X266924Y376162D01*
X266931Y376142D01*
X266941Y376083D01*
X266948Y376056D01*
X266982Y375960D01*
X266995Y375926D01*
X267060Y375806D01*
X267094Y375759D01*
X267101Y375745D01*
X267122Y375725D01*
X267129Y375711D01*
X267149Y375690D01*
X267156Y375677D01*
X267303Y375530D01*
X267317Y375523D01*
X267344Y375496D01*
X267358Y375489D01*
X267371Y375475D01*
X267385Y375468D01*
X267399Y375454D01*
X267412Y375448D01*
X267426Y375434D01*
X267440Y375427D01*
X267481Y375400D01*
X267494Y375393D01*
X267542Y375359D01*
X267549Y377450D01*
X267552Y378062D01*
X267546Y378083D01*
X267539Y378247D01*
X267532Y378267D01*
X267522Y378366D01*
X267501Y378489D01*
X267488Y378558D01*
X267460Y378667D01*
X267450Y378705D01*
X267406Y378831D01*
X267385Y378886D01*
X267330Y379009D01*
X267320Y379019D01*
X267265Y379122D01*
X267231Y379169D01*
X267224Y379183D01*
X267190Y379231D01*
X267183Y379245D01*
X267115Y379340D01*
X267108Y379354D01*
X267094Y379368D01*
X267088Y379381D01*
X267054Y379429D01*
X267047Y379443D01*
X266978Y379538D01*
X266971Y379552D01*
X266903Y379648D01*
X266896Y379661D01*
X266862Y379709D01*
X266855Y379723D01*
X266821Y379771D01*
X266814Y379785D01*
X266780Y379832D01*
X266773Y379846D01*
X266739Y379894D01*
X266732Y379908D01*
X266698Y379955D01*
X266691Y379969D01*
X266657Y380017D01*
X266650Y380031D01*
X266616Y380079D01*
X266609Y380092D01*
X266575Y380140D01*
X266568Y380154D01*
X266534Y380202D01*
X266507Y380249D01*
X266473Y380297D01*
X266466Y380311D01*
X266431Y380359D01*
X266425Y380372D01*
X266390Y380420D01*
X266384Y380434D01*
X266350Y380482D01*
X266343Y380495D01*
X266308Y380543D01*
X266281Y380591D01*
X266247Y380639D01*
X266240Y380653D01*
X266206Y380700D01*
X266199Y380714D01*
X266107Y380854D01*
X266079Y380895D01*
X266032Y380970D01*
X265950Y381094D01*
X265915Y381148D01*
X265724Y381435D01*
X265676Y381510D01*
X265625Y381582D01*
X265618Y381596D01*
X265584Y381644D01*
X265577Y381657D01*
X265543Y381705D01*
X265536Y381719D01*
X265502Y381767D01*
X265495Y381780D01*
X265461Y381828D01*
X265454Y381842D01*
X265441Y381856D01*
X265434Y381869D01*
X265335Y382002D01*
X265317Y382027D01*
X265270Y382088D01*
X265239Y382126D01*
X265222Y382150D01*
X265201Y382170D01*
X265194Y382184D01*
X265167Y382211D01*
X265160Y382225D01*
X265133Y382252D01*
X265126Y382266D01*
X265092Y382300D01*
X265085Y382313D01*
X265044Y382355D01*
X265037Y382368D01*
X264983Y382423D01*
X264976Y382437D01*
X264914Y382498D01*
X264907Y382512D01*
X264846Y382573D01*
X264839Y382587D01*
X264771Y382655D01*
X264764Y382669D01*
X264702Y382731D01*
X264695Y382744D01*
X264634Y382806D01*
X264627Y382819D01*
X264572Y382874D01*
X264566Y382888D01*
X264521Y382932D01*
X264511Y382894D01*
X264446Y382577D01*
X264439Y382542D01*
X264432Y382515D01*
X264419Y382447D01*
X264412Y382419D01*
X264405Y382385D01*
X264398Y382379D01*
X264279Y382498D01*
X264272Y382512D01*
X264244Y382539D01*
X264237Y382553D01*
X264210Y382580D01*
X264203Y382594D01*
X264176Y382621D01*
X264169Y382635D01*
X264104Y382720D01*
X264019Y382840D01*
X264012Y382854D01*
X263879Y383035D01*
X263861Y383059D01*
X263848Y383072D01*
X263841Y383086D01*
X263827Y383100D01*
X263821Y383113D01*
X263800Y383134D01*
X263793Y383147D01*
X263766Y383175D01*
X263759Y383188D01*
X263732Y383216D01*
X263725Y383229D01*
X263698Y383257D01*
X263691Y383270D01*
X263643Y383318D01*
X263636Y383332D01*
X263554Y383414D01*
X263547Y383428D01*
X263284Y383691D01*
X263270Y383698D01*
X263216Y383752D01*
X263202Y383759D01*
X263141Y383821D01*
X263127Y383827D01*
X263093Y383862D01*
X263079Y383869D01*
X263045Y383903D01*
X263031Y383910D01*
X263004Y383937D01*
X262990Y383944D01*
X262963Y383971D01*
X262949Y383978D01*
X262922Y384005D01*
X262908Y384012D01*
X262888Y384033D01*
X262874Y384039D01*
X262853Y384060D01*
X262840Y384067D01*
X262826Y384080D01*
X262812Y384087D01*
X262792Y384108D01*
X262778Y384115D01*
X262758Y384135D01*
X262744Y384142D01*
X262730Y384156D01*
X262717Y384162D01*
X262703Y384176D01*
X262689Y384183D01*
X262676Y384197D01*
X262662Y384203D01*
X262648Y384217D01*
X262635Y384224D01*
X262621Y384238D01*
X262607Y384244D01*
X262522Y384309D01*
X262481Y384337D01*
X262471Y384347D01*
X262457Y384354D01*
X262402Y384388D01*
X262354Y384408D01*
X262320Y384422D01*
X262272Y384436D01*
X262225Y384443D01*
X262163Y384450D01*
D02*
G37*
G36*
X263052Y378312D02*
X261223Y378308D01*
X261227Y374956D01*
X263055Y374959D01*
Y375007D01*
Y375014D01*
X263052Y378312D01*
D02*
G37*
G36*
X255635Y375038D02*
X255598Y375007D01*
X255574Y374990D01*
X255512Y374942D01*
X255475Y374911D01*
X255434Y374877D01*
X255410Y374860D01*
X255396Y374846D01*
X255383Y374839D01*
X255355Y374812D01*
X255342Y374805D01*
X255338Y374754D01*
Y374747D01*
X255345Y374645D01*
X255369Y374621D01*
X255383Y374614D01*
X255396Y374600D01*
X255410Y374593D01*
X255424Y374580D01*
X255437Y374573D01*
X255451Y374559D01*
X255465Y374552D01*
X255512Y374518D01*
X255656Y374450D01*
X255711Y374436D01*
X255755Y374433D01*
X255810Y374440D01*
X255837Y374446D01*
X255906Y374487D01*
X255953Y374535D01*
X255974Y374583D01*
X255981Y374610D01*
X255988Y374658D01*
X255977Y374723D01*
X255964Y374757D01*
X255923Y374826D01*
X255906Y374843D01*
X255899Y374856D01*
X255847Y374908D01*
X255834Y374915D01*
X255813Y374935D01*
X255800Y374942D01*
X255786Y374956D01*
X255772Y374962D01*
X255759Y374976D01*
X255697Y375010D01*
X255635Y375038D01*
D02*
G37*
G36*
X266961Y375427D02*
X266954Y375366D01*
X266951Y375075D01*
X266958Y375068D01*
X266961Y375065D01*
X266975Y375058D01*
X267030Y375003D01*
X267043Y374997D01*
X267091Y374949D01*
X267105Y374942D01*
X267153Y374894D01*
X267166Y374887D01*
X267194Y374860D01*
X267207Y374853D01*
X267235Y374826D01*
X267248Y374819D01*
X267283Y374785D01*
X267296Y374778D01*
X267323Y374750D01*
X267337Y374744D01*
X267358Y374723D01*
X267371Y374716D01*
X267392Y374696D01*
X267406Y374689D01*
X267426Y374669D01*
X267440Y374662D01*
X267453Y374648D01*
X267467Y374641D01*
X267488Y374621D01*
X267501Y374614D01*
X267522Y374593D01*
X267535Y374587D01*
X267549Y374573D01*
X267563Y374566D01*
X267576Y374552D01*
X267590Y374546D01*
X267604Y374532D01*
X267617Y374525D01*
X267631Y374511D01*
X267645Y374504D01*
X267658Y374491D01*
X267672Y374484D01*
X267686Y374470D01*
X267699Y374464D01*
X267713Y374450D01*
X267727Y374443D01*
X267741Y374429D01*
X267758Y374426D01*
X267751Y374474D01*
X267734Y374552D01*
X267720Y374607D01*
X267710Y374645D01*
X267693Y374689D01*
X267672Y374744D01*
X267658Y374778D01*
X267607Y374877D01*
X267573Y374932D01*
X267566Y374945D01*
X267484Y375055D01*
X267453Y375092D01*
X267402Y375144D01*
X267395Y375157D01*
X267385Y375167D01*
X267371Y375174D01*
X267323Y375222D01*
X267310Y375229D01*
X267289Y375250D01*
X267276Y375256D01*
X267262Y375270D01*
X267248Y375277D01*
X267200Y375311D01*
X267187Y375318D01*
X267132Y375352D01*
X267119Y375359D01*
X267016Y375407D01*
X266982Y375420D01*
X266961Y375427D01*
D02*
G37*
G36*
X260194Y374252D02*
X260184Y374248D01*
X260198Y374235D01*
X260205Y374221D01*
X260239Y374173D01*
X260246Y374159D01*
X260280Y374111D01*
X260287Y374098D01*
X260300Y374084D01*
X260307Y374070D01*
X260342Y374023D01*
X260348Y374009D01*
X260383Y373961D01*
X260389Y373947D01*
X260423Y373900D01*
X260430Y373886D01*
X260465Y373838D01*
X260471Y373824D01*
X260506Y373777D01*
X260512Y373763D01*
X260546Y373715D01*
X260553Y373701D01*
X260588Y373654D01*
X260594Y373640D01*
X260663Y373544D01*
X260670Y373531D01*
X260738Y373435D01*
X260745Y373421D01*
X260813Y373325D01*
X260820Y373312D01*
X260834Y373298D01*
X260840Y373284D01*
X260875Y373236D01*
X260881Y373223D01*
X260895Y373209D01*
X260902Y373196D01*
X260936Y373148D01*
X260943Y373134D01*
X261008Y373042D01*
X261011Y373045D01*
X261004Y373066D01*
X260991Y373113D01*
X260946Y373240D01*
X260919Y373308D01*
X260885Y373383D01*
X260786Y373571D01*
X260762Y373609D01*
X260758Y373612D01*
X260752Y373626D01*
X260717Y373674D01*
X260711Y373688D01*
X260612Y373821D01*
X260601Y373831D01*
X260594Y373845D01*
X260581Y373859D01*
X260574Y373872D01*
X260540Y373906D01*
X260533Y373920D01*
X260485Y373968D01*
X260478Y373982D01*
X260304Y374156D01*
X260290Y374163D01*
X260249Y374204D01*
X260236Y374211D01*
X260194Y374252D01*
D02*
G37*
G36*
X262136Y370110D02*
X262115Y370103D01*
X262074Y370096D01*
X261999Y370055D01*
X261948Y370004D01*
X261941Y369990D01*
X261907Y369915D01*
X261896Y369870D01*
X261893Y369751D01*
X261900Y369730D01*
X261910Y369686D01*
X261924Y369652D01*
X261965Y369583D01*
X261996Y369552D01*
X261999Y369549D01*
X262013Y369535D01*
X262026Y369529D01*
X262102Y369494D01*
X262170Y369488D01*
X262218Y369494D01*
X262303Y369525D01*
X262371Y369566D01*
X262395Y369583D01*
X262457Y369631D01*
X262494Y369662D01*
X262519Y369679D01*
X262539Y369699D01*
X262553Y369706D01*
X262590Y369737D01*
X262580Y369822D01*
X262570Y369874D01*
X262560Y369884D01*
X262546Y369891D01*
X262532Y369904D01*
X262519Y369911D01*
X262505Y369925D01*
X262491Y369932D01*
X262471Y369952D01*
X262457Y369959D01*
X262443Y369973D01*
X262430Y369980D01*
X262409Y370000D01*
X262395Y370007D01*
X262327Y370055D01*
X262252Y370089D01*
X262204Y370103D01*
X262136Y370110D01*
D02*
G37*
G36*
X265157Y374826D02*
X265136Y374819D01*
X264993Y374812D01*
X264972Y374805D01*
X264914Y374795D01*
X264805Y374768D01*
X264767Y374757D01*
X264682Y374727D01*
X264648Y374713D01*
X264593Y374692D01*
X264559Y374679D01*
X264398Y374600D01*
X264302Y374546D01*
X264255Y374511D01*
X264241Y374504D01*
X264176Y374460D01*
X264152Y374443D01*
X264067Y374378D01*
X264043Y374361D01*
X264022Y374340D01*
X264008Y374334D01*
X263981Y374306D01*
X263967Y374299D01*
X263892Y374224D01*
X263879Y374217D01*
X263807Y374146D01*
X263800Y374132D01*
X263725Y374057D01*
X263718Y374043D01*
X263684Y374009D01*
X263677Y373995D01*
X263650Y373968D01*
X263643Y373954D01*
X263622Y373934D01*
X263615Y373920D01*
X263602Y373906D01*
X263595Y373893D01*
X263575Y373872D01*
X263568Y373859D01*
X263465Y373715D01*
X263458Y373701D01*
X263390Y373592D01*
X263383Y373578D01*
X263349Y373524D01*
X263185Y373189D01*
X263158Y373120D01*
X263137Y373073D01*
X263075Y372881D01*
X263048Y372785D01*
X263028Y372703D01*
X263011Y372625D01*
X263004Y372591D01*
X262983Y372468D01*
X262976Y372413D01*
X262963Y372290D01*
X262956Y372181D01*
X262952Y371822D01*
X262959Y371801D01*
X262970Y371641D01*
X262987Y371487D01*
X262994Y371459D01*
X263004Y371394D01*
X263011Y371360D01*
X263017Y371319D01*
X263031Y371251D01*
X263038Y371224D01*
X263045Y371189D01*
X263072Y371080D01*
X263082Y371042D01*
X263096Y370988D01*
X263137Y370858D01*
X263175Y370752D01*
X263202Y370677D01*
X263226Y370619D01*
X263349Y370379D01*
X263383Y370332D01*
X263410Y370284D01*
X263509Y370150D01*
X263520Y370140D01*
X263527Y370127D01*
X263547Y370106D01*
X263554Y370092D01*
X263602Y370045D01*
X263609Y370031D01*
X263749Y369891D01*
X263762Y369884D01*
X263810Y369836D01*
X263824Y369829D01*
X263844Y369809D01*
X263858Y369802D01*
X263879Y369781D01*
X263892Y369775D01*
X263906Y369761D01*
X263920Y369754D01*
X263933Y369740D01*
X263947Y369734D01*
X263961Y369720D01*
X263974Y369713D01*
X264022Y369679D01*
X264036Y369672D01*
X264111Y369624D01*
X264186Y369583D01*
X264343Y369508D01*
X264391Y369488D01*
X264425Y369474D01*
X264566Y369423D01*
X264603Y369412D01*
X264754Y369365D01*
X264781Y369358D01*
X264877Y369330D01*
X264959Y369310D01*
X265003Y369300D01*
X265037Y369293D01*
X265065Y369286D01*
X265099Y369279D01*
X265222Y369258D01*
X265276Y369252D01*
X265338Y369245D01*
X265413Y369238D01*
X265738Y369235D01*
X265758Y369241D01*
X265905Y369252D01*
X265960Y369258D01*
X266090Y369279D01*
X266131Y369286D01*
X266199Y369300D01*
X266363Y369341D01*
X266401Y369351D01*
X266469Y369371D01*
X266609Y369423D01*
X266654Y369440D01*
X266660D01*
X266722Y369467D01*
X266756Y369481D01*
X267050Y369631D01*
X267091Y369658D01*
X267105Y369665D01*
X267146Y369693D01*
X267160Y369699D01*
X267255Y369768D01*
X267269Y369775D01*
X267283Y369788D01*
X267296Y369795D01*
X267310Y369809D01*
X267323Y369816D01*
X267337Y369829D01*
X267351Y369836D01*
X267371Y369857D01*
X267385Y369863D01*
X267399Y369877D01*
X267412Y369884D01*
X267453Y369925D01*
X267467Y369932D01*
X267515Y369980D01*
X267529Y369987D01*
X267648Y370106D01*
X267655Y370120D01*
X267717Y370181D01*
X267723Y370195D01*
X267751Y370222D01*
X267758Y370236D01*
X267778Y370256D01*
X267785Y370270D01*
X267805Y370291D01*
X267812Y370304D01*
X267826Y370318D01*
X267833Y370332D01*
X267846Y370345D01*
X267853Y370359D01*
X267935Y370475D01*
X267942Y370489D01*
X267969Y370530D01*
X267976Y370544D01*
X268024Y370619D01*
X268133Y370844D01*
X268161Y370906D01*
X268175Y370940D01*
X268192Y370984D01*
X268212Y371039D01*
X268236Y371118D01*
X268270Y371227D01*
X268304Y371364D01*
X268315Y371408D01*
X268321Y371449D01*
X268328Y371483D01*
X268342Y371565D01*
X268349Y371620D01*
X268362Y371743D01*
X268369Y371866D01*
X268373Y372081D01*
X268366Y372102D01*
X268359Y372259D01*
X268352Y372280D01*
X268342Y372372D01*
X268321Y372495D01*
X268315Y372522D01*
X268308Y372556D01*
X268294Y372611D01*
X268287Y372645D01*
X268277Y372683D01*
X268263Y372731D01*
X268198Y372919D01*
X268157Y373021D01*
X268123Y373096D01*
X268092Y373161D01*
X268031Y373278D01*
X268004Y373325D01*
X267969Y373380D01*
X267963Y373394D01*
X267928Y373442D01*
X267908Y373476D01*
X267874Y373524D01*
X267867Y373537D01*
X267853Y373551D01*
X267846Y373565D01*
X267833Y373578D01*
X267826Y373592D01*
X267812Y373606D01*
X267805Y373619D01*
X267792Y373633D01*
X267785Y373647D01*
X267764Y373667D01*
X267758Y373681D01*
X267730Y373708D01*
X267723Y373722D01*
X267689Y373756D01*
X267682Y373770D01*
X267614Y373838D01*
X267607Y373852D01*
X267508Y373951D01*
X267494Y373958D01*
X267426Y374026D01*
X267412Y374033D01*
X267378Y374067D01*
X267365Y374074D01*
X267337Y374101D01*
X267323Y374108D01*
X267303Y374129D01*
X267289Y374135D01*
X267269Y374156D01*
X267255Y374163D01*
X267242Y374176D01*
X267228Y374183D01*
X267214Y374197D01*
X267200Y374204D01*
X267057Y374306D01*
X267009Y374334D01*
X266934Y374381D01*
X266920Y374388D01*
X266859Y374422D01*
X266565Y374566D01*
X266517Y374587D01*
X266449Y374614D01*
X266404Y374631D01*
X266350Y374651D01*
X266312Y374662D01*
X266203Y374696D01*
X266107Y374723D01*
X265970Y374757D01*
X265854Y374778D01*
X265827Y374785D01*
X265762Y374795D01*
X265652Y374809D01*
X265584Y374816D01*
X265488Y374822D01*
X265157Y374826D01*
D02*
G37*
G36*
X258042Y374785D02*
X257741Y374778D01*
X257720Y374771D01*
X257611Y374764D01*
X257590Y374757D01*
X257512Y374747D01*
X257478Y374740D01*
X257437Y374733D01*
X257382Y374720D01*
X257348Y374713D01*
X257320Y374706D01*
X257170Y374651D01*
X257033Y374597D01*
X256996Y374580D01*
X256893Y374532D01*
X256736Y374450D01*
X256681Y374416D01*
X256620Y374381D01*
X256572Y374347D01*
X256558Y374340D01*
X256493Y374296D01*
X256452Y374269D01*
X256442Y374258D01*
X256428Y374252D01*
X256415Y374238D01*
X256401Y374231D01*
X256387Y374217D01*
X256374Y374211D01*
X256360Y374197D01*
X256346Y374190D01*
X256326Y374169D01*
X256312Y374163D01*
X256285Y374135D01*
X256271Y374129D01*
X256237Y374094D01*
X256223Y374088D01*
X256022Y373886D01*
X256015Y373872D01*
X255974Y373831D01*
X255967Y373817D01*
X255946Y373797D01*
X255940Y373783D01*
X255919Y373763D01*
X255912Y373749D01*
X255892Y373729D01*
X255885Y373715D01*
X255817Y373619D01*
X255810Y373606D01*
X255783Y373565D01*
X255776Y373551D01*
X255748Y373510D01*
X255742Y373496D01*
X255687Y373401D01*
X255591Y373202D01*
X255550Y373107D01*
X255526Y373042D01*
X255489Y372922D01*
X255468Y372854D01*
X255454Y372806D01*
X255434Y372724D01*
X255424Y372679D01*
X255410Y372611D01*
X255403Y372570D01*
X255396Y372536D01*
X255379Y372396D01*
X255372Y372369D01*
X255362Y372235D01*
X255359Y371822D01*
X255365Y371801D01*
X255372Y371651D01*
X255379Y371630D01*
X255389Y371538D01*
X255403Y371449D01*
X255410Y371408D01*
X255417Y371374D01*
X255424Y371333D01*
X255431Y371299D01*
X255437Y371271D01*
X255444Y371237D01*
X255451Y371210D01*
X255458Y371176D01*
X255465Y371148D01*
X255475Y371111D01*
X255482Y371083D01*
X255540Y370916D01*
X255554Y370882D01*
X255574Y370827D01*
X255608Y370752D01*
X255622Y370718D01*
X255724Y370526D01*
X255772Y370451D01*
X255806Y370397D01*
X255834Y370356D01*
X255851Y370332D01*
X255933Y370222D01*
X255964Y370185D01*
X255981Y370161D01*
X255994Y370147D01*
X256001Y370133D01*
X256049Y370086D01*
X256056Y370072D01*
X256251Y369877D01*
X256264Y369870D01*
X256298Y369836D01*
X256312Y369829D01*
X256340Y369802D01*
X256353Y369795D01*
X256381Y369768D01*
X256394Y369761D01*
X256408Y369747D01*
X256422Y369740D01*
X256435Y369727D01*
X256449Y369720D01*
X256463Y369706D01*
X256476Y369699D01*
X256572Y369631D01*
X256620Y369604D01*
X256661Y369576D01*
X256750Y369529D01*
X256975Y369419D01*
X257023Y369399D01*
X257067Y369382D01*
X257187Y369344D01*
X257190Y369341D01*
X257249Y369323D01*
X257392Y369283D01*
X257437Y369272D01*
X257464Y369265D01*
X257498Y369258D01*
X257580Y369245D01*
X257672Y369235D01*
X257720Y369228D01*
X257871Y369221D01*
X258192Y369228D01*
X258212Y369235D01*
X258312Y369245D01*
X258400Y369258D01*
X258523Y369279D01*
X258558Y369286D01*
X258585Y369293D01*
X258619Y369300D01*
X258646Y369306D01*
X258681Y369313D01*
X258708Y369320D01*
X258845Y369368D01*
X258913Y369395D01*
X258988Y369429D01*
X259193Y369539D01*
X259268Y369587D01*
X259350Y369641D01*
X259374Y369658D01*
X259460Y369723D01*
X259528Y369778D01*
X259538Y369788D01*
X259552Y369795D01*
X259586Y369829D01*
X259600Y369836D01*
X259655Y369891D01*
X259668Y369898D01*
X259836Y370065D01*
X259842Y370079D01*
X259925Y370161D01*
X259931Y370174D01*
X259959Y370202D01*
X259965Y370216D01*
X260000Y370250D01*
X260007Y370263D01*
X260085Y370342D01*
X260099Y370349D01*
X260239Y370489D01*
X260246Y370502D01*
X260287Y370544D01*
X260294Y370557D01*
X260314Y370578D01*
X260321Y370591D01*
X260335Y370605D01*
X260342Y370619D01*
X260355Y370632D01*
X260362Y370646D01*
X260376Y370660D01*
X260383Y370673D01*
X260417Y370721D01*
X260423Y370735D01*
X260451Y370776D01*
X260458Y370790D01*
X260492Y370844D01*
X260594Y371056D01*
X260615Y371104D01*
X260629Y371138D01*
X260646Y371183D01*
X260683Y371302D01*
X260711Y371398D01*
X260731Y371480D01*
X260758Y371630D01*
X260765Y371678D01*
X260772Y371706D01*
X260782Y371811D01*
X260789Y371900D01*
X260793Y372218D01*
X260786Y372239D01*
X260779Y372375D01*
X260772Y372396D01*
X260765Y372478D01*
X260758Y372498D01*
X260748Y372570D01*
X260735Y372639D01*
X260728Y372666D01*
X260714Y372734D01*
X260673Y372844D01*
X260646Y372912D01*
X260612Y372987D01*
X260598Y373021D01*
X260523Y373172D01*
X260441Y373322D01*
X260400Y373390D01*
X260365Y373445D01*
X260338Y373486D01*
X260304Y373541D01*
X260260Y373599D01*
X260253Y373612D01*
X260188Y373698D01*
X260177Y373708D01*
X260171Y373722D01*
X260150Y373742D01*
X260143Y373756D01*
X260123Y373777D01*
X260116Y373790D01*
X260075Y373831D01*
X260068Y373845D01*
X260027Y373886D01*
X260020Y373900D01*
X259901Y374019D01*
X259887Y374026D01*
X259812Y374101D01*
X259798Y374108D01*
X259778Y374129D01*
X259764Y374135D01*
X259737Y374163D01*
X259723Y374169D01*
X259702Y374190D01*
X259689Y374197D01*
X259675Y374211D01*
X259661Y374217D01*
X259648Y374231D01*
X259634Y374238D01*
X259538Y374306D01*
X259525Y374313D01*
X259450Y374361D01*
X259436Y374368D01*
X259374Y374402D01*
X259135Y374518D01*
X259074Y374546D01*
X259039Y374559D01*
X258992Y374580D01*
X258957Y374593D01*
X258892Y374617D01*
X258773Y374655D01*
X258704Y374675D01*
X258677Y374682D01*
X258629Y374696D01*
X258575Y374710D01*
X258530Y374720D01*
X258394Y374747D01*
X258339Y374754D01*
X258246Y374764D01*
X258219Y374771D01*
X258069Y374778D01*
X258042Y374785D01*
D02*
G37*
G36*
X263318Y369392D02*
X263291Y369385D01*
X263274Y369361D01*
X263233Y369320D01*
X263226Y369306D01*
X263178Y369258D01*
X263175Y369248D01*
X263171Y369245D01*
X263144Y369217D01*
X263137Y369204D01*
X263117Y369183D01*
X263110Y369170D01*
X263096Y369156D01*
X263089Y369142D01*
X263062Y369101D01*
X263052Y369064D01*
X263045Y369030D01*
X263041Y368951D01*
X263048Y368931D01*
X263058Y368893D01*
X263072Y368859D01*
X263106Y368804D01*
X263117Y368794D01*
X263123Y368780D01*
X263141Y368763D01*
X263154Y368756D01*
X263168Y368742D01*
X263229Y368715D01*
X263274Y368705D01*
X263352Y368702D01*
X263373Y368708D01*
X263427Y368729D01*
X263513Y368787D01*
X263595Y368869D01*
X263602Y368883D01*
X263615Y368896D01*
X263622Y368910D01*
X263636Y368924D01*
X263629Y368971D01*
X263622Y369026D01*
X263615Y369047D01*
X263598Y369091D01*
X263571Y369159D01*
X263561Y369170D01*
X263533Y369217D01*
X263486Y369279D01*
X263434Y369330D01*
X263421Y369337D01*
X263407Y369351D01*
X263318Y369392D01*
D02*
G37*
G36*
X259217Y369146D02*
X259207Y369142D01*
X259200Y369129D01*
X259186Y369115D01*
X259179Y369101D01*
X259152Y369074D01*
X259145Y369060D01*
X259111Y369026D01*
X259104Y369012D01*
X259070Y368978D01*
X259063Y368965D01*
X259029Y368917D01*
X259009Y368848D01*
X259015Y368801D01*
X259046Y368756D01*
X259060Y368749D01*
X259101Y368708D01*
X259115Y368702D01*
X259162Y368681D01*
X259190Y368674D01*
X259238Y368681D01*
X259299Y368715D01*
X259330Y368746D01*
X259337Y368760D01*
X259364Y368787D01*
X259385Y368835D01*
X259378Y368917D01*
X259344Y368978D01*
X259330Y368992D01*
X259323Y369006D01*
X259309Y369019D01*
X259303Y369033D01*
X259299Y369036D01*
X259296Y369040D01*
X259265Y369077D01*
X259248Y369101D01*
X259217Y369146D01*
D02*
G37*
G36*
X255581Y369180D02*
X255519Y369173D01*
X255499Y369166D01*
X255451Y369139D01*
X255413Y369108D01*
X255379Y369074D01*
X255372Y369060D01*
X255338Y368985D01*
X255331Y368958D01*
X255325Y368889D01*
X255331Y368862D01*
X255342Y368825D01*
X255355Y368790D01*
X255386Y368732D01*
X255454Y368630D01*
X255519Y368544D01*
X255536Y368520D01*
X255601Y368435D01*
X255612Y368425D01*
X255618Y368411D01*
X255622Y368408D01*
X255656Y368449D01*
X255721Y368513D01*
X255728Y368527D01*
X255823Y368623D01*
X255830Y368636D01*
X255878Y368684D01*
X255885Y368698D01*
X255906Y368719D01*
X255912Y368732D01*
X255926Y368746D01*
X255933Y368760D01*
X255953Y368794D01*
X255946Y368814D01*
X255936Y368865D01*
X255923Y368900D01*
X255906Y368931D01*
Y368937D01*
X255861Y369002D01*
X255851Y369012D01*
X255844Y369026D01*
X255793Y369077D01*
X255779Y369084D01*
X255759Y369105D01*
X255745Y369112D01*
X255704Y369139D01*
X255629Y369173D01*
X255581Y369180D01*
D02*
G37*
G36*
X255950Y364881D02*
X255882Y364874D01*
X255847Y364860D01*
X255786Y364826D01*
X255735Y364775D01*
X255728Y364761D01*
X255694Y364686D01*
X255687Y364658D01*
X255680Y364611D01*
X255687Y364488D01*
X255700Y364454D01*
X255742Y364378D01*
X255772Y364341D01*
X255786Y364334D01*
X255800Y364320D01*
X255813Y364313D01*
X255847Y364300D01*
X255895Y364286D01*
X255991Y364293D01*
X256039Y364313D01*
X256104Y364337D01*
X256138Y364351D01*
X256189Y364375D01*
X256251Y364409D01*
X256254Y364412D01*
X256278Y364430D01*
X256336Y364488D01*
X256357Y364535D01*
X256364Y364563D01*
X256357Y364624D01*
X256319Y364662D01*
X256305Y364669D01*
X256237Y364737D01*
X256223Y364744D01*
X256196Y364771D01*
X256182Y364778D01*
X256169Y364792D01*
X256155Y364799D01*
X256107Y364833D01*
X256059Y364853D01*
X256025Y364867D01*
X255977Y364874D01*
X255950Y364881D01*
D02*
G37*
G36*
X264063Y365366D02*
X264060Y363818D01*
Y363811D01*
X264063Y363459D01*
X264962Y363462D01*
X264959Y365359D01*
X264063Y365366D01*
D02*
G37*
G36*
X258998Y365380D02*
X258079Y365376D01*
X258083Y363445D01*
X258855D01*
X259002Y363449D01*
X258998Y365380D01*
D02*
G37*
G36*
X256217Y363814D02*
X256182Y363794D01*
X256145Y363763D01*
X256121Y363746D01*
X256107Y363732D01*
X256104Y363729D01*
X256063Y363695D01*
X256015Y363647D01*
X256008Y363633D01*
X255994Y363620D01*
X255960Y363544D01*
X255967Y363531D01*
X255994Y363503D01*
X256001Y363490D01*
X256063Y363428D01*
X256070Y363415D01*
X256217Y363268D01*
X256227Y363271D01*
X256350Y363510D01*
X256394Y363602D01*
X256360Y363644D01*
X256343Y363667D01*
X256323Y363688D01*
X256316Y363702D01*
X256281Y363736D01*
X256275Y363750D01*
X256240Y363784D01*
X256234Y363797D01*
X256217Y363814D01*
D02*
G37*
G36*
X263592Y366514D02*
X262693Y366511D01*
X262696Y362311D01*
X263595Y362314D01*
Y363373D01*
Y363380D01*
X263592Y366514D01*
D02*
G37*
G36*
X262033D02*
X261134Y366511D01*
Y363750D01*
Y363743D01*
X261138Y362311D01*
X262037Y362314D01*
X262033Y366514D01*
D02*
G37*
G36*
X260475Y366548D02*
X259556Y366545D01*
X259559Y362277D01*
X260478Y362280D01*
Y364658D01*
Y364665D01*
X260475Y366548D01*
D02*
G37*
G36*
X259672Y362054D02*
X259665Y362048D01*
X259661Y362044D01*
X259542Y361925D01*
X259535Y361911D01*
X259460Y361836D01*
X259453Y361822D01*
X259439Y361808D01*
X259525Y361723D01*
X259538Y361716D01*
X259586Y361668D01*
X259600Y361661D01*
X259613Y361648D01*
X259627Y361641D01*
X259668Y361613D01*
X259716Y361593D01*
X259730Y361607D01*
X259791Y361641D01*
X259839Y361675D01*
X259853Y361682D01*
X259901Y361716D01*
X259914Y361723D01*
X259928Y361736D01*
X259942Y361743D01*
X260041Y361815D01*
X260037Y361825D01*
X260024Y361832D01*
X260010Y361846D01*
X259996Y361853D01*
X259983Y361866D01*
X259969Y361873D01*
X259873Y361942D01*
X259860Y361948D01*
X259784Y361996D01*
X259771Y362003D01*
X259709Y362037D01*
X259672Y362054D01*
D02*
G37*
G36*
X258725Y361880D02*
X258711Y361873D01*
X258664Y361839D01*
X258650Y361832D01*
X258517Y361733D01*
X258493Y361716D01*
X258455Y361685D01*
X258407Y361651D01*
X258462Y361596D01*
X258469Y361583D01*
X258595Y361456D01*
X258609Y361449D01*
X258629Y361429D01*
X258670Y361408D01*
X258855Y361504D01*
X258910Y361538D01*
X258923Y361545D01*
X258971Y361573D01*
X259009Y361596D01*
X259002Y361610D01*
X258821Y361791D01*
X258817Y361795D01*
X258800Y361812D01*
X258787Y361819D01*
X258725Y361880D01*
D02*
G37*
%LPD*%
G36*
X266264Y373274D02*
X266387Y373267D01*
X266408Y373260D01*
X266486Y373243D01*
X266514Y373236D01*
X266551Y373226D01*
X266596Y373209D01*
X266650Y373189D01*
X266684Y373175D01*
X266845Y373090D01*
X266893Y373055D01*
X266907Y373049D01*
X266920Y373035D01*
X266934Y373028D01*
X266971Y372997D01*
X266995Y372980D01*
X267023Y372953D01*
X267037Y372946D01*
X267129Y372854D01*
X267136Y372840D01*
X267170Y372806D01*
X267177Y372792D01*
X267197Y372772D01*
X267204Y372758D01*
X267218Y372744D01*
Y372738D01*
X267231Y372724D01*
X267238Y372710D01*
X267272Y372662D01*
X267354Y372492D01*
X267368Y372457D01*
X267395Y372369D01*
X267409Y372314D01*
X267423Y372232D01*
X267429Y372184D01*
X267423Y371958D01*
X267416Y371938D01*
X267399Y371852D01*
X267389Y371815D01*
X267358Y371729D01*
X267337Y371675D01*
X267296Y371593D01*
X267228Y371477D01*
X267218Y371466D01*
X267211Y371453D01*
X267163Y371391D01*
X267132Y371354D01*
X267122Y371343D01*
X267115Y371330D01*
X267030Y371244D01*
X267016Y371237D01*
X266989Y371210D01*
X266975Y371203D01*
X266948Y371176D01*
X266934Y371169D01*
X266845Y371107D01*
X266831Y371101D01*
X266784Y371073D01*
X266667Y371019D01*
X266633Y371005D01*
X266544Y370978D01*
X266490Y370964D01*
X266408Y370950D01*
X266360Y370943D01*
X266274Y370933D01*
X266100Y370930D01*
X266079Y370936D01*
X266011Y370943D01*
X265991Y370950D01*
X265919Y370967D01*
X265892Y370974D01*
X265857Y370988D01*
X265803Y371008D01*
X265769Y371022D01*
X265669Y371073D01*
X265622Y371107D01*
X265574Y371135D01*
X265560Y371148D01*
X265546Y371155D01*
X265526Y371176D01*
X265512Y371183D01*
X265492Y371203D01*
X265478Y371210D01*
X265365Y371323D01*
X265358Y371336D01*
X265324Y371371D01*
X265317Y371384D01*
X265304Y371398D01*
X265297Y371412D01*
X265235Y371500D01*
X265229Y371514D01*
X265146Y371685D01*
X265112Y371794D01*
X265099Y371849D01*
X265092Y371897D01*
X265085Y371924D01*
X265078Y372054D01*
X265071Y372122D01*
X265078Y372150D01*
X265085Y372280D01*
X265092Y372300D01*
X265116Y372406D01*
X265123Y372433D01*
X265150Y372509D01*
X265177Y372577D01*
X265229Y372676D01*
X265256Y372724D01*
X265290Y372772D01*
X265297Y372785D01*
X265311Y372799D01*
X265317Y372813D01*
X265331Y372827D01*
X265338Y372840D01*
X265358Y372861D01*
X265365Y372874D01*
X265498Y373008D01*
X265512Y373014D01*
X265533Y373035D01*
X265546Y373042D01*
X265560Y373055D01*
X265574Y373062D01*
X265587Y373076D01*
X265601Y373083D01*
X265642Y373110D01*
X265656Y373117D01*
X265731Y373158D01*
X265792Y373185D01*
X265840Y373206D01*
X265905Y373230D01*
X265933Y373236D01*
X265970Y373247D01*
X265998Y373254D01*
X266079Y373267D01*
X266127Y373274D01*
X266244Y373281D01*
X266264Y373274D01*
D02*
G37*
G36*
X258704Y373240D02*
X258725Y373233D01*
X258783Y373223D01*
X258810Y373216D01*
X258845Y373209D01*
X258961Y373168D01*
X258995Y373154D01*
X259070Y373120D01*
X259121Y373090D01*
X259135Y373083D01*
X259221Y373025D01*
X259244Y373008D01*
X259306Y372960D01*
X259333Y372932D01*
X259347Y372926D01*
X259412Y372861D01*
X259419Y372847D01*
X259460Y372806D01*
X259467Y372792D01*
X259487Y372772D01*
X259494Y372758D01*
X259508Y372744D01*
X259514Y372731D01*
X259549Y372683D01*
X259637Y372498D01*
X259672Y372389D01*
X259679Y372362D01*
X259692Y372280D01*
X259699Y372252D01*
X259709Y372187D01*
X259716Y372078D01*
X259719Y372054D01*
X259713Y372034D01*
X259706Y371911D01*
X259699Y371890D01*
X259682Y371805D01*
X259665Y371746D01*
X259651Y371712D01*
X259634Y371668D01*
X259620Y371634D01*
X259617Y371630D01*
X259549Y371500D01*
X259514Y371453D01*
X259508Y371439D01*
X259460Y371377D01*
X259429Y371340D01*
X259412Y371323D01*
X259405Y371309D01*
X259327Y371231D01*
X259313Y371224D01*
X259279Y371189D01*
X259265Y371183D01*
X259251Y371169D01*
X259238Y371162D01*
X259224Y371148D01*
X259210Y371142D01*
X259197Y371128D01*
X259183Y371121D01*
X259142Y371094D01*
X259128Y371087D01*
X259080Y371060D01*
X258964Y371005D01*
X258930Y370991D01*
X258862Y370971D01*
X258814Y370957D01*
X258787Y370950D01*
X258704Y370936D01*
X258636Y370930D01*
X258411Y370936D01*
X258390Y370943D01*
X258308Y370950D01*
X258288Y370957D01*
X258243Y370967D01*
X258216Y370974D01*
X258120Y371008D01*
X258086Y371022D01*
X257966Y371087D01*
X257918Y371121D01*
X257905Y371128D01*
X257891Y371142D01*
X257877Y371148D01*
X257857Y371169D01*
X257843Y371176D01*
X257802Y371217D01*
X257789Y371224D01*
X257771Y371241D01*
X257765Y371254D01*
X257703Y371316D01*
X257696Y371330D01*
X257683Y371343D01*
X257676Y371357D01*
X257662Y371371D01*
X257655Y371384D01*
X257642Y371398D01*
X257635Y371412D01*
X257608Y371453D01*
X257601Y371466D01*
X257566Y371521D01*
X257532Y371596D01*
X257512Y371644D01*
X257498Y371678D01*
X257464Y371788D01*
X257443Y371869D01*
X257437Y371917D01*
X257430Y371945D01*
X257423Y372075D01*
X257430Y372273D01*
X257437Y372293D01*
X257447Y372351D01*
X257460Y372406D01*
X257488Y372481D01*
X257515Y372550D01*
X257594Y372697D01*
X257628Y372744D01*
X257635Y372758D01*
X257700Y372844D01*
X257724Y372867D01*
X257731Y372881D01*
X257830Y372980D01*
X257843Y372987D01*
X257864Y373008D01*
X257877Y373014D01*
X257891Y373028D01*
X257905Y373035D01*
X257918Y373049D01*
X257932Y373055D01*
X257980Y373090D01*
X258123Y373158D01*
X258158Y373172D01*
X258294Y373213D01*
X258349Y373226D01*
X258397Y373233D01*
X258424Y373240D01*
X258534Y373247D01*
X258704Y373240D01*
D02*
G37*
%LPC*%
G36*
X260406Y383171D02*
X260290Y383165D01*
X260256Y383151D01*
X260194Y383117D01*
X260167Y383089D01*
X260154Y383083D01*
X260130Y383059D01*
X260123Y383045D01*
X260109Y383031D01*
X260102Y383017D01*
X260095Y383011D01*
X260092Y383007D01*
X260054Y382929D01*
X260048Y382901D01*
X260044Y382884D01*
X260065Y382830D01*
X260095Y382778D01*
X260102Y382765D01*
X260116Y382751D01*
X260123Y382737D01*
X260150Y382710D01*
X260157Y382696D01*
X260294Y382560D01*
X260300Y382546D01*
X260338Y382508D01*
X260355Y382525D01*
X260362Y382539D01*
X260376Y382553D01*
X260383Y382566D01*
X260485Y382710D01*
X260492Y382724D01*
X260519Y382765D01*
X260526Y382778D01*
X260574Y382881D01*
X260588Y382929D01*
X260577Y382994D01*
X260571Y383021D01*
X260536Y383076D01*
X260526Y383086D01*
X260519Y383100D01*
X260495Y383123D01*
X260482Y383130D01*
X260468Y383144D01*
X260454Y383151D01*
X260406Y383171D01*
D02*
G37*
G36*
X261268Y382447D02*
X261233Y382440D01*
X261199Y382426D01*
X261104Y382399D01*
X260967Y382365D01*
X260898Y382344D01*
X260851Y382324D01*
X260748Y382269D01*
X260735Y382255D01*
X260721Y382249D01*
X260642Y382170D01*
X260635Y382156D01*
X260608Y382115D01*
X260588Y382067D01*
X260574Y382020D01*
X260560Y381965D01*
X260553Y381856D01*
X260560Y381835D01*
X260567Y381767D01*
X260574Y381746D01*
X260605Y381661D01*
X260639Y381586D01*
X260670Y381534D01*
X260676Y381521D01*
X260711Y381473D01*
X260717Y381459D01*
X260782Y381374D01*
X260799Y381350D01*
X260820Y381329D01*
X260827Y381316D01*
X260888Y381254D01*
X260895Y381240D01*
X260960Y381175D01*
X260974Y381169D01*
X261028Y381114D01*
X261042Y381107D01*
X261069Y381080D01*
X261083Y381073D01*
X261131Y381039D01*
X261220Y380998D01*
X261254Y380984D01*
X261350Y380957D01*
X261398Y380950D01*
X261425Y380943D01*
X261544Y380940D01*
X261620Y380946D01*
X261661Y380953D01*
X261695Y380960D01*
X261722Y380967D01*
X261818Y381001D01*
X261924Y381059D01*
X261985Y381107D01*
X262057Y381179D01*
Y381186D01*
X262078Y381206D01*
X262139Y381336D01*
X262160Y381418D01*
X262173Y381514D01*
X262166Y381657D01*
X262160Y381678D01*
X262149Y381722D01*
X262139Y381760D01*
X262125Y381794D01*
X262108Y381838D01*
X262050Y381938D01*
X262002Y381999D01*
X261931Y382071D01*
X261917Y382078D01*
X261896Y382098D01*
X261883Y382105D01*
X261869Y382119D01*
X261856Y382126D01*
X261842Y382139D01*
X261828Y382146D01*
X261780Y382180D01*
X261767Y382187D01*
X261726Y382214D01*
X261664Y382249D01*
X261548Y382310D01*
X261268Y382447D01*
D02*
G37*
G36*
X253517Y367492D02*
X253496Y367485D01*
X253435Y367478D01*
X253366Y367451D01*
X253301Y367406D01*
X253260Y367372D01*
X253219Y367331D01*
X253212Y367317D01*
X253192Y367297D01*
X253124Y367153D01*
X253117Y367126D01*
X253107Y367082D01*
X253100Y367047D01*
X253093Y366979D01*
X253089Y366941D01*
X253096Y366921D01*
X253103Y366839D01*
X253110Y366818D01*
X253134Y366754D01*
X253148Y366719D01*
X253199Y366627D01*
X253230Y366589D01*
X253247Y366565D01*
X253312Y366501D01*
X253325Y366494D01*
X253339Y366480D01*
X253353Y366473D01*
X253366Y366460D01*
X253455Y366419D01*
X253489Y366405D01*
X253534Y366395D01*
X253585Y366391D01*
X253592D01*
X253619Y366384D01*
X253688Y366391D01*
X253715Y366398D01*
X253752Y366408D01*
X253821Y366436D01*
X253879Y366473D01*
X253917Y366504D01*
X253940Y366521D01*
X253964Y366545D01*
X253971Y366559D01*
X253998Y366586D01*
X254005Y366600D01*
X254019Y366613D01*
X254081Y366743D01*
X254094Y366791D01*
X254108Y366846D01*
X254115Y366955D01*
X254108Y367003D01*
X254101Y367030D01*
X254091Y367068D01*
X254064Y367136D01*
X254022Y367205D01*
X253995Y367246D01*
X253985Y367256D01*
X253978Y367269D01*
X253893Y367355D01*
X253879Y367362D01*
X253858Y367382D01*
X253845Y367389D01*
X253804Y367417D01*
X253715Y367458D01*
X253667Y367471D01*
X253612Y367485D01*
X253517Y367492D01*
D02*
G37*
G36*
X253339Y365598D02*
X253288Y365588D01*
X253233Y365554D01*
X253209Y365530D01*
X253195Y365523D01*
X253120Y365448D01*
X253107Y365441D01*
X253096Y365431D01*
X253120Y365414D01*
X253134Y365400D01*
X253148Y365393D01*
X253161Y365380D01*
X253175Y365373D01*
X253189Y365359D01*
X253195D01*
X253223Y365332D01*
X253236Y365325D01*
X253250Y365311D01*
X253264Y365304D01*
X253284Y365284D01*
X253298Y365277D01*
X253312Y365263D01*
X253325Y365257D01*
X253346Y365236D01*
X253360Y365229D01*
X253373Y365216D01*
X253387Y365209D01*
X253407Y365188D01*
X253424Y365185D01*
X253465Y365274D01*
X253486Y365342D01*
X253493Y365369D01*
X253500Y365438D01*
X253489Y365489D01*
X253479Y365513D01*
X253448Y365550D01*
X253435Y365564D01*
X253366Y365592D01*
X253339Y365598D01*
D02*
G37*
%LPD*%
D10*
X362008Y370079D02*
G03*
X362008Y370079I-12598J0D01*
G01*
X228150D02*
G03*
X228150Y370079I-12598J0D01*
G01*
X339567Y362294D02*
Y377912D01*
X205709Y362294D02*
Y377912D01*
D11*
X354331Y224410D02*
G03*
X354331Y224410I-7874J0D01*
G01*
X267717Y280118D02*
G03*
X267717Y280118I-7874J0D01*
G01*
Y168701D02*
G03*
X267717Y168701I-7874J0D01*
G01*
X228346Y224410D02*
G03*
X228346Y224410I-7874J0D01*
G01*
X141732Y280118D02*
G03*
X141732Y280118I-7874J0D01*
G01*
Y168701D02*
G03*
X141732Y168701I-7874J0D01*
G01*
X358391Y381102D02*
X362081D01*
X360236Y379257D02*
Y382948D01*
X224533Y381102D02*
X228223D01*
X226378Y379257D02*
Y382948D01*
D12*
X153150Y461417D02*
X154724D01*
X151969Y462992D02*
X155905D01*
X150000Y464567D02*
X157874D01*
X153937D02*
Y468504D01*
X117776Y367126D02*
Y420276D01*
Y367126D02*
X168957D01*
Y420276D01*
X117776D02*
X168957D01*
X275591Y338583D02*
X279528D01*
X328740Y336614D02*
Y340551D01*
X326772Y338583D02*
X330709D01*
X243950Y116709D02*
X362550D01*
Y333710D01*
X243950D02*
X362550D01*
X243950Y116709D02*
Y333710D01*
X149606Y338583D02*
X153543D01*
X202756Y336614D02*
Y340551D01*
X200787Y338583D02*
X204724D01*
X117965Y116709D02*
X236565D01*
Y333710D01*
X117965D02*
X236565D01*
X117965Y116709D02*
Y333710D01*
X304462Y355643D02*
X303806Y356299D01*
X302494D01*
X301838Y355643D01*
Y353019D01*
X302494Y352363D01*
X303806D01*
X304462Y353019D01*
X308398Y356299D02*
X305774D01*
Y354331D01*
X307086Y354987D01*
X307742D01*
X308398Y354331D01*
Y353019D01*
X307742Y352363D01*
X306430D01*
X305774Y353019D01*
X176509Y355643D02*
X175853Y356299D01*
X174541D01*
X173886Y355643D01*
Y353019D01*
X174541Y352363D01*
X175853D01*
X176509Y353019D01*
X179789Y352363D02*
Y356299D01*
X177821Y354331D01*
X180445D01*
D13*
X282480Y391732D02*
X284449D01*
X279528Y394685D02*
X287402D01*
X276575Y397638D02*
X290354D01*
X283465D02*
Y403543D01*
D14*
X207677Y410236D02*
X249016D01*
Y492520D01*
X207677D02*
X249016D01*
X207677Y410236D02*
Y492520D01*
X262795Y410236D02*
X304134D01*
Y492520D01*
X262795D02*
X304134D01*
X262795Y410236D02*
Y492520D01*
X317913Y410236D02*
X359252D01*
Y492520D01*
X317913D02*
X359252D01*
X317913Y410236D02*
Y492520D01*
X170472Y343307D02*
Y349606D01*
X183858Y343307D02*
Y349606D01*
X170472D02*
X183858D01*
X170472Y343307D02*
X183858D01*
X298425D02*
X311811D01*
X298425Y349606D02*
X311811D01*
Y343307D02*
Y349606D01*
X298425Y343307D02*
Y349606D01*
D15*
X173625Y478542D02*
X177560D01*
X179528Y476575D02*
X180512Y475591D01*
X182480D01*
X183464Y476575D01*
Y480510D01*
X182480Y481494D01*
X180512D01*
X179528Y480510D01*
Y479526D01*
X180512Y478542D01*
X183464D01*
X185432Y481494D02*
Y477558D01*
X187400Y475591D01*
X189367Y477558D01*
Y481494D01*
X118507Y478542D02*
X122442D01*
X120474Y480510D02*
Y476575D01*
X124410D02*
X125394Y475591D01*
X127362D01*
X128346Y476575D01*
Y480510D01*
X127362Y481494D01*
X125394D01*
X124410Y480510D01*
Y479526D01*
X125394Y478542D01*
X128346D01*
X130314Y481494D02*
Y477558D01*
X132282Y475591D01*
X134249Y477558D01*
Y481494D01*
X243256Y341973D02*
Y345909D01*
X246208D01*
X247192Y344925D01*
Y341973D01*
X250144D02*
X252112D01*
X253096Y342957D01*
Y344925D01*
X252112Y345909D01*
X250144D01*
X249160Y344925D01*
Y342957D01*
X250144Y341973D01*
X255063Y345909D02*
X258999Y341973D01*
X257031Y343941D01*
X258999Y345909D01*
X255063Y341973D01*
X263919D02*
X261951D01*
X260967Y342957D01*
Y344925D01*
X261951Y345909D01*
X263919D01*
X264903Y344925D01*
Y343941D01*
X260967D01*
X267854Y346893D02*
Y345909D01*
X266871D01*
X268839D01*
X267854D01*
Y342957D01*
X268839Y341973D01*
D16*
X320871Y396061D02*
X328743D01*
X332678Y392125D02*
X334646Y390158D01*
X338582D01*
X340550Y392125D01*
Y399997D01*
X338582Y401965D01*
X334646D01*
X332678Y399997D01*
Y398029D01*
X334646Y396061D01*
X340550D01*
X344486Y401965D02*
Y394093D01*
X348421Y390158D01*
X352357Y394093D01*
Y401965D01*
X214572Y396061D02*
X222444D01*
X218508Y399997D02*
Y392125D01*
X226379D02*
X228347Y390158D01*
X232283D01*
X234251Y392125D01*
Y399997D01*
X232283Y401965D01*
X228347D01*
X226379Y399997D01*
Y398029D01*
X228347Y396061D01*
X234251D01*
X238186Y401965D02*
Y394093D01*
X242122Y390158D01*
X246058Y394093D01*
Y401965D01*
D17*
X123360Y434643D02*
X120737D01*
X119425Y433331D01*
Y428084D01*
X120737Y426772D01*
X123360D01*
X124672Y428084D01*
Y433331D01*
X123360Y434643D01*
X127296Y426772D02*
Y434643D01*
X132544Y426772D01*
Y434643D01*
X339898Y344093D02*
X345146D01*
X347770Y341469D02*
X349082Y340158D01*
X351706D01*
X353017Y341469D01*
Y346717D01*
X351706Y348029D01*
X349082D01*
X347770Y346717D01*
Y345405D01*
X349082Y344093D01*
X353017D01*
X355641Y348029D02*
Y342781D01*
X358265Y340158D01*
X360889Y342781D01*
Y348029D01*
X119426Y344093D02*
X124674D01*
X122050Y346717D02*
Y341469D01*
X127297D02*
X128609Y340158D01*
X131233D01*
X132545Y341469D01*
Y346717D01*
X131233Y348029D01*
X128609D01*
X127297Y346717D01*
Y345405D01*
X128609Y344093D01*
X132545D01*
X135169Y348029D02*
Y342781D01*
X137793Y340158D01*
X140417Y342781D01*
Y348029D01*
M02*
