G04*
G04 #@! TF.GenerationSoftware,Altium Limited,Altium Designer,25.0.2 (28)*
G04*
G04 Layer_Physical_Order=1*
G04 Layer_Color=255*
%FSLAX25Y25*%
%MOIN*%
G70*
G04*
G04 #@! TF.SameCoordinates,61816E46-201E-4D2C-BEF2-F79E074576DA*
G04*
G04*
G04 #@! TF.FilePolarity,Positive*
G04*
G01*
G75*
G04:AMPARAMS|DCode=18|XSize=78.74mil|YSize=78.74mil|CornerRadius=19.68mil|HoleSize=0mil|Usage=FLASHONLY|Rotation=90.000|XOffset=0mil|YOffset=0mil|HoleType=Round|Shape=RoundedRectangle|*
%AMROUNDEDRECTD18*
21,1,0.07874,0.03937,0,0,90.0*
21,1,0.03937,0.07874,0,0,90.0*
1,1,0.03937,0.01968,0.01968*
1,1,0.03937,0.01968,-0.01968*
1,1,0.03937,-0.01968,-0.01968*
1,1,0.03937,-0.01968,0.01968*
%
%ADD18ROUNDEDRECTD18*%
%ADD19R,0.03937X0.04921*%
%ADD30C,0.03150*%
%ADD31C,0.07874*%
%ADD32R,0.07874X0.07874*%
%ADD33C,0.11457*%
G04:AMPARAMS|DCode=34|XSize=118.11mil|YSize=118.11mil|CornerRadius=29.53mil|HoleSize=0mil|Usage=FLASHONLY|Rotation=0.000|XOffset=0mil|YOffset=0mil|HoleType=Round|Shape=RoundedRectangle|*
%AMROUNDEDRECTD34*
21,1,0.11811,0.05906,0,0,0.0*
21,1,0.05906,0.11811,0,0,0.0*
1,1,0.05906,0.02953,-0.02953*
1,1,0.05906,-0.02953,-0.02953*
1,1,0.05906,-0.02953,0.02953*
1,1,0.05906,0.02953,0.02953*
%
%ADD34ROUNDEDRECTD34*%
%ADD35R,0.05906X0.05906*%
%ADD36C,0.05906*%
%ADD37C,0.07087*%
%ADD38C,0.09055*%
G36*
X363823Y494737D02*
X363885Y494729D01*
X365484Y494345D01*
X367023Y493708D01*
X368425Y492849D01*
X368475Y492811D01*
X369652Y491805D01*
X369757Y491700D01*
X370763Y490522D01*
X370801Y490472D01*
X371661Y489070D01*
X372298Y487532D01*
X372682Y485932D01*
X372690Y485871D01*
X372779Y484745D01*
X372812Y484252D01*
X372812Y484252D01*
X372812Y483763D01*
X372812Y118110D01*
X372812Y118110D01*
Y118035D01*
X372690Y116493D01*
X372682Y116429D01*
X372298Y114831D01*
X371661Y113292D01*
X370802Y111890D01*
X370763Y111840D01*
X369757Y110663D01*
X369652Y110558D01*
X368475Y109552D01*
X368425Y109513D01*
X367023Y108654D01*
X365484Y108017D01*
X363885Y107633D01*
X363824Y107625D01*
X362698Y107536D01*
X362205Y107503D01*
X362205Y107503D01*
X361716Y107503D01*
X118110D01*
X118110Y107503D01*
X118036D01*
X116491Y107625D01*
X116430Y107633D01*
X114831Y108017D01*
X113292Y108654D01*
X111890Y109513D01*
X111841Y109552D01*
X110662Y110558D01*
X110558Y110662D01*
X109551Y111841D01*
X109514Y111890D01*
X108654Y113292D01*
X108017Y114831D01*
X107633Y116430D01*
X107625Y116491D01*
X107536Y117624D01*
X107503Y118110D01*
X107503Y118110D01*
X107503Y118111D01*
X107503Y484252D01*
X107503Y484252D01*
Y484326D01*
X107625Y485871D01*
X107633Y485932D01*
X108017Y487532D01*
X108654Y489070D01*
X109513Y490472D01*
X109552Y490522D01*
X110558Y491700D01*
X110662Y491805D01*
X111841Y492811D01*
X111890Y492849D01*
X113292Y493708D01*
X114831Y494345D01*
X116430Y494729D01*
X116492Y494737D01*
X117618Y494826D01*
X118110Y494859D01*
X118110Y494859D01*
X118599Y494859D01*
X362205D01*
X362205Y494859D01*
X362279D01*
X363823Y494737D01*
D02*
G37*
%LPC*%
G36*
X154937Y489095D02*
Y484252D01*
X152937D01*
Y489095D01*
X152031Y488853D01*
X150906Y488203D01*
X149986Y487283D01*
X149336Y486158D01*
X149086Y485222D01*
X148568D01*
X148339Y486075D01*
X147717Y487153D01*
X146838Y488032D01*
X145761Y488654D01*
X144559Y488976D01*
X143315D01*
X142113Y488654D01*
X141036Y488032D01*
X140156Y487153D01*
X139535Y486075D01*
X139213Y484874D01*
Y483630D01*
X139535Y482428D01*
X140156Y481351D01*
X141036Y480472D01*
X141528Y480187D01*
Y478976D01*
X139213D01*
Y469528D01*
X141528D01*
Y455958D01*
X137169Y451599D01*
X133858D01*
X133139Y451504D01*
X132468Y451226D01*
X131893Y450784D01*
X131451Y450209D01*
X131173Y449538D01*
X131079Y448819D01*
Y444882D01*
X131173Y444163D01*
X131451Y443492D01*
X131893Y442916D01*
X132468Y442475D01*
X133139Y442197D01*
X133858Y442102D01*
X137169D01*
X140899Y438373D01*
Y416369D01*
X140399Y416270D01*
X140078Y417044D01*
X139479Y417825D01*
X138697Y418425D01*
X137787Y418801D01*
X136811Y418930D01*
X130905D01*
X129929Y418801D01*
X129019Y418425D01*
X128238Y417825D01*
X127638Y417044D01*
X127262Y416134D01*
X127133Y415158D01*
Y409252D01*
X127262Y408276D01*
X127638Y407366D01*
X128238Y406585D01*
X129019Y405985D01*
X129929Y405608D01*
X130905Y405479D01*
X136811D01*
X137787Y405608D01*
X138697Y405985D01*
X139479Y406585D01*
X140078Y407366D01*
X140399Y408140D01*
X140899Y408040D01*
Y397865D01*
X140399Y397766D01*
X140078Y398540D01*
X139479Y399321D01*
X138697Y399921D01*
X137787Y400297D01*
X136811Y400426D01*
X130905D01*
X129929Y400297D01*
X129019Y399921D01*
X128238Y399321D01*
X127638Y398540D01*
X127262Y397630D01*
X127133Y396654D01*
Y390748D01*
X127176Y390424D01*
X121132Y384380D01*
X120609Y383599D01*
X120426Y382677D01*
Y361417D01*
X120609Y360496D01*
X121132Y359714D01*
X127972Y352874D01*
X128753Y352352D01*
X129675Y352168D01*
X172477D01*
X174266Y350379D01*
X174228Y350289D01*
Y347457D01*
X176197D01*
Y347795D01*
X176659Y347986D01*
X178347Y346299D01*
Y343209D01*
X183858D01*
Y344048D01*
X199146D01*
X199291Y343798D01*
X200097Y342991D01*
X201084Y342421D01*
X202186Y342126D01*
X203326D01*
X204428Y342421D01*
X205415Y342991D01*
X206221Y343798D01*
X206791Y344785D01*
X207087Y345886D01*
Y347027D01*
X207012Y347306D01*
X221585Y361880D01*
X222107Y362661D01*
X222290Y363583D01*
Y366810D01*
X222769Y367086D01*
X223465Y367782D01*
X223958Y368635D01*
X224213Y369586D01*
Y370571D01*
X223958Y371522D01*
X223465Y372375D01*
X222769Y373072D01*
X221916Y373564D01*
X220965Y373819D01*
X219980D01*
X219029Y373564D01*
X218176Y373072D01*
X217480Y372375D01*
X216987Y371522D01*
X216732Y370571D01*
Y369586D01*
X216987Y368635D01*
X217473Y367793D01*
Y364580D01*
X203606Y350712D01*
X203326Y350787D01*
X202186D01*
X201084Y350492D01*
X200097Y349922D01*
X199291Y349116D01*
X199146Y348865D01*
X183858D01*
Y349705D01*
X181753D01*
X175177Y356280D01*
X174396Y356802D01*
X173474Y356985D01*
X130673D01*
X125243Y362415D01*
Y381680D01*
X130582Y387018D01*
X130905Y386976D01*
X136811D01*
X137787Y387104D01*
X138697Y387481D01*
X139479Y388081D01*
X140078Y388862D01*
X140399Y389636D01*
X140899Y389536D01*
Y385643D01*
X137135Y381879D01*
X136811Y381922D01*
X130905D01*
X129929Y381793D01*
X129019Y381417D01*
X128238Y380817D01*
X127638Y380036D01*
X127262Y379126D01*
X127133Y378150D01*
Y372244D01*
X127262Y371268D01*
X127638Y370358D01*
X128238Y369577D01*
X129019Y368977D01*
X129929Y368600D01*
X130905Y368472D01*
X136811D01*
X137787Y368600D01*
X138697Y368977D01*
X139479Y369577D01*
X140078Y370358D01*
X140455Y371268D01*
X140583Y372244D01*
Y378150D01*
X140541Y378473D01*
X145010Y382943D01*
X145532Y383724D01*
X145716Y384646D01*
Y390208D01*
X146216Y390241D01*
X146277Y389772D01*
X146654Y388862D01*
X147254Y388081D01*
X148035Y387481D01*
X148945Y387104D01*
X149921Y386976D01*
X155827D01*
X156803Y387104D01*
X157713Y387481D01*
X158494Y388081D01*
X159094Y388862D01*
X159471Y389772D01*
X159599Y390748D01*
Y396654D01*
X159471Y397630D01*
X159094Y398540D01*
X158494Y399321D01*
X157713Y399921D01*
X156803Y400297D01*
X155827Y400426D01*
X149921D01*
X148945Y400297D01*
X148035Y399921D01*
X147254Y399321D01*
X146654Y398540D01*
X146277Y397630D01*
X146216Y397160D01*
X145716Y397193D01*
Y408712D01*
X146216Y408745D01*
X146277Y408276D01*
X146654Y407366D01*
X147254Y406585D01*
X148035Y405985D01*
X148945Y405608D01*
X149921Y405479D01*
X155827D01*
X156803Y405608D01*
X157713Y405985D01*
X158494Y406585D01*
X159094Y407366D01*
X159471Y408276D01*
X159599Y409252D01*
Y415158D01*
X159471Y416134D01*
X159094Y417044D01*
X158494Y417825D01*
X157713Y418425D01*
X156803Y418801D01*
X155827Y418930D01*
X149921D01*
X148945Y418801D01*
X148035Y418425D01*
X147254Y417825D01*
X146654Y417044D01*
X146277Y416134D01*
X146216Y415664D01*
X145716Y415697D01*
Y439370D01*
X145532Y440292D01*
X145010Y441073D01*
X140575Y445508D01*
Y448193D01*
X145640Y453258D01*
X146162Y454039D01*
X146345Y454961D01*
Y469528D01*
X148661D01*
Y472934D01*
X149161Y473000D01*
X149336Y472346D01*
X149986Y471221D01*
X150906Y470301D01*
X151332Y470055D01*
Y451781D01*
X150800Y451711D01*
X150078Y451412D01*
X149458Y450936D01*
X148982Y450316D01*
X148683Y449594D01*
X148581Y448819D01*
Y447850D01*
X153543D01*
X158506D01*
Y448819D01*
X158404Y449594D01*
X158105Y450316D01*
X157629Y450936D01*
X157009Y451412D01*
X156287Y451711D01*
X156149Y451729D01*
Y469828D01*
X156968Y470301D01*
X157888Y471221D01*
X158538Y472346D01*
X158788Y473282D01*
X159306D01*
X159535Y472428D01*
X160157Y471351D01*
X161036Y470471D01*
X161529Y470187D01*
Y454173D01*
X161712Y453252D01*
X162234Y452470D01*
X166512Y448193D01*
Y444882D01*
X166606Y444163D01*
X166884Y443492D01*
X167326Y442916D01*
X167902Y442475D01*
X168572Y442197D01*
X168851Y442160D01*
Y394580D01*
X156150Y381879D01*
X155827Y381922D01*
X149921D01*
X148945Y381793D01*
X148035Y381417D01*
X147254Y380817D01*
X146654Y380036D01*
X146277Y379126D01*
X146149Y378150D01*
Y372244D01*
X146277Y371268D01*
X146654Y370358D01*
X147254Y369577D01*
X148035Y368977D01*
X148945Y368600D01*
X149921Y368472D01*
X155827D01*
X156803Y368600D01*
X157713Y368977D01*
X158494Y369577D01*
X159094Y370358D01*
X159471Y371268D01*
X159599Y372244D01*
Y378150D01*
X159557Y378473D01*
X172963Y391880D01*
X173485Y392661D01*
X173668Y393583D01*
Y442160D01*
X173948Y442197D01*
X174618Y442475D01*
X175194Y442916D01*
X175636Y443492D01*
X175913Y444163D01*
X176008Y444882D01*
Y448819D01*
X175913Y449538D01*
X175636Y450209D01*
X175194Y450784D01*
X174618Y451226D01*
X173948Y451504D01*
X173228Y451599D01*
X169918D01*
X166346Y455171D01*
Y470187D01*
X166838Y470471D01*
X167718Y471351D01*
X168340Y472428D01*
X168661Y473630D01*
Y474874D01*
X168340Y476076D01*
X167718Y477153D01*
X166838Y478032D01*
X166346Y478317D01*
Y480187D01*
X166838Y480472D01*
X167718Y481351D01*
X168340Y482428D01*
X168661Y483630D01*
Y484874D01*
X168340Y486075D01*
X167718Y487153D01*
X166838Y488032D01*
X165761Y488654D01*
X164559Y488976D01*
X163315D01*
X162113Y488654D01*
X161036Y488032D01*
X160157Y487153D01*
X159535Y486075D01*
X159306Y485222D01*
X158788D01*
X158538Y486158D01*
X157888Y487283D01*
X156968Y488203D01*
X155843Y488853D01*
X154937Y489095D01*
D02*
G37*
G36*
X284465Y488157D02*
Y482496D01*
X290126D01*
X289934Y483459D01*
X289427Y484683D01*
X288691Y485785D01*
X287754Y486722D01*
X286652Y487459D01*
X285427Y487966D01*
X284465Y488157D01*
D02*
G37*
G36*
X282465Y488157D02*
X281502Y487966D01*
X280277Y487459D01*
X279175Y486722D01*
X278238Y485785D01*
X277502Y484683D01*
X276995Y483459D01*
X276803Y482496D01*
X282465D01*
Y488157D01*
D02*
G37*
G36*
X158506Y445850D02*
X154543D01*
Y441888D01*
X155512D01*
X156287Y441990D01*
X157009Y442289D01*
X157629Y442765D01*
X158105Y443385D01*
X158404Y444107D01*
X158506Y444882D01*
Y445850D01*
D02*
G37*
G36*
X152543D02*
X148581D01*
Y444882D01*
X148683Y444107D01*
X148982Y443385D01*
X149458Y442765D01*
X150078Y442289D01*
X150800Y441990D01*
X151575Y441888D01*
X152543D01*
Y445850D01*
D02*
G37*
G36*
X290126Y480496D02*
X283465D01*
X276803D01*
X276995Y479533D01*
X277502Y478309D01*
X278238Y477207D01*
X279175Y476270D01*
X280277Y475533D01*
X281056Y475211D01*
Y427545D01*
X280277Y427222D01*
X279175Y426486D01*
X278238Y425549D01*
X277502Y424447D01*
X276995Y423222D01*
X276803Y422260D01*
X283465D01*
X290126D01*
X289934Y423222D01*
X289427Y424447D01*
X288691Y425549D01*
X287754Y426486D01*
X286652Y427222D01*
X285873Y427545D01*
Y475211D01*
X286652Y475533D01*
X287754Y476270D01*
X288691Y477207D01*
X289427Y478309D01*
X289934Y479533D01*
X290126Y480496D01*
D02*
G37*
G36*
X339224Y488012D02*
X337941D01*
X336682Y487761D01*
X335496Y487270D01*
X334429Y486557D01*
X333522Y485650D01*
X332808Y484582D01*
X332317Y483397D01*
X332067Y482138D01*
Y480854D01*
X332317Y479596D01*
X332808Y478410D01*
X333522Y477343D01*
X334429Y476435D01*
X335496Y475722D01*
X336174Y475441D01*
Y427315D01*
X335496Y427034D01*
X334429Y426321D01*
X333522Y425413D01*
X332808Y424346D01*
X332317Y423160D01*
X332067Y421902D01*
Y420618D01*
X332317Y419359D01*
X332808Y418174D01*
X333522Y417106D01*
X334429Y416199D01*
X335496Y415486D01*
X336682Y414994D01*
X337941Y414744D01*
X339224D01*
X340483Y414994D01*
X341669Y415486D01*
X342736Y416199D01*
X343644Y417106D01*
X344357Y418174D01*
X344848Y419359D01*
X345098Y420618D01*
Y421902D01*
X344848Y423160D01*
X344357Y424346D01*
X343644Y425413D01*
X342736Y426321D01*
X341669Y427034D01*
X340991Y427315D01*
Y475441D01*
X341669Y475722D01*
X342736Y476435D01*
X343644Y477343D01*
X344357Y478410D01*
X344848Y479596D01*
X345098Y480854D01*
Y482138D01*
X344848Y483397D01*
X344357Y484582D01*
X343644Y485650D01*
X342736Y486557D01*
X341669Y487270D01*
X340483Y487761D01*
X339224Y488012D01*
D02*
G37*
G36*
X228988D02*
X227705D01*
X226446Y487761D01*
X225260Y487270D01*
X224193Y486557D01*
X223285Y485650D01*
X222572Y484582D01*
X222081Y483397D01*
X221831Y482138D01*
Y480854D01*
X222081Y479596D01*
X222572Y478410D01*
X223285Y477343D01*
X224193Y476435D01*
X225260Y475722D01*
X225938Y475441D01*
Y427315D01*
X225260Y427034D01*
X224193Y426321D01*
X223285Y425413D01*
X222572Y424346D01*
X222081Y423160D01*
X221831Y421902D01*
Y420618D01*
X222081Y419359D01*
X222572Y418174D01*
X223285Y417106D01*
X224193Y416199D01*
X225260Y415486D01*
X226446Y414994D01*
X227705Y414744D01*
X228988D01*
X230247Y414994D01*
X231433Y415486D01*
X232500Y416199D01*
X233408Y417106D01*
X234121Y418174D01*
X234612Y419359D01*
X234862Y420618D01*
Y421902D01*
X234612Y423160D01*
X234121Y424346D01*
X233408Y425413D01*
X232500Y426321D01*
X231433Y427034D01*
X230755Y427315D01*
Y475441D01*
X231433Y475722D01*
X232500Y476435D01*
X233408Y477343D01*
X234121Y478410D01*
X234612Y479596D01*
X234862Y480854D01*
Y482138D01*
X234612Y483397D01*
X234121Y484582D01*
X233408Y485650D01*
X232500Y486557D01*
X231433Y487270D01*
X230247Y487761D01*
X228988Y488012D01*
D02*
G37*
G36*
X282465Y420260D02*
X276803D01*
X276995Y419297D01*
X277502Y418073D01*
X278238Y416971D01*
X279175Y416034D01*
X280277Y415297D01*
X281502Y414790D01*
X282465Y414599D01*
Y420260D01*
D02*
G37*
G36*
X290126D02*
X284465D01*
Y414599D01*
X285427Y414790D01*
X286652Y415297D01*
X287754Y416034D01*
X288691Y416971D01*
X289427Y418073D01*
X289934Y419297D01*
X290126Y420260D01*
D02*
G37*
G36*
X355331Y373903D02*
Y371079D01*
X358155D01*
X358014Y371604D01*
X357494Y372506D01*
X356758Y373242D01*
X355856Y373762D01*
X355331Y373903D01*
D02*
G37*
G36*
X353331D02*
X352805Y373762D01*
X351904Y373242D01*
X351168Y372506D01*
X350647Y371604D01*
X350506Y371079D01*
X353331D01*
Y373903D01*
D02*
G37*
G36*
X214583Y374031D02*
X211630D01*
Y371079D01*
X214583D01*
Y374031D01*
D02*
G37*
G36*
X209630D02*
X206677D01*
Y371079D01*
X209630D01*
Y374031D01*
D02*
G37*
G36*
X348228Y373819D02*
X340748D01*
Y372487D01*
X312205D01*
X311283Y372304D01*
X310502Y371782D01*
X299478Y360758D01*
X298956Y359977D01*
X298773Y359055D01*
Y349705D01*
X298425D01*
Y348865D01*
X281169D01*
X281025Y349116D01*
X280218Y349922D01*
X279231Y350492D01*
X278129Y350787D01*
X276989D01*
X275887Y350492D01*
X274900Y349922D01*
X274094Y349116D01*
X273523Y348128D01*
X273228Y347027D01*
Y345886D01*
X273523Y344785D01*
X274094Y343798D01*
X274900Y342991D01*
X275887Y342421D01*
X276989Y342126D01*
X278129D01*
X279231Y342421D01*
X280218Y342991D01*
X281025Y343798D01*
X281169Y344048D01*
X298425D01*
Y343209D01*
X303937D01*
Y349705D01*
X303590D01*
Y358057D01*
X313202Y367670D01*
X340748D01*
Y366339D01*
X348228D01*
Y373819D01*
D02*
G37*
G36*
X358155Y369079D02*
X355331D01*
Y366254D01*
X355856Y366395D01*
X356758Y366916D01*
X357494Y367652D01*
X358014Y368553D01*
X358155Y369079D01*
D02*
G37*
G36*
X353331D02*
X350506D01*
X350647Y368553D01*
X351168Y367652D01*
X351904Y366916D01*
X352805Y366395D01*
X353331Y366254D01*
Y369079D01*
D02*
G37*
G36*
X214583D02*
X211630D01*
Y366126D01*
X214583D01*
Y369079D01*
D02*
G37*
G36*
X209630D02*
X206677D01*
Y366126D01*
X209630D01*
Y369079D01*
D02*
G37*
G36*
X327740Y350892D02*
X326987Y350690D01*
X325951Y350092D01*
X325105Y349246D01*
X324885Y348865D01*
X312024D01*
Y349917D01*
X310055D01*
Y346457D01*
Y342996D01*
X312024D01*
Y344048D01*
X324885D01*
X325105Y343667D01*
X325951Y342821D01*
X326987Y342223D01*
X327740Y342021D01*
Y346457D01*
Y350892D01*
D02*
G37*
G36*
X329740D02*
Y347457D01*
X333176D01*
X332974Y348210D01*
X332376Y349246D01*
X331530Y350092D01*
X330494Y350690D01*
X329740Y350892D01*
D02*
G37*
G36*
X308055Y349917D02*
X306087D01*
Y347457D01*
X308055D01*
Y349917D01*
D02*
G37*
G36*
X150575Y350892D02*
X149821Y350690D01*
X148785Y350092D01*
X147939Y349246D01*
X147341Y348210D01*
X147139Y347457D01*
X150575D01*
Y350892D01*
D02*
G37*
G36*
X308055Y345457D02*
X306087D01*
Y342996D01*
X308055D01*
Y345457D01*
D02*
G37*
G36*
X176197D02*
X174228D01*
Y342996D01*
X176197D01*
Y345457D01*
D02*
G37*
G36*
X152575Y350892D02*
Y346457D01*
Y342021D01*
X153328Y342223D01*
X154365Y342821D01*
X155210Y343667D01*
X155430Y344048D01*
X170260D01*
Y342996D01*
X172228D01*
Y346457D01*
Y349917D01*
X170260D01*
Y348865D01*
X155430D01*
X155210Y349246D01*
X154365Y350092D01*
X153328Y350690D01*
X152575Y350892D01*
D02*
G37*
G36*
X333176Y345457D02*
X329740D01*
Y342021D01*
X330494Y342223D01*
X331530Y342821D01*
X332376Y343667D01*
X332974Y344703D01*
X333176Y345457D01*
D02*
G37*
G36*
X150575D02*
X147139D01*
X147341Y344703D01*
X147939Y343667D01*
X148785Y342821D01*
X149821Y342223D01*
X150575Y342021D01*
Y345457D01*
D02*
G37*
G36*
X260542Y285433D02*
X259143D01*
X257791Y285071D01*
X256579Y284371D01*
X255590Y283382D01*
X254890Y282170D01*
X254528Y280818D01*
Y279418D01*
X254890Y278067D01*
X255590Y276855D01*
X256579Y275865D01*
X257791Y275165D01*
X259143Y274803D01*
X260542D01*
X261894Y275165D01*
X263106Y275865D01*
X264095Y276855D01*
X264795Y278067D01*
X265158Y279418D01*
Y280818D01*
X264795Y282170D01*
X264095Y283382D01*
X263106Y284371D01*
X261894Y285071D01*
X260542Y285433D01*
D02*
G37*
G36*
X134558D02*
X133159D01*
X131807Y285071D01*
X130595Y284371D01*
X129605Y283382D01*
X128905Y282170D01*
X128543Y280818D01*
Y279418D01*
X128905Y278067D01*
X129605Y276855D01*
X130595Y275865D01*
X131807Y275165D01*
X133159Y274803D01*
X134558D01*
X135910Y275165D01*
X137122Y275865D01*
X138111Y276855D01*
X138811Y278067D01*
X139173Y279418D01*
Y280818D01*
X138811Y282170D01*
X138111Y283382D01*
X137122Y284371D01*
X135910Y285071D01*
X134558Y285433D01*
D02*
G37*
G36*
X347156Y229724D02*
X345757D01*
X344405Y229362D01*
X343193Y228662D01*
X342204Y227673D01*
X341504Y226461D01*
X341142Y225109D01*
Y223710D01*
X341504Y222358D01*
X342204Y221146D01*
X343193Y220156D01*
X344405Y219457D01*
X345757Y219094D01*
X347156D01*
X348508Y219457D01*
X349720Y220156D01*
X350710Y221146D01*
X351410Y222358D01*
X351772Y223710D01*
Y225109D01*
X351410Y226461D01*
X350710Y227673D01*
X349720Y228662D01*
X348508Y229362D01*
X347156Y229724D01*
D02*
G37*
G36*
X221172D02*
X219773D01*
X218421Y229362D01*
X217209Y228662D01*
X216219Y227673D01*
X215520Y226461D01*
X215158Y225109D01*
Y223710D01*
X215520Y222358D01*
X216219Y221146D01*
X217209Y220156D01*
X218421Y219457D01*
X219773Y219094D01*
X221172D01*
X222524Y219457D01*
X223736Y220156D01*
X224726Y221146D01*
X225425Y222358D01*
X225787Y223710D01*
Y225109D01*
X225425Y226461D01*
X224726Y227673D01*
X223736Y228662D01*
X222524Y229362D01*
X221172Y229724D01*
D02*
G37*
G36*
X260542Y174016D02*
X259143D01*
X257791Y173653D01*
X256579Y172954D01*
X255590Y171964D01*
X254890Y170752D01*
X254528Y169401D01*
Y168001D01*
X254890Y166649D01*
X255590Y165437D01*
X256579Y164448D01*
X257791Y163748D01*
X259143Y163386D01*
X260542D01*
X261894Y163748D01*
X263106Y164448D01*
X264095Y165437D01*
X264795Y166649D01*
X265158Y168001D01*
Y169401D01*
X264795Y170752D01*
X264095Y171964D01*
X263106Y172954D01*
X261894Y173653D01*
X260542Y174016D01*
D02*
G37*
G36*
X134558D02*
X133159D01*
X131807Y173653D01*
X130595Y172954D01*
X129605Y171964D01*
X128905Y170752D01*
X128543Y169401D01*
Y168001D01*
X128905Y166649D01*
X129605Y165437D01*
X130595Y164448D01*
X131807Y163748D01*
X133159Y163386D01*
X134558D01*
X135910Y163748D01*
X137122Y164448D01*
X138111Y165437D01*
X138811Y166649D01*
X139173Y168001D01*
Y169401D01*
X138811Y170752D01*
X138111Y171964D01*
X137122Y172954D01*
X135910Y173653D01*
X134558Y174016D01*
D02*
G37*
%LPD*%
D18*
X153543Y446850D02*
D03*
X171260D02*
D03*
X135827D02*
D03*
D19*
X181102Y346457D02*
D03*
X173228D02*
D03*
X301181D02*
D03*
X309055D02*
D03*
D30*
X163937Y474252D02*
Y484252D01*
X153937Y474252D02*
Y484252D01*
X143937Y474252D02*
Y484252D01*
X309055Y346457D02*
X328740D01*
X151575D02*
X173228D01*
X338583Y421260D02*
Y481496D01*
X283465Y421260D02*
Y481496D01*
X228346Y421260D02*
Y481496D01*
X143307Y384646D02*
Y439370D01*
X135827Y446850D02*
X143307Y439370D01*
X133858Y375197D02*
X143307Y384646D01*
X171260Y393583D02*
Y446850D01*
X152874Y375197D02*
X171260Y393583D01*
X277559Y346457D02*
X301181D01*
Y359055D01*
X312205Y370079D01*
X344488D01*
X122835Y361417D02*
X129675Y354577D01*
X173474D01*
X181102Y346949D01*
Y346457D02*
Y346949D01*
X122835Y361417D02*
Y382677D01*
X133858Y393701D01*
X181102Y346457D02*
X202756D01*
X219882Y363583D02*
Y369488D01*
X220472Y370079D01*
X202756Y346457D02*
X219882Y363583D01*
X153543Y446850D02*
X153740Y447047D01*
Y474055D01*
X153937Y474252D01*
X163937Y454173D02*
X171260Y446850D01*
X163937Y454173D02*
Y474252D01*
X143937Y454961D02*
Y474252D01*
X135827Y446850D02*
X143937Y454961D01*
D31*
Y484252D02*
D03*
X153937D02*
D03*
X163937D02*
D03*
Y474252D02*
D03*
X153937D02*
D03*
D32*
X143937D02*
D03*
D33*
X228346Y481496D02*
D03*
Y421260D02*
D03*
X283465Y481496D02*
D03*
Y421260D02*
D03*
X338583Y481496D02*
D03*
Y421260D02*
D03*
D34*
X152874Y412205D02*
D03*
Y393701D02*
D03*
Y375197D02*
D03*
X133858Y412205D02*
D03*
Y393701D02*
D03*
Y375197D02*
D03*
D35*
X344488Y370079D02*
D03*
X210630D02*
D03*
D36*
X354331D02*
D03*
X220472D02*
D03*
D37*
X328740Y346457D02*
D03*
X277559D02*
D03*
X202756D02*
D03*
X151575D02*
D03*
D38*
X259842Y280118D02*
D03*
Y168701D02*
D03*
X346457Y224410D02*
D03*
X133858Y280118D02*
D03*
Y168701D02*
D03*
X220472Y224410D02*
D03*
M02*
