G04*
G04 #@! TF.GenerationSoftware,Altium Limited,Altium Designer,25.0.2 (28)*
G04*
G04 Layer_Color=32896*
%FSLAX25Y25*%
%MOIN*%
G70*
G04*
G04 #@! TF.SameCoordinates,07FDBEE1-15C7-41E5-936D-62C0B986F6FC*
G04*
G04*
G04 #@! TF.FilePolarity,Positive*
G04*
G01*
G75*
%ADD11C,0.01000*%
%ADD17C,0.01575*%
D11*
X354331Y224410D02*
G03*
X354331Y224410I-7874J0D01*
G01*
X267717Y280118D02*
G03*
X267717Y280118I-7874J0D01*
G01*
Y168701D02*
G03*
X267717Y168701I-7874J0D01*
G01*
X228346Y224410D02*
G03*
X228346Y224410I-7874J0D01*
G01*
X141732Y280118D02*
G03*
X141732Y280118I-7874J0D01*
G01*
Y168701D02*
G03*
X141732Y168701I-7874J0D01*
G01*
D17*
X198152Y435956D02*
X195528Y430709D01*
X192904Y435956D01*
X190281Y437268D02*
X188969Y438580D01*
X186345D01*
X185033Y437268D01*
Y432021D01*
X186345Y430709D01*
X188969D01*
X190281Y432021D01*
Y437268D01*
X182409Y430709D02*
Y432021D01*
X181097D01*
Y430709D01*
X182409D01*
X175850D02*
X173226D01*
X174538D01*
Y438580D01*
X175850Y437268D01*
X156171Y430709D02*
X161419D01*
X156171Y435956D01*
Y437268D01*
X157483Y438580D01*
X160107D01*
X161419Y437268D01*
X153547D02*
X152235Y438580D01*
X149611D01*
X148300Y437268D01*
Y432021D01*
X149611Y430709D01*
X152235D01*
X153547Y432021D01*
Y437268D01*
X140428Y430709D02*
X145676D01*
X140428Y435956D01*
Y437268D01*
X141740Y438580D01*
X144364D01*
X145676Y437268D01*
X132556Y438580D02*
X135180Y437268D01*
X137804Y434644D01*
Y432021D01*
X136492Y430709D01*
X133868D01*
X132556Y432021D01*
Y433332D01*
X133868Y434644D01*
X137804D01*
X364157Y438580D02*
Y430709D01*
X358910D01*
X354974D02*
X352350D01*
X351038Y432021D01*
Y434644D01*
X352350Y435956D01*
X354974D01*
X356286Y434644D01*
Y432021D01*
X354974Y430709D01*
X348414Y435956D02*
Y432021D01*
X347102Y430709D01*
X345791Y432021D01*
X344479Y430709D01*
X343167Y432021D01*
Y435956D01*
X332671Y430709D02*
Y438580D01*
X327424Y430709D01*
Y438580D01*
X323488Y430709D02*
X320864D01*
X319552Y432021D01*
Y434644D01*
X320864Y435956D01*
X323488D01*
X324800Y434644D01*
Y432021D01*
X323488Y430709D01*
X316929D02*
X314305D01*
X315617D01*
Y435956D01*
X316929D01*
X310369Y430709D02*
X306433D01*
X305121Y432021D01*
X306433Y433332D01*
X309057D01*
X310369Y434644D01*
X309057Y435956D01*
X305121D01*
X298562Y430709D02*
X301185D01*
X302497Y432021D01*
Y434644D01*
X301185Y435956D01*
X298562D01*
X297250Y434644D01*
Y433332D01*
X302497D01*
X286754Y430709D02*
Y438580D01*
X282819D01*
X281507Y437268D01*
Y434644D01*
X282819Y433332D01*
X286754D01*
X273635Y437268D02*
X274947Y438580D01*
X277571D01*
X278883Y437268D01*
Y435956D01*
X277571Y434644D01*
X274947D01*
X273635Y433332D01*
Y432021D01*
X274947Y430709D01*
X277571D01*
X278883Y432021D01*
X271011Y438580D02*
Y432021D01*
X269700Y430709D01*
X267076D01*
X265764Y432021D01*
Y438580D01*
M02*
