M48
;Layer_Color=9474304
;FILE_FORMAT=2:5
INCH
;TYPE=PLATED
T01F00S00C0.03150
T02F00S00C0.03937
T03F00S00C0.06299
T04F00S00C0.07638
%
T01
X0151575Y0346457
X0202756
X0210630Y0370079
X0220472
X0277559Y0346457
X0328740
X0344488Y0370079
X0354331
T02
X0163937Y0474252
Y0484252
X0153937
X0143937
Y0474252
X0153937
T03
X0133858Y0375197
Y0393701
Y0412205
X0152874
Y0393701
Y0375197
T04
X0228346Y0421260
X0283465
X0338583
Y0481496
X0283465
X0228346
M30
