M48
;Layer_Color=9474304
;FILE_FORMAT=2:5
INCH
;TYPE=PLATED
T01F00S00C0.03150
T02F00S00C0.03937
T03F00S00C0.06299
T04F00S00C0.07638
%
T01
X0151575Y0346457
X0202756
X0183071Y0377953
X0173228
X0299213
X0309055
X0277559Y0346457
X0328740
T02
X0163937Y0505748
Y0515748
X0153937
Y0505748
X0143937
Y0515748
T03
X0230315Y0363386
Y0381890
Y0400394
X0249331
Y0381890
Y0363386
T04
X0228346Y0464567
X0283465
X0338583
Y0524803
X0283465
X0228346
M30
